<?xml version="1.0" encoding="utf-8"?>
<!-- Generator: Adobe Illustrator 24.3.0, SVG Export Plug-In . SVG Version: 6.00 Build 0)  -->
<svg version="1.1" id="Слой_1" xmlns="http://www.w3.org/2000/svg" xmlns:xlink="http://www.w3.org/1999/xlink" x="0px" y="0px"
	 viewBox="0 0 16 16" style="enable-background:new 0 0 16 16;" xml:space="preserve">
<style type="text/css">
	.st0{fill:#FFFFFF;}
	.st1{clip-path:url(#SVGID_2_);fill:url(#SVGID_3_);}
	.st2{clip-path:url(#SVGID_5_);}
</style>
<g>
	<path d="M12.44,16H3.56C1.59,16,0,14.41,0,12.44V3.56C0,1.59,1.59,0,3.56,0h8.88C14.41,0,16,1.59,16,3.56v8.88
		C16,14.41,14.41,16,12.44,16z"/>
</g>
<rect x="2" y="2.21" class="st0" width="12" height="3.01"/>
<g>
	<defs>
		<path id="SVGID_1_" d="M8.2,6.73L8.2,6.73C8.2,6.73,8.2,6.73,8.2,6.73C8.2,6.72,8.21,6.72,8.22,6.71C8.28,6.66,8.4,6.64,8.45,6.63
			c0.17,0,0.44,0,0.62,0.01c0.03,0,0.06,0,0.08,0c0.05,0,0.12,0.01,0.18,0.04C9.36,6.7,9.38,6.71,9.38,6.71S9.67,6.9,9.74,6.94
			c0.07,0.04,0.08,0.2,0.08,0.2s0,0.39,0.01,0.48c0.01,0.09,0.05,0.13,0.01,0.23c-0.03,0.12-0.63,0.1-0.63,0.1S8.84,7.94,8.68,7.78
			c0,0-0.47-0.34-0.79-0.53c0,0-0.03-0.02-0.09-0.06c-0.01-0.03-0.01-0.05,0-0.08c0.01-0.02,0.09-0.09,0.14-0.13
			c0.02-0.01,0.03-0.02,0.05-0.04c0,0,0,0,0,0s0,0,0,0C8.05,6.89,8.14,6.8,8.2,6.73 M6.54,6.14l-0.57,0c0,0-0.07-0.01-0.12,0.07
			C5.8,6.29,5.81,6.35,5.81,6.35v0.33c0,0-0.04,0-0.04,0.04c0,0.03,0.03,0.05,0.03,0.05v0.11c0,0,0,0,0,0c0,0,0,0-0.01,0
			c0,0,0,0,0,0c0,0,0,0,0,0c0,0,0,0,0,0c0,0,0,0-0.01,0c0,0-0.01,0-0.01,0c0,0,0,0,0,0c0,0,0,0-0.01,0
			c-0.21,0.06-0.3,1.06-0.35,1.34c-0.04,0.28,0,0.39,0,0.39c0.05,0.09,0.05,0.19,0.05,0.19v4.32c0,0.13,0.01,0.14,0.12,0.51
			C5.69,14,5.93,14,5.93,14h4.01c0,0,0.24,0,0.41-0.2c0.22-0.26,0.21-0.6,0.21-0.6l0.01-4.44V8.75c0,0,0,0,0,0s0,0,0,0
			c0.01,0,0.05-0.01,0.07-0.14c0.05-0.35-0.12-0.46-0.21-0.5c-0.09-0.04-0.13-0.08-0.13-0.17c0-0.09,0.05-0.1,0.05-0.24
			c0,0-0.01-0.49,0-0.61c-0.05-0.39-0.13-0.42-0.43-0.66c-0.3-0.24-0.62-0.28-0.62-0.28s-0.81-0.01-1.05,0C8.03,6.16,8,6.23,8,6.23
			S7.6,6.65,7.44,6.79C7.4,6.82,7.37,6.85,7.35,6.86C7.34,6.87,7.3,6.89,7.29,6.82V6.77c0.01,0,0.03-0.02,0.03-0.05
			c0-0.05-0.04-0.04-0.04-0.04V6.35c0,0,0.01-0.06-0.04-0.14C7.19,6.13,7.12,6.14,7.12,6.14L6.54,6.14L6.54,6.14z"/>
	</defs>
	<clipPath id="SVGID_2_">
		<use xlink:href="#SVGID_1_"  style="overflow:visible;"/>
	</clipPath>
	
		<linearGradient id="SVGID_3_" gradientUnits="userSpaceOnUse" x1="-951.9462" y1="549.3005" x2="-951.8626" y2="549.3005" gradientTransform="matrix(63 0 0 -63 59977.957 34615.9766)">
		<stop  offset="0" style="stop-color:#ABF538"/>
		<stop  offset="1" style="stop-color:#FED919"/>
	</linearGradient>
	<rect x="5.37" y="6.13" class="st1" width="5.33" height="7.87"/>
</g>
<g>
	<defs>
		<rect id="SVGID_4_" x="-266.64" y="-118" width="497.97" height="280.11"/>
	</defs>
	<clipPath id="SVGID_5_">
		<use xlink:href="#SVGID_4_"  style="overflow:visible;"/>
	</clipPath>
	<path class="st2" d="M6.29,11.2c0,0,0.12,0.36,0.06,1.02c-0.06,0.65,0.3,1.44,1.14,1.4c0,0,0-0.71-0.72-1.83c0,0,0.8,0.8,1.09,1.63
		c0,0,0.68-0.96-0.12-1.5C7.56,11.79,6.57,11.43,6.29,11.2"/>
	<path class="st2" d="M9.67,9.31c0,0-0.53,0.31-0.89,0.47c-0.36,0.17-1.13,0.64-1.31,0.81c-0.19,0.16-0.42,0.53-0.44,0.79
		c0,0,0.75,0.21,1.03,0.66c0,0,0.44-0.99,0.47-1.03c0.03-0.04,0.29-0.46,0.48-0.68c0,0-0.92,1.77-0.86,3.1c0,0,1.35-0.07,1.59-1.37
		c0.14-0.79-0.05-1.55-0.05-1.55S9.58,9.69,9.67,9.31"/>
</g>
</svg>
