<?xml version="1.0" encoding="utf-8"?>
<!-- Generator: Adobe Illustrator 24.3.0, SVG Export Plug-In . SVG Version: 6.00 Build 0)  -->
<svg version="1.1" id="Слой_1" xmlns="http://www.w3.org/2000/svg" xmlns:xlink="http://www.w3.org/1999/xlink" x="0px" y="0px"
	 viewBox="0 0 100 83" style="enable-background:new 0 0 100 83;" xml:space="preserve">
<style type="text/css">
	.st0{display:none;}
	.st1{fill:#FFFFFF;}
	.st2{clip-path:url(#SVGID_2_);fill:url(#SVGID_3_);}
	.st3{clip-path:url(#SVGID_5_);}
</style>
<rect x="0" y="-7" class="st0" width="100" height="100"/>
<rect x="88.29" y="147.23" class="st1" width="37.23" height="9.34"/>
<g>
	<path class="st1" d="M31.27,9.96c0.62-1.48,1.37-2.85,2.23-4.1c0.86-1.25,1.99-2.3,3.4-3.17c1.41-0.86,3.15-1.52,5.22-1.99
		C44.18,0.23,46.82,0,50.03,0c1.95,0,3.85,0.1,5.69,0.29c1.84,0.2,3.56,0.63,5.16,1.29c1.6,0.67,3.09,1.66,4.45,2.99
		c1.37,1.33,2.52,3.13,3.46,5.39L99.15,83h-27.9L64.8,66.12H35.26L28.81,83H0.91L31.27,9.96z M41.59,47.36h16.88l-7.39-20.75
		c-0.16-0.31-0.33-0.68-0.53-1.11c-0.2-0.43-0.37-0.64-0.53-0.64c-0.16,0-0.33,0.22-0.53,0.64c-0.2,0.43-0.37,0.8-0.53,1.11
		L41.59,47.36z"/>
	<path class="st1" d="M170.84,53.7h20.23c0.87,0,1.42-0.12,1.67-0.36c0.24-0.24,0.36-0.5,0.36-0.78c0-0.59-0.24-1-0.73-1.23
		c-0.49-0.23-1.03-0.43-1.62-0.6l-14.13-3.96c-1.08-0.28-1.95-0.69-2.61-1.23c-0.66-0.54-1.18-1.05-1.56-1.54
		c-0.87-1.15-1.42-2.45-1.64-3.91c-0.23-1.46-0.34-2.87-0.34-4.22c0-1.15,0.11-2.38,0.34-3.7c0.23-1.32,0.88-2.52,1.96-3.6
		c0.59-0.59,1.39-1.12,2.4-1.59c1.01-0.47,2.29-0.7,3.86-0.7h24.09v9.07h-18.56c-0.7,0-1.17,0.02-1.41,0.05
		c-0.24,0.04-0.42,0.09-0.52,0.16c-0.38,0.21-0.57,0.54-0.57,0.99c0,0.59,0.34,1.03,1.02,1.3c0.68,0.28,1.36,0.5,2.06,0.68
		l12.31,3.29c0.8,0.21,1.68,0.52,2.63,0.94c0.96,0.42,1.76,0.96,2.43,1.62c0.56,0.56,1.01,1.19,1.36,1.9
		c0.35,0.71,0.6,1.44,0.76,2.19c0.16,0.75,0.26,1.49,0.31,2.22c0.05,0.73,0.08,1.41,0.08,2.03c0,1.08-0.09,2.28-0.26,3.6
		c-0.17,1.32-0.68,2.54-1.51,3.65c-0.52,0.7-1.08,1.23-1.67,1.62c-0.59,0.38-1.21,0.66-1.85,0.83c-0.64,0.17-1.29,0.28-1.93,0.31
		c-0.64,0.04-1.28,0.05-1.9,0.05h-25.03V53.7z"/>
	<path class="st1" d="M217.98,30.28c0.28-0.66,0.61-1.27,0.99-1.83c0.38-0.56,0.89-1.02,1.51-1.41c0.63-0.38,1.4-0.68,2.32-0.89
		c0.92-0.21,2.09-0.31,3.52-0.31c0.87,0,1.71,0.04,2.53,0.13c0.82,0.09,1.58,0.28,2.29,0.57c0.71,0.3,1.37,0.74,1.98,1.33
		c0.61,0.59,1.12,1.39,1.54,2.4l13.51,32.49h-12.41l-2.87-7.51h-13.14l-2.87,7.51h-12.41L217.98,30.28z M222.57,46.92h7.51
		l-3.29-9.23c-0.07-0.14-0.15-0.3-0.23-0.5c-0.09-0.19-0.17-0.29-0.23-0.29c-0.07,0-0.15,0.1-0.23,0.29
		c-0.09,0.19-0.17,0.36-0.23,0.5L222.57,46.92z"/>
	<path class="st1" d="M291.32,30.07c0.28-0.66,0.61-1.27,0.99-1.83c0.38-0.56,0.89-1.03,1.52-1.41c0.63-0.38,1.4-0.68,2.33-0.89
		c0.92-0.21,2.1-0.31,3.53-0.31c0.87,0,1.72,0.04,2.54,0.13c0.82,0.09,1.59,0.28,2.3,0.58c0.72,0.3,1.38,0.74,1.99,1.34
		c0.61,0.59,1.13,1.4,1.54,2.41l13.56,32.62h-12.46l-2.88-7.54H293.1l-2.88,7.54h-12.46L291.32,30.07z M295.93,46.78h7.54l-3.3-9.27
		c-0.07-0.14-0.15-0.31-0.24-0.5c-0.09-0.19-0.17-0.29-0.24-0.29c-0.07,0-0.15,0.1-0.24,0.29c-0.09,0.19-0.17,0.36-0.24,0.5
		L295.93,46.78z"/>
	<path class="st1" d="M356.21,57.2c0,1.22-0.22,2.16-0.65,2.83c-0.44,0.66-0.81,1.13-1.13,1.41c-1.01,0.84-2.32,1.26-3.93,1.26
		h-17.33c-1.5,0-3.12-0.25-4.84-0.76c-1.73-0.51-3.19-1.28-4.37-2.33c-1.01-0.87-1.81-1.93-2.38-3.17
		c-0.58-1.24-1.01-2.53-1.31-3.87c-0.3-1.34-0.49-2.7-0.58-4.08c-0.09-1.38-0.13-2.68-0.13-3.9c0-1.47,0.05-2.96,0.16-4.48
		c0.1-1.52,0.33-2.99,0.68-4.42c0.35-1.43,0.87-2.76,1.57-3.98c0.7-1.22,1.64-2.27,2.83-3.14c0.84-0.63,1.75-1.11,2.72-1.44
		c0.98-0.33,1.9-0.58,2.77-0.73c0.87-0.16,1.65-0.25,2.33-0.29c0.68-0.03,1.14-0.05,1.39-0.05h21.36v8.69h-16.02
		c-2.93,0-5.04,1.01-6.34,3.04c-0.63,1.01-1,2.11-1.13,3.3c-0.12,1.19-0.18,2.29-0.18,3.3c0,1.01,0.06,2.11,0.18,3.3
		c0.12,1.19,0.51,2.32,1.18,3.4c0.66,1.01,1.43,1.68,2.3,2.02c0.87,0.33,1.81,0.5,2.83,0.5h3.56c0.31,0,0.65-0.03,1.02-0.08
		c0.37-0.05,0.69-0.22,0.97-0.5c0.28-0.28,0.45-0.61,0.52-0.99c0.07-0.38,0.1-0.77,0.1-1.15v-7.54h11.83V57.2z"/>
</g>
<g>
	<defs>
		<path id="SVGID_1_" d="M107.52,161.25L107.52,161.25C107.52,161.25,107.53,161.25,107.52,161.25c0.02-0.02,0.04-0.04,0.06-0.06
			c0.19-0.18,0.58-0.23,0.74-0.24c0.54,0.01,1.37,0.01,1.93,0.02c0.09,0,0.18,0,0.25,0c0.16,0.01,0.38,0.05,0.57,0.14
			c0.07,0.05,0.13,0.09,0.13,0.09s0.91,0.57,1.11,0.69c0.2,0.13,0.24,0.63,0.24,0.63s0.01,1.2,0.03,1.48
			c0.02,0.28,0.14,0.39,0.03,0.72c-0.1,0.38-1.96,0.31-1.96,0.31s-1.15-0.03-1.65-0.53c0,0-1.45-1.07-2.46-1.63
			c0,0-0.1-0.08-0.27-0.18c-0.03-0.08-0.02-0.16,0.02-0.23c0.04-0.07,0.26-0.27,0.42-0.4c0.05-0.03,0.1-0.07,0.15-0.12c0,0,0,0,0,0
			s0,0,0,0C107.08,161.73,107.33,161.46,107.52,161.25 M102.39,159.42l-1.77,0c0,0-0.22-0.04-0.38,0.21
			c-0.16,0.25-0.14,0.43-0.14,0.43v1.02c0,0-0.14,0-0.13,0.14c0,0.09,0.08,0.14,0.1,0.14v0.34c0,0,0,0-0.01,0
			c-0.01,0-0.01,0-0.02,0.01c0,0-0.01,0-0.01,0c0,0-0.01,0-0.01,0c0,0-0.01,0-0.01,0c-0.01,0-0.01,0-0.02,0
			c-0.01,0-0.02,0-0.02,0.01c0,0,0,0,0,0c-0.01,0-0.01,0-0.02,0.01c-0.64,0.18-0.94,3.3-1.07,4.16c-0.13,0.87,0,1.21,0,1.21
			c0.17,0.28,0.17,0.59,0.17,0.59v13.4c0,0.41,0.03,0.44,0.37,1.57c0.34,1.13,1.08,1.13,1.08,1.13h12.44c0,0,0.74,0,1.28-0.63
			c0.68-0.8,0.64-1.85,0.64-1.85l0.03-13.77v-0.04c0.01-0.01,0.01-0.01,0.01-0.01s0,0,0,0c0.04,0,0.17-0.04,0.22-0.44
			c0.16-1.1-0.37-1.41-0.64-1.54c-0.27-0.13-0.4-0.25-0.4-0.53c0-0.28,0.15-0.31,0.17-0.73c0,0-0.02-1.52,0-1.88
			c-0.16-1.2-0.4-1.29-1.35-2.04c-0.94-0.75-1.91-0.88-1.91-0.88s-2.51-0.03-3.25,0c-0.74,0.03-0.84,0.24-0.84,0.24
			s-1.21,1.3-1.72,1.74c-0.12,0.1-0.21,0.17-0.29,0.22c-0.04,0.02-0.17,0.08-0.17-0.14v-0.15c0.02,0,0.1-0.06,0.1-0.14
			c0-0.14-0.13-0.14-0.13-0.14v-1.02c0,0,0.02-0.18-0.14-0.43c-0.16-0.25-0.38-0.21-0.38-0.21L102.39,159.42L102.39,159.42z"/>
	</defs>
	<clipPath id="SVGID_2_">
		<use xlink:href="#SVGID_1_"  style="overflow:visible;"/>
	</clipPath>
	
		<linearGradient id="SVGID_3_" gradientUnits="userSpaceOnUse" x1="-909.1299" y1="582.2922" x2="-908.8705" y2="582.2922" gradientTransform="matrix(63 0 0 -63 57373.957 36855.9727)">
		<stop  offset="0" style="stop-color:#ABF538"/>
		<stop  offset="1" style="stop-color:#FED919"/>
	</linearGradient>
	<rect x="98.74" y="159.38" class="st2" width="16.54" height="24.42"/>
</g>
<g>
	<defs>
		<rect id="SVGID_4_" x="-164.69" y="26.37" width="497.97" height="280.11"/>
	</defs>
	<clipPath id="SVGID_5_">
		<use xlink:href="#SVGID_4_"  style="overflow:visible;"/>
	</clipPath>
	<path class="st3" d="M101.62,175.12c0,0,0.37,1.13,0.18,3.16s0.92,4.47,3.55,4.34c0,0,0-2.21-2.24-5.68c0,0,2.47,2.47,3.39,5.05
		c0,0,2.11-2.97-0.37-4.66C105.56,176.93,102.48,175.83,101.62,175.12"/>
	<path class="st3" d="M112.1,169.24c0,0-1.66,0.95-2.76,1.47c-1.1,0.53-3.5,2-4.08,2.5c-0.58,0.5-1.29,1.66-1.37,2.45
		c0,0,2.33,0.64,3.21,2.05c0,0,1.37-3.08,1.45-3.21c0.08-0.13,0.91-1.43,1.5-2.1c0,0-2.84,5.5-2.68,9.63c0,0,4.18-0.21,4.92-4.26
		c0.45-2.45-0.16-4.81-0.16-4.81S111.8,170.44,112.1,169.24"/>
</g>
</svg>
