<?xml version="1.0" encoding="utf-8"?>
<!-- Generator: Adobe Illustrator 24.3.0, SVG Export Plug-In . SVG Version: 6.00 Build 0)  -->
<svg version="1.1" id="Слой_1" xmlns="http://www.w3.org/2000/svg" xmlns:xlink="http://www.w3.org/1999/xlink" x="0px" y="0px"
	 viewBox="0 0 100 83" style="enable-background:new 0 0 100 83;" xml:space="preserve">
<style type="text/css">
	.st0{display:none;}
	.st1{fill:#FFFFFF;}
</style>
<rect x="0" y="-7" class="st0" width="100" height="100"/>
<path class="st1" d="M291.32,30.07c0.28-0.66,0.61-1.27,0.99-1.83c0.38-0.56,0.89-1.03,1.52-1.41c0.63-0.38,1.4-0.68,2.33-0.89
	c0.92-0.21,2.1-0.31,3.53-0.31c0.87,0,1.72,0.04,2.54,0.13c0.82,0.09,1.59,0.28,2.3,0.58c0.72,0.3,1.38,0.74,1.99,1.34
	c0.61,0.59,1.13,1.4,1.54,2.41l13.56,32.62h-12.46l-2.88-7.54H293.1l-2.88,7.54h-12.46L291.32,30.07z M295.93,46.78h7.54l-3.3-9.27
	c-0.07-0.14-0.15-0.31-0.24-0.5c-0.09-0.19-0.17-0.29-0.24-0.29c-0.07,0-0.15,0.1-0.24,0.29c-0.09,0.19-0.17,0.36-0.24,0.5
	L295.93,46.78z"/>
<path class="st1" d="M91.25,70.55c0,2.77-0.5,4.9-1.48,6.4c-0.99,1.5-1.84,2.57-2.55,3.2c-2.29,1.9-5.26,2.85-8.89,2.85H39.08
	c-3.4,0-7.06-0.57-10.97-1.72c-3.91-1.15-7.21-2.9-9.9-5.28c-2.29-1.97-4.09-4.37-5.4-7.17c-1.3-2.8-2.29-5.73-2.96-8.77
	c-0.67-3.04-1.11-6.13-1.3-9.25c-0.2-3.12-0.3-6.07-0.3-8.83c0-3.32,0.12-6.7,0.36-10.14c0.24-3.44,0.75-6.78,1.54-10.02
	c0.79-3.24,1.97-6.24,3.56-9.01c1.58-2.77,3.71-5.14,6.4-7.11c1.9-1.42,3.95-2.51,6.17-3.26c2.21-0.75,4.31-1.3,6.28-1.66
	c1.98-0.36,3.74-0.57,5.28-0.65C39.38,0.04,40.42,0,40.98,0h48.38v19.68H53.07c-6.64,0-11.42,2.29-14.35,6.88
	c-1.42,2.29-2.27,4.78-2.55,7.47c-0.28,2.69-0.42,5.18-0.42,7.47c0,2.29,0.14,4.78,0.42,7.47c0.28,2.69,1.17,5.26,2.67,7.71
	c1.5,2.29,3.24,3.81,5.22,4.56c1.98,0.75,4.11,1.13,6.4,1.13h8.06c0.71,0,1.48-0.06,2.31-0.18c0.83-0.12,1.56-0.49,2.19-1.13
	c0.63-0.63,1.03-1.38,1.19-2.25c0.16-0.87,0.24-1.74,0.24-2.61V39.13h26.8V70.55z"/>
</svg>
