<svg width="336" height="51" viewBox="0 0 336 51" fill="none" xmlns="http://www.w3.org/2000/svg">
<path d="M178.507 0.870605H177.108V50.2508H178.507V0.870605Z" fill="white"/>
<path d="M183.399 13.4232V12.3178H191.117V13.4232H187.882V22.6084H186.635V13.4232H183.399ZM194.997 22.7692C194.253 22.7692 193.611 22.6051 193.072 22.2768C192.536 21.9452 192.122 21.4829 191.831 20.89C191.543 20.2937 191.399 19.6003 191.399 18.8097C191.399 18.0192 191.543 17.3224 191.831 16.7194C192.122 16.1131 192.528 15.6408 193.047 15.3025C193.569 14.9608 194.179 14.7899 194.876 14.7899C195.278 14.7899 195.675 14.8569 196.067 14.9909C196.459 15.1249 196.815 15.3427 197.137 15.6442C197.459 15.9423 197.715 16.3376 197.906 16.83C198.097 17.3224 198.192 17.9287 198.192 18.6489V19.1514H192.243V18.1264H196.986C196.986 17.6909 196.899 17.3023 196.725 16.9606C196.554 16.6189 196.31 16.3493 195.991 16.1516C195.677 15.954 195.305 15.8552 194.876 15.8552C194.404 15.8552 193.995 15.9724 193.65 16.2069C193.308 16.4381 193.045 16.7395 192.861 17.1114C192.677 17.4832 192.585 17.8818 192.585 18.3073V18.9906C192.585 19.5735 192.685 20.0676 192.886 20.4729C193.09 20.8749 193.374 21.1814 193.735 21.3924C194.097 21.6001 194.517 21.704 194.997 21.704C195.308 21.704 195.589 21.6604 195.841 21.5733C196.095 21.4829 196.315 21.3489 196.499 21.1713C196.683 20.9905 196.826 20.766 196.926 20.498L198.072 20.8196C197.951 21.2082 197.748 21.5499 197.464 21.8447C197.179 22.1361 196.827 22.3639 196.408 22.528C195.99 22.6888 195.519 22.7692 194.997 22.7692ZM199.996 25.5027V14.8904H201.142V16.1165H201.282C201.37 15.9825 201.49 15.8116 201.644 15.604C201.802 15.3929 202.026 15.2053 202.318 15.0412C202.612 14.8737 203.011 14.7899 203.513 14.7899C204.163 14.7899 204.736 14.9524 205.232 15.2773C205.728 15.6023 206.115 16.0629 206.393 16.6591C206.671 17.2554 206.81 17.9589 206.81 18.7695C206.81 19.5869 206.671 20.2954 206.393 20.895C206.115 21.4913 205.729 21.9535 205.237 22.2818C204.744 22.6067 204.177 22.7692 203.534 22.7692C203.038 22.7692 202.641 22.6871 202.343 22.523C202.045 22.3555 201.815 22.1662 201.654 21.9552C201.493 21.7408 201.37 21.5633 201.282 21.4226H201.182V25.5027H199.996ZM201.162 18.7494C201.162 19.3323 201.247 19.8465 201.418 20.292C201.589 20.7342 201.839 21.0809 202.167 21.3321C202.495 21.58 202.897 21.704 203.373 21.704C203.868 21.704 204.282 21.5733 204.614 21.312C204.949 21.0474 205.2 20.6923 205.368 20.2468C205.538 19.7979 205.624 19.2988 205.624 18.7494C205.624 18.2068 205.54 17.7177 205.373 17.2822C205.208 16.8434 204.959 16.4967 204.624 16.2421C204.292 15.9842 203.875 15.8552 203.373 15.8552C202.89 15.8552 202.485 15.9775 202.157 16.222C201.828 16.4632 201.581 16.8015 201.413 17.237C201.246 17.6691 201.162 18.1733 201.162 18.7494ZM208.619 25.5027V14.8904H209.764V16.1165H209.905C209.992 15.9825 210.113 15.8116 210.267 15.604C210.424 15.3929 210.649 15.2053 210.94 15.0412C211.235 14.8737 211.633 14.7899 212.136 14.7899C212.786 14.7899 213.359 14.9524 213.854 15.2773C214.35 15.6023 214.737 16.0629 215.015 16.6591C215.293 17.2554 215.432 17.9589 215.432 18.7695C215.432 19.5869 215.293 20.2954 215.015 20.895C214.737 21.4913 214.352 21.9535 213.859 22.2818C213.367 22.6067 212.799 22.7692 212.156 22.7692C211.66 22.7692 211.263 22.6871 210.965 22.523C210.667 22.3555 210.437 22.1662 210.277 21.9552C210.116 21.7408 209.992 21.5633 209.905 21.4226H209.804V25.5027H208.619ZM209.784 18.7494C209.784 19.3323 209.87 19.8465 210.041 20.292C210.211 20.7342 210.461 21.0809 210.789 21.3321C211.117 21.58 211.519 21.704 211.995 21.704C212.491 21.704 212.905 21.5733 213.236 21.312C213.571 21.0474 213.822 20.6923 213.99 20.2468C214.161 19.7979 214.246 19.2988 214.246 18.7494C214.246 18.2068 214.162 17.7177 213.995 17.2822C213.831 16.8434 213.581 16.4967 213.246 16.2421C212.915 15.9842 212.498 15.8552 211.995 15.8552C211.513 15.8552 211.107 15.9775 210.779 16.222C210.451 16.4632 210.203 16.8015 210.036 17.237C209.868 17.6691 209.784 18.1733 209.784 18.7494ZM218.427 20.8598L222.145 14.8904H223.512V22.6084H222.326V16.639L218.628 22.6084H217.241V14.8904H218.427V20.8598ZM224.634 15.9959V14.8904H230.904V15.9959H228.372V22.6084H227.186V15.9959H224.634ZM235.369 22.7692C234.672 22.7692 234.061 22.6034 233.535 22.2718C233.012 21.9401 232.604 21.4762 232.309 20.8799C232.017 20.2836 231.872 19.5869 231.872 18.7896C231.872 17.9857 232.017 17.2839 232.309 16.6843C232.604 16.0847 233.012 15.619 233.535 15.2874C234.061 14.9558 234.672 14.7899 235.369 14.7899C236.066 14.7899 236.675 14.9558 237.198 15.2874C237.724 15.619 238.132 16.0847 238.424 16.6843C238.719 17.2839 238.866 17.9857 238.866 18.7896C238.866 19.5869 238.719 20.2836 238.424 20.8799C238.132 21.4762 237.724 21.9401 237.198 22.2718C236.675 22.6034 236.066 22.7692 235.369 22.7692ZM235.369 21.704C235.898 21.704 236.334 21.5683 236.675 21.297C237.017 21.0256 237.27 20.6689 237.434 20.2267C237.598 19.7845 237.68 19.3055 237.68 18.7896C237.68 18.2738 237.598 17.7931 237.434 17.3475C237.27 16.902 237.017 16.5419 236.675 16.2672C236.334 15.9925 235.898 15.8552 235.369 15.8552C234.84 15.8552 234.404 15.9925 234.062 16.2672C233.721 16.5419 233.468 16.902 233.304 17.3475C233.14 17.7931 233.058 18.2738 233.058 18.7896C233.058 19.3055 233.14 19.7845 233.304 20.2267C233.468 20.6689 233.721 21.0256 234.062 21.297C234.404 21.5683 234.84 21.704 235.369 21.704ZM240.676 25.5027V14.8904H241.822V16.1165H241.963C242.05 15.9825 242.17 15.8116 242.324 15.604C242.482 15.3929 242.706 15.2053 242.998 15.0412C243.292 14.8737 243.691 14.7899 244.194 14.7899C244.843 14.7899 245.416 14.9524 245.912 15.2773C246.408 15.6023 246.795 16.0629 247.073 16.6591C247.351 17.2554 247.49 17.9589 247.49 18.7695C247.49 19.5869 247.351 20.2954 247.073 20.895C246.795 21.4913 246.409 21.9535 245.917 22.2818C245.425 22.6067 244.857 22.7692 244.214 22.7692C243.718 22.7692 243.321 22.6871 243.023 22.523C242.725 22.3555 242.495 22.1662 242.334 21.9552C242.174 21.7408 242.05 21.5633 241.963 21.4226H241.862V25.5027H240.676ZM241.842 18.7494C241.842 19.3323 241.927 19.8465 242.098 20.292C242.269 20.7342 242.519 21.0809 242.847 21.3321C243.175 21.58 243.577 21.704 244.053 21.704C244.549 21.704 244.962 21.5733 245.294 21.312C245.629 21.0474 245.88 20.6923 246.048 20.2468C246.219 19.7979 246.304 19.2988 246.304 18.7494C246.304 18.2068 246.22 17.7177 246.053 17.2822C245.889 16.8434 245.639 16.4967 245.304 16.2421C244.972 15.9842 244.555 15.8552 244.053 15.8552C243.57 15.8552 243.165 15.9775 242.837 16.222C242.509 16.4632 242.261 16.8015 242.093 17.237C241.926 17.6691 241.842 18.1733 241.842 18.7494ZM250.484 20.8598L254.203 14.8904H255.57V22.6084H254.384V16.639L250.685 22.6084H249.299V14.8904H250.484V20.8598ZM262.384 22.6084V15.9758H260.334C259.872 15.9758 259.508 16.083 259.244 16.2974C258.979 16.5118 258.847 16.8065 258.847 17.1817C258.847 17.5502 258.966 17.84 259.204 18.051C259.445 18.262 259.775 18.3675 260.194 18.3675H262.686V19.473H260.194C259.671 19.473 259.22 19.3809 258.842 19.1966C258.463 19.0124 258.172 18.7494 257.968 18.4077C257.763 18.0627 257.661 17.654 257.661 17.1817C257.661 16.706 257.768 16.2974 257.983 15.9557C258.197 15.614 258.504 15.351 258.902 15.1668C259.304 14.9826 259.781 14.8904 260.334 14.8904H263.51V22.6084H262.384ZM257.239 22.6084L259.43 18.7695H260.716L258.525 22.6084H257.239Z" fill="white"/>
<path d="M186.937 39.7522C186.213 39.7522 185.59 39.5814 185.068 39.2397C184.545 38.898 184.143 38.4274 183.862 37.8277C183.58 37.2281 183.44 36.5431 183.44 35.7726C183.44 34.9888 183.584 34.297 183.872 33.6974C184.163 33.0945 184.569 32.6238 185.088 32.2855C185.61 31.9438 186.22 31.773 186.917 31.773C187.459 31.773 187.949 31.8734 188.384 32.0744C188.819 32.2754 189.176 32.5568 189.454 32.9186C189.732 33.2804 189.905 33.7024 189.972 34.1848H188.786C188.696 33.8331 188.495 33.5216 188.183 33.2502C187.875 32.9755 187.459 32.8382 186.937 32.8382C186.475 32.8382 186.069 32.9588 185.721 33.2C185.376 33.4378 185.106 33.7745 184.912 34.2099C184.721 34.6421 184.625 35.1496 184.625 35.7324C184.625 36.3287 184.719 36.8479 184.907 37.2901C185.098 37.7323 185.366 38.0756 185.711 38.3202C186.059 38.5647 186.468 38.687 186.937 38.687C187.245 38.687 187.525 38.6334 187.776 38.5262C188.027 38.419 188.24 38.2649 188.414 38.0639C188.588 37.8629 188.712 37.6217 188.786 37.3403H189.972C189.905 37.7959 189.739 38.2063 189.474 38.5714C189.213 38.9332 188.866 39.2213 188.434 39.4356C188.005 39.6467 187.506 39.7522 186.937 39.7522ZM197.655 31.8734V39.5914H196.469V31.8734H197.655ZM197.192 35.5515V36.657C196.924 36.7575 196.658 36.8462 196.393 36.9233C196.129 36.997 195.851 37.0556 195.559 37.0992C195.268 37.1394 194.948 37.1595 194.6 37.1595C193.725 37.1595 193.023 36.9233 192.494 36.451C191.968 35.9786 191.705 35.2702 191.705 34.3255V31.8533H192.891V34.3255C192.891 34.7208 192.967 35.0457 193.117 35.3003C193.268 35.5549 193.472 35.7442 193.73 35.8681C193.988 35.992 194.278 36.054 194.6 36.054C195.102 36.054 195.556 36.0088 195.961 35.9183C196.37 35.8245 196.78 35.7023 197.192 35.5515ZM202.101 39.7723C201.612 39.7723 201.169 39.6802 200.77 39.4959C200.371 39.3084 200.055 39.0387 199.82 38.687C199.586 38.3319 199.469 37.9031 199.469 37.4006C199.469 36.9585 199.556 36.6 199.73 36.3253C199.904 36.0473 200.137 35.8296 200.428 35.6721C200.72 35.5147 201.041 35.3974 201.393 35.3204C201.748 35.24 202.105 35.1764 202.463 35.1295C202.932 35.0692 203.312 35.0239 203.604 34.9938C203.899 34.9603 204.113 34.905 204.247 34.828C204.384 34.7509 204.453 34.6169 204.453 34.426V34.3858C204.453 33.89 204.317 33.5048 204.046 33.2301C203.778 32.9554 203.371 32.8181 202.825 32.8181C202.259 32.8181 201.815 32.942 201.493 33.1899C201.172 33.4378 200.946 33.7024 200.815 33.9838L199.69 33.5818C199.891 33.1129 200.159 32.7477 200.494 32.4865C200.832 32.2218 201.2 32.0376 201.599 31.9337C202.001 31.8265 202.396 31.773 202.785 31.773C203.033 31.773 203.317 31.8031 203.639 31.8634C203.964 31.9203 204.277 32.0393 204.579 32.2201C204.883 32.401 205.136 32.674 205.337 33.0392C205.538 33.4043 205.639 33.8934 205.639 34.5064V39.5914H204.453V38.5463H204.393C204.312 38.7138 204.178 38.893 203.991 39.0839C203.803 39.2749 203.554 39.4373 203.242 39.5713C202.931 39.7053 202.55 39.7723 202.101 39.7723ZM202.282 38.7071C202.751 38.7071 203.147 38.6149 203.468 38.4307C203.793 38.2465 204.038 38.0086 204.202 37.7172C204.369 37.4258 204.453 37.1193 204.453 36.7977V35.7123C204.403 35.7726 204.292 35.8279 204.121 35.8781C203.954 35.925 203.76 35.9669 203.539 36.0038C203.321 36.0373 203.108 36.0674 202.9 36.0942C202.696 36.1177 202.53 36.1378 202.403 36.1545C202.095 36.1947 201.807 36.26 201.539 36.3505C201.274 36.4376 201.06 36.5699 200.896 36.7474C200.735 36.9216 200.654 37.1595 200.654 37.4609C200.654 37.873 200.807 38.1845 201.112 38.3955C201.42 38.6032 201.81 38.7071 202.282 38.7071ZM210.939 39.7522C210.215 39.7522 209.592 39.5814 209.069 39.2397C208.547 38.898 208.145 38.4274 207.864 37.8277C207.582 37.2281 207.441 36.5431 207.441 35.7726C207.441 34.9888 207.586 34.297 207.874 33.6974C208.165 33.0945 208.57 32.6238 209.09 32.2855C209.612 31.9438 210.222 31.773 210.919 31.773C211.461 31.773 211.95 31.8734 212.386 32.0744C212.821 32.2754 213.178 32.5568 213.456 32.9186C213.734 33.2804 213.907 33.7024 213.974 34.1848H212.788C212.697 33.8331 212.496 33.5216 212.185 33.2502C211.877 32.9755 211.461 32.8382 210.939 32.8382C210.476 32.8382 210.071 32.9588 209.723 33.2C209.378 33.4378 209.108 33.7745 208.914 34.2099C208.723 34.6421 208.627 35.1496 208.627 35.7324C208.627 36.3287 208.721 36.8479 208.909 37.2901C209.1 37.7323 209.368 38.0756 209.713 38.3202C210.061 38.5647 210.47 38.687 210.939 38.687C211.247 38.687 211.527 38.6334 211.778 38.5262C212.029 38.419 212.242 38.2649 212.416 38.0639C212.59 37.8629 212.714 37.6217 212.788 37.3403H213.974C213.907 37.7959 213.741 38.2063 213.476 38.5714C213.215 38.9332 212.868 39.2213 212.436 39.4356C212.007 39.6467 211.508 39.7522 210.939 39.7522ZM215.099 32.9789V31.8734H221.37V32.9789H218.838V39.5914H217.652V32.9789H215.099ZM221.767 39.5914V38.486H222.048C222.279 38.486 222.472 38.4408 222.626 38.3503C222.78 38.2565 222.904 38.094 222.998 37.8629C223.095 37.6284 223.169 37.3035 223.219 36.8881C223.273 36.4694 223.311 35.9368 223.335 35.2903L223.475 31.8734H228.621V39.5914H227.435V32.9789H224.601L224.48 35.7324C224.454 36.3655 224.397 36.9233 224.309 37.4057C224.226 37.8847 224.097 38.2867 223.923 38.6116C223.752 38.9365 223.524 39.1811 223.239 39.3452C222.954 39.5093 222.598 39.5914 222.169 39.5914H221.767ZM231.982 37.8428L235.701 31.8734H237.067V39.5914H235.881V33.622L232.183 39.5914H230.796V31.8734H231.982V37.8428ZM239.239 39.5914V31.8734H242.395C243.225 31.8734 243.885 32.061 244.374 32.4362C244.864 32.8114 245.108 33.3072 245.108 33.9235C245.108 34.3925 244.969 34.756 244.691 35.0139C244.413 35.2685 244.056 35.441 243.621 35.5314C243.905 35.5716 244.182 35.6721 244.45 35.8329C244.721 35.9937 244.946 36.2148 245.123 36.4962C245.301 36.7742 245.389 37.1159 245.389 37.5212C245.389 37.9165 245.289 38.2699 245.088 38.5814C244.887 38.893 244.599 39.1392 244.224 39.3201C243.849 39.501 243.4 39.5914 242.877 39.5914H239.239ZM240.365 38.5061H242.877C243.286 38.5061 243.606 38.4089 243.837 38.2146C244.068 38.0204 244.184 37.7557 244.184 37.4207C244.184 37.0221 244.068 36.7089 243.837 36.4811C243.606 36.25 243.286 36.1344 242.877 36.1344H240.365V38.5061ZM240.365 35.1094H242.395C242.713 35.1094 242.986 35.0658 243.214 34.9787C243.442 34.8883 243.616 34.761 243.736 34.5968C243.86 34.4294 243.922 34.2317 243.922 34.0039C243.922 33.679 243.787 33.4244 243.515 33.2402C243.244 33.0526 242.87 32.9588 242.395 32.9588H240.365V35.1094ZM250.32 39.7522C249.623 39.7522 249.012 39.5864 248.486 39.2548C247.963 38.9231 247.555 38.4592 247.26 37.8629C246.968 37.2666 246.823 36.5699 246.823 35.7726C246.823 34.9687 246.968 34.2669 247.26 33.6673C247.555 33.0677 247.963 32.602 248.486 32.2704C249.012 31.9388 249.623 31.773 250.32 31.773C251.017 31.773 251.626 31.9388 252.149 32.2704C252.675 32.602 253.084 33.0677 253.375 33.6673C253.67 34.2669 253.817 34.9687 253.817 35.7726C253.817 36.5699 253.67 37.2666 253.375 37.8629C253.084 38.4592 252.675 38.9231 252.149 39.2548C251.626 39.5864 251.017 39.7522 250.32 39.7522ZM250.32 38.687C250.849 38.687 251.285 38.5513 251.626 38.28C251.968 38.0086 252.221 37.6519 252.385 37.2097C252.549 36.7675 252.631 36.2885 252.631 35.7726C252.631 35.2568 252.549 34.7761 252.385 34.3305C252.221 33.885 251.968 33.5249 251.626 33.2502C251.285 32.9755 250.849 32.8382 250.32 32.8382C249.791 32.8382 249.355 32.9755 249.014 33.2502C248.672 33.5249 248.419 33.885 248.255 34.3305C248.091 34.7761 248.009 35.2568 248.009 35.7726C248.009 36.2885 248.091 36.7675 248.255 37.2097C248.419 37.6519 248.672 38.0086 249.014 38.28C249.355 38.5513 249.791 38.687 250.32 38.687ZM260.391 31.8734V32.9789H256.813V39.5914H255.627V31.8734H260.391ZM264.856 39.7522C264.16 39.7522 263.548 39.5864 263.022 39.2548C262.5 38.9231 262.091 38.4592 261.796 37.8629C261.505 37.2666 261.359 36.5699 261.359 35.7726C261.359 34.9687 261.505 34.2669 261.796 33.6673C262.091 33.0677 262.5 32.602 263.022 32.2704C263.548 31.9388 264.16 31.773 264.856 31.773C265.553 31.773 266.163 31.9388 266.685 32.2704C267.211 32.602 267.62 33.0677 267.911 33.6673C268.206 34.2669 268.354 34.9687 268.354 35.7726C268.354 36.5699 268.206 37.2666 267.911 37.8629C267.62 38.4592 267.211 38.9231 266.685 39.2548C266.163 39.5864 265.553 39.7522 264.856 39.7522ZM264.856 38.687C265.386 38.687 265.821 38.5513 266.163 38.28C266.505 38.0086 266.757 37.6519 266.922 37.2097C267.086 36.7675 267.168 36.2885 267.168 35.7726C267.168 35.2568 267.086 34.7761 266.922 34.3305C266.757 33.885 266.505 33.5249 266.163 33.2502C265.821 32.9755 265.386 32.8382 264.856 32.8382C264.327 32.8382 263.892 32.9755 263.55 33.2502C263.208 33.5249 262.955 33.885 262.791 34.3305C262.627 34.7761 262.545 35.2568 262.545 35.7726C262.545 36.2885 262.627 36.7675 262.791 37.2097C262.955 37.6519 263.208 38.0086 263.55 38.28C263.892 38.5513 264.327 38.687 264.856 38.687ZM277.279 42.2244V29.3008H278.465V42.2244H277.279ZM277.279 39.7522C276.756 39.7522 276.281 39.6584 275.852 39.4708C275.423 39.2799 275.055 39.0102 274.746 38.6618C274.438 38.3101 274.2 37.8897 274.033 37.4006C273.865 36.9116 273.782 36.3689 273.782 35.7726C273.782 35.1697 273.865 34.6236 274.033 34.1346C274.2 33.6421 274.438 33.2201 274.746 32.8683C275.055 32.5166 275.423 32.2469 275.852 32.0594C276.281 31.8684 276.756 31.773 277.279 31.773H277.641V39.7522H277.279ZM277.279 38.687H277.48V32.8382H277.279C276.884 32.8382 276.54 32.9186 276.249 33.0794C275.957 33.2368 275.716 33.4529 275.525 33.7276C275.338 33.9989 275.197 34.3104 275.103 34.6622C275.013 35.0139 274.967 35.384 274.967 35.7726C274.967 36.2885 275.05 36.7675 275.214 37.2097C275.378 37.6519 275.631 38.0086 275.972 38.28C276.314 38.5513 276.75 38.687 277.279 38.687ZM278.465 39.7522H278.103V31.773H278.465C278.987 31.773 279.463 31.8684 279.892 32.0594C280.32 32.2469 280.689 32.5166 280.997 32.8683C281.305 33.2201 281.543 33.6421 281.711 34.1346C281.878 34.6236 281.962 35.1697 281.962 35.7726C281.962 36.3689 281.878 36.9116 281.711 37.4006C281.543 37.8897 281.305 38.3101 280.997 38.6618C280.689 39.0102 280.32 39.2799 279.892 39.4708C279.463 39.6584 278.987 39.7522 278.465 39.7522ZM278.465 38.687C278.863 38.687 279.207 38.6099 279.495 38.4558C279.786 38.2984 280.026 38.084 280.213 37.8127C280.404 37.538 280.545 37.2264 280.635 36.8781C280.729 36.5263 280.776 36.1579 280.776 35.7726C280.776 35.2568 280.694 34.7761 280.53 34.3305C280.366 33.885 280.113 33.5249 279.771 33.2502C279.429 32.9755 278.994 32.8382 278.465 32.8382H278.264V38.687H278.465ZM287.01 39.7522C286.267 39.7522 285.625 39.5881 285.086 39.2598C284.55 38.9282 284.136 38.4659 283.845 37.873C283.557 37.2767 283.413 36.5833 283.413 35.7927C283.413 35.0022 283.557 34.3054 283.845 33.7024C284.136 33.0961 284.542 32.6238 285.061 32.2855C285.583 31.9438 286.193 31.773 286.89 31.773C287.292 31.773 287.689 31.8399 288.081 31.9739C288.473 32.1079 288.829 32.3257 289.151 32.6272C289.473 32.9253 289.729 33.3206 289.92 33.813C290.111 34.3054 290.206 34.9117 290.206 35.6319V36.1344H284.257V35.1094H289C289 34.6739 288.913 34.2853 288.739 33.9436C288.568 33.6019 288.324 33.3323 288.005 33.1346C287.69 32.937 287.319 32.8382 286.89 32.8382C286.418 32.8382 286.009 32.9554 285.664 33.1899C285.322 33.4211 285.059 33.7225 284.875 34.0944C284.691 34.4662 284.599 34.8648 284.599 35.2903V35.9736C284.599 36.5565 284.699 37.0506 284.9 37.4559C285.104 37.8579 285.387 38.1644 285.749 38.3754C286.111 38.5831 286.531 38.687 287.01 38.687C287.322 38.687 287.603 38.6434 287.855 38.5563C288.109 38.4659 288.329 38.3319 288.513 38.1543C288.697 37.9735 288.839 37.749 288.94 37.481L290.086 37.8026C289.965 38.1912 289.762 38.5329 289.478 38.8277C289.193 39.1191 288.841 39.3469 288.422 39.511C288.004 39.6718 287.533 39.7522 287.01 39.7522ZM292.01 42.4857V31.8734H293.156V33.0995H293.296C293.383 32.9655 293.504 32.7946 293.658 32.587C293.816 32.3759 294.04 32.1883 294.331 32.0242C294.626 31.8567 295.025 31.773 295.527 31.773C296.177 31.773 296.75 31.9354 297.246 32.2603C297.742 32.5853 298.128 33.0459 298.407 33.6421C298.685 34.2384 298.824 34.9419 298.824 35.7525C298.824 36.5699 298.685 37.2784 298.407 37.878C298.128 38.4743 297.743 38.9365 297.251 39.2648C296.758 39.5897 296.191 39.7522 295.547 39.7522C295.052 39.7522 294.655 39.6701 294.357 39.506C294.058 39.3385 293.829 39.1492 293.668 38.9382C293.507 38.7238 293.383 38.5463 293.296 38.4056H293.196V42.4857H292.01ZM293.176 35.7324C293.176 36.3153 293.261 36.8295 293.432 37.275C293.603 37.7172 293.852 38.0639 294.181 38.3151C294.509 38.563 294.911 38.687 295.387 38.687C295.882 38.687 296.296 38.5563 296.628 38.295C296.963 38.0304 297.214 37.6753 297.381 37.2298C297.552 36.7809 297.638 36.2818 297.638 35.7324C297.638 35.1898 297.554 34.7007 297.387 34.2652C297.222 33.8264 296.973 33.4797 296.638 33.2251C296.306 32.9672 295.889 32.8382 295.387 32.8382C294.904 32.8382 294.499 32.9605 294.171 33.205C293.842 33.4462 293.595 33.7845 293.427 34.22C293.26 34.6521 293.176 35.1563 293.176 35.7324ZM304.853 37.9835L307.546 31.8734H308.672L305.336 39.5914H304.371L301.095 31.8734H302.2L304.853 37.9835ZM301.818 31.8734V39.5914H300.632V31.8734H301.818ZM307.888 39.5914V31.8734H309.074V39.5914H307.888ZM314.481 39.7522C313.737 39.7522 313.095 39.5881 312.556 39.2598C312.02 38.9282 311.606 38.4659 311.315 37.873C311.027 37.2767 310.883 36.5833 310.883 35.7927C310.883 35.0022 311.027 34.3054 311.315 33.7024C311.606 33.0961 312.012 32.6238 312.531 32.2855C313.054 31.9438 313.663 31.773 314.36 31.773C314.762 31.773 315.159 31.8399 315.551 31.9739C315.943 32.1079 316.3 32.3257 316.621 32.6272C316.943 32.9253 317.199 33.3206 317.39 33.813C317.581 34.3054 317.676 34.9117 317.676 35.6319V36.1344H311.727V35.1094H316.47C316.47 34.6739 316.383 34.2853 316.209 33.9436C316.038 33.6019 315.794 33.3323 315.475 33.1346C315.161 32.937 314.789 32.8382 314.36 32.8382C313.888 32.8382 313.479 32.9554 313.134 33.1899C312.792 33.4211 312.529 33.7225 312.345 34.0944C312.161 34.4662 312.069 34.8648 312.069 35.2903V35.9736C312.069 36.5565 312.169 37.0506 312.37 37.4559C312.575 37.8579 312.858 38.1644 313.219 38.3754C313.581 38.5831 314.002 38.687 314.481 38.687C314.792 38.687 315.074 38.6434 315.325 38.5563C315.579 38.4659 315.799 38.3319 315.983 38.1543C316.167 37.9735 316.31 37.749 316.41 37.481L317.556 37.8026C317.435 38.1912 317.232 38.5329 316.948 38.8277C316.663 39.1191 316.311 39.3469 315.893 39.511C315.474 39.6718 315.003 39.7522 314.481 39.7522ZM319.48 42.4857V31.8734H320.626V33.0995H320.767C320.854 32.9655 320.974 32.7946 321.128 32.587C321.286 32.3759 321.51 32.1883 321.802 32.0242C322.096 31.8567 322.495 31.773 322.998 31.773C323.647 31.773 324.22 31.9354 324.716 32.2603C325.212 32.5853 325.599 33.0459 325.877 33.6421C326.155 34.2384 326.294 34.9419 326.294 35.7525C326.294 36.5699 326.155 37.2784 325.877 37.878C325.599 38.4743 325.213 38.9365 324.721 39.2648C324.229 39.5897 323.661 39.7522 323.018 39.7522C322.522 39.7522 322.125 39.6701 321.827 39.506C321.529 39.3385 321.299 39.1492 321.138 38.9382C320.978 38.7238 320.854 38.5463 320.767 38.4056H320.666V42.4857H319.48ZM320.646 35.7324C320.646 36.3153 320.731 36.8295 320.902 37.275C321.073 37.7172 321.323 38.0639 321.651 38.3151C321.979 38.563 322.381 38.687 322.857 38.687C323.353 38.687 323.766 38.5563 324.098 38.295C324.433 38.0304 324.684 37.6753 324.852 37.2298C325.022 36.7809 325.108 36.2818 325.108 35.7324C325.108 35.1898 325.024 34.7007 324.857 34.2652C324.693 33.8264 324.443 33.4797 324.108 33.2251C323.776 32.9672 323.359 32.8382 322.857 32.8382C322.374 32.8382 321.969 32.9605 321.641 33.205C321.313 33.4462 321.065 33.7845 320.897 34.22C320.73 34.6521 320.646 35.1563 320.646 35.7324ZM330.374 39.7723C329.885 39.7723 329.441 39.6802 329.042 39.4959C328.644 39.3084 328.327 39.0387 328.093 38.687C327.858 38.3319 327.741 37.9031 327.741 37.4006C327.741 36.9585 327.828 36.6 328.002 36.3253C328.176 36.0473 328.409 35.8296 328.701 35.6721C328.992 35.5147 329.314 35.3974 329.665 35.3204C330.02 35.24 330.377 35.1764 330.736 35.1295C331.205 35.0692 331.585 35.0239 331.876 34.9938C332.171 34.9603 332.385 34.905 332.519 34.828C332.657 34.7509 332.725 34.6169 332.725 34.426V34.3858C332.725 33.89 332.59 33.5048 332.318 33.2301C332.05 32.9554 331.643 32.8181 331.097 32.8181C330.531 32.8181 330.087 32.942 329.766 33.1899C329.444 33.4378 329.218 33.7024 329.087 33.9838L327.962 33.5818C328.163 33.1129 328.431 32.7477 328.766 32.4865C329.104 32.2218 329.473 32.0376 329.871 31.9337C330.273 31.8265 330.669 31.773 331.057 31.773C331.305 31.773 331.59 31.8031 331.911 31.8634C332.236 31.9203 332.549 32.0393 332.851 32.2201C333.156 32.401 333.409 32.674 333.61 33.0392C333.811 33.4043 333.911 33.8934 333.911 34.5064V39.5914H332.725V38.5463H332.665C332.585 38.7138 332.451 38.893 332.263 39.0839C332.075 39.2749 331.826 39.4373 331.514 39.5713C331.203 39.7053 330.823 39.7723 330.374 39.7723ZM330.555 38.7071C331.024 38.7071 331.419 38.6149 331.741 38.4307C332.065 38.2465 332.31 38.0086 332.474 37.7172C332.642 37.4258 332.725 37.1193 332.725 36.7977V35.7123C332.675 35.7726 332.565 35.8279 332.394 35.8781C332.226 35.925 332.032 35.9669 331.811 36.0038C331.593 36.0373 331.38 36.0674 331.173 36.0942C330.968 36.1177 330.803 36.1378 330.675 36.1545C330.367 36.1947 330.079 36.26 329.811 36.3505C329.546 36.4376 329.332 36.5699 329.168 36.7474C329.007 36.9216 328.927 37.1595 328.927 37.4609C328.927 37.873 329.079 38.1845 329.384 38.3955C329.692 38.6032 330.082 38.7071 330.555 38.7071Z" fill="white"/>
<path d="M116.428 12.6958H88.878V19.6074H116.428V12.6958Z" fill="white"/>
<path d="M10.9486 15.7002C11.1558 15.2118 11.4 14.7604 11.6812 14.346C11.9624 13.9316 12.3398 13.5912 12.7986 13.3026C13.2648 13.0214 13.8346 12.7994 14.5154 12.644C15.1962 12.4886 16.062 12.4146 17.1202 12.4146C17.764 12.4146 18.3856 12.4442 18.9924 12.5108C19.5992 12.5774 20.1616 12.718 20.687 12.9326C21.2124 13.1546 21.7008 13.4802 22.1522 13.9168C22.6036 14.3534 22.981 14.9454 23.2918 15.6928L33.2892 39.7354H24.1058L21.982 34.178H12.2584L10.1346 39.7354H0.958595L10.9486 15.7002ZM14.3452 28.0064H19.9026L17.468 21.1762C17.4162 21.0726 17.357 20.9542 17.2978 20.8062C17.2312 20.6656 17.172 20.5916 17.1276 20.5916C17.0758 20.5916 17.0166 20.6656 16.9574 20.8062C16.8908 20.9468 16.8316 21.0726 16.7872 21.1762L14.3452 28.0064Z" fill="white"/>
<path d="M34.525 33.0236H49.4952C50.139 33.0236 50.546 32.9348 50.731 32.7572C50.9086 32.5796 50.9974 32.3872 50.9974 32.18C50.9974 31.7434 50.8198 31.44 50.4572 31.2698C50.0946 31.0996 49.695 30.9516 49.2584 30.8258L38.8022 27.8954C38.003 27.6882 37.3592 27.3848 36.8708 26.9852C36.3824 26.5856 35.9976 26.2082 35.7164 25.8456C35.0726 24.9946 34.6656 24.0326 34.5028 22.9522C34.3326 21.8718 34.2512 20.8284 34.2512 19.8294C34.2512 18.9784 34.3326 18.0682 34.5028 17.0914C34.673 16.1146 35.154 15.2266 35.9532 14.4274C36.3898 13.9908 36.9818 13.5986 37.7292 13.2508C38.4766 12.903 39.4238 12.7328 40.5856 12.7328H58.4122V19.4446H44.6778C44.1598 19.4446 43.812 19.4594 43.6344 19.4816C43.4568 19.5112 43.3236 19.5482 43.2496 19.6C42.9684 19.7554 42.8278 19.9996 42.8278 20.3326C42.8278 20.7692 43.0794 21.0948 43.5826 21.2946C44.0858 21.5018 44.589 21.6646 45.107 21.7978L54.2164 24.2324C54.8084 24.3878 55.4596 24.6172 56.1626 24.928C56.873 25.2388 57.465 25.6384 57.9608 26.1268C58.3752 26.5412 58.7082 27.0074 58.9672 27.5328C59.2262 28.0582 59.4112 28.5984 59.5296 29.1534C59.648 29.7084 59.722 30.256 59.759 30.7962C59.796 31.3364 59.8182 31.8396 59.8182 32.2984C59.8182 33.0976 59.7516 33.9856 59.6258 34.9624C59.5 35.9392 59.1226 36.842 58.5084 37.6634C58.1236 38.1814 57.7092 38.5736 57.2726 38.8622C56.836 39.1434 56.3772 39.3506 55.9036 39.4764C55.43 39.6022 54.949 39.6836 54.4754 39.7058C54.0018 39.7354 53.5282 39.7428 53.0694 39.7428H34.525V33.0236Z" fill="white"/>
<path d="M69.4086 15.7002C69.6158 15.2118 69.86 14.7604 70.1412 14.346C70.4224 13.9316 70.7998 13.5912 71.2586 13.3026C71.7248 13.0214 72.2946 12.7994 72.9754 12.644C73.6562 12.4886 74.522 12.4146 75.5802 12.4146C76.224 12.4146 76.8456 12.4442 77.4524 12.5108C78.0592 12.5774 78.6216 12.718 79.147 12.9326C79.6724 13.1546 80.1608 13.4802 80.6122 13.9168C81.0636 14.3534 81.441 14.9454 81.7518 15.6928L91.7492 39.7354H82.5658L80.442 34.178H70.7184L68.5946 39.7354H59.4112L69.4086 15.7002ZM72.8052 28.0064H78.3626L75.928 21.1762C75.8762 21.0726 75.817 20.9542 75.7578 20.8062C75.6912 20.6656 75.632 20.5916 75.5876 20.5916C75.5358 20.5916 75.4766 20.6656 75.4174 20.8062C75.3508 20.9468 75.2916 21.0726 75.2472 21.1762L72.8052 28.0064Z" fill="white"/>
<path d="M123.673 15.5448C123.88 15.0564 124.124 14.605 124.405 14.1906C124.687 13.7762 125.064 13.4284 125.53 13.1472C125.996 12.866 126.566 12.644 127.254 12.4886C127.935 12.3332 128.808 12.2592 129.867 12.2592C130.51 12.2592 131.139 12.2888 131.746 12.3554C132.353 12.422 132.923 12.5626 133.448 12.7846C133.981 13.0066 134.469 13.3322 134.921 13.7762C135.372 14.2128 135.757 14.8122 136.06 15.5596L146.095 39.6984H136.874L134.743 34.1188H124.99L122.859 39.6984H113.638L123.673 15.5448ZM127.084 27.9028H132.664L130.222 21.043C130.17 20.9394 130.111 20.8136 130.044 20.673C129.978 20.5324 129.918 20.4584 129.867 20.4584C129.815 20.4584 129.756 20.5324 129.689 20.673C129.622 20.8136 129.563 20.9394 129.511 21.043L127.084 27.9028Z" fill="white"/>
<path d="M171.691 35.6136C171.691 36.5164 171.529 37.212 171.21 37.7078C170.885 38.1962 170.611 38.544 170.374 38.7512C169.627 39.3728 168.657 39.6836 167.466 39.6836H154.642C153.532 39.6836 152.333 39.4986 151.06 39.1212C149.78 38.7438 148.7 38.174 147.826 37.397C147.079 36.7532 146.487 35.9688 146.065 35.0512C145.636 34.1336 145.318 33.179 145.096 32.1874C144.874 31.1958 144.733 30.1894 144.667 29.1682C144.6 28.147 144.57 27.185 144.57 26.2822C144.57 25.1944 144.607 24.0918 144.689 22.967C144.763 21.8422 144.933 20.7544 145.192 19.6962C145.451 18.638 145.836 17.6538 146.354 16.751C146.872 15.8482 147.567 15.0712 148.448 14.4274C149.07 13.9612 149.743 13.606 150.461 13.3618C151.186 13.1176 151.867 12.9326 152.511 12.8216C153.154 12.7032 153.732 12.6366 154.235 12.607C154.738 12.5848 155.078 12.57 155.263 12.57H171.07V19.0006H159.215C157.047 19.0006 155.485 19.748 154.523 21.2502C154.057 21.9976 153.783 22.8116 153.687 23.6922C153.598 24.5728 153.554 25.3868 153.554 26.1342C153.554 26.8816 153.598 27.6956 153.687 28.5762C153.776 29.4568 154.065 30.293 154.56 31.0922C155.049 31.8396 155.619 32.3354 156.262 32.587C156.906 32.8312 157.602 32.957 158.357 32.957H160.991C161.22 32.957 161.472 32.9348 161.746 32.8978C162.02 32.8608 162.256 32.735 162.464 32.5278C162.671 32.3206 162.797 32.0764 162.848 31.7952C162.9 31.514 162.922 31.2254 162.922 30.9442V25.3646H171.677V35.6136H171.691Z" fill="white"/>
<mask id="mask0_1_338" style="mask-type:luminance" maskUnits="userSpaceOnUse" x="96" y="21" width="13" height="19">
<path d="M103.108 23.0706C103.123 23.0558 103.138 23.041 103.153 23.0262C103.293 22.893 103.582 22.856 103.7 22.8486C104.1 22.856 104.714 22.856 105.128 22.8634C105.195 22.8634 105.262 22.8634 105.313 22.8634C105.432 22.8708 105.595 22.9004 105.735 22.967C105.787 23.004 105.831 23.0336 105.831 23.0336C105.831 23.0336 106.505 23.4554 106.653 23.5442C106.801 23.6404 106.83 24.0104 106.83 24.0104C106.83 24.0104 106.838 24.8984 106.853 25.1056C106.867 25.3128 106.956 25.3942 106.875 25.6384C106.801 25.9196 105.424 25.8678 105.424 25.8678C105.424 25.8678 104.573 25.8456 104.203 25.4756C104.203 25.4756 103.13 24.6838 102.383 24.2694C102.383 24.2694 102.309 24.2102 102.183 24.1362C102.161 24.077 102.168 24.0178 102.198 23.966C102.228 23.9142 102.39 23.7662 102.509 23.67C102.546 23.6478 102.583 23.6182 102.62 23.5812C102.775 23.4332 102.968 23.226 103.108 23.0706ZM99.3046 21.7238H97.9948C97.9948 21.7238 97.832 21.6942 97.7136 21.8792C97.5952 22.0642 97.61 22.1974 97.61 22.1974V22.9522C97.61 22.9522 97.5064 22.9522 97.5138 23.0558C97.5138 23.1224 97.573 23.1594 97.5878 23.1594V23.411C97.5878 23.411 97.5878 23.411 97.5804 23.411C97.573 23.411 97.573 23.411 97.5656 23.4184H97.5582H97.5508H97.5434C97.536 23.4184 97.536 23.4184 97.5286 23.4184C97.5212 23.4184 97.5138 23.4184 97.5138 23.4258C97.5064 23.4258 97.5064 23.4258 97.499 23.4332C97.0254 23.5664 96.8034 25.8752 96.7072 26.5116C96.611 27.1554 96.7072 27.407 96.7072 27.407C96.833 27.6142 96.833 27.8436 96.833 27.8436V37.7596C96.833 38.063 96.8552 38.0852 97.1068 38.9214C97.3584 39.7576 97.906 39.7576 97.906 39.7576H107.112C107.112 39.7576 107.659 39.7576 108.059 39.2914C108.562 38.6994 108.532 37.9224 108.532 37.9224L108.555 27.7326V27.703C108.562 27.6956 108.562 27.6956 108.562 27.6956C108.592 27.6956 108.688 27.666 108.725 27.37C108.843 26.556 108.451 26.3266 108.251 26.2304C108.051 26.1342 107.955 26.0454 107.955 25.8382C107.955 25.631 108.066 25.6088 108.081 25.298C108.081 25.298 108.066 24.1732 108.081 23.9068C107.963 23.0188 107.785 22.9522 107.082 22.3972C106.386 21.8422 105.669 21.746 105.669 21.746C105.669 21.746 103.811 21.7238 103.264 21.746C102.716 21.7682 102.642 21.9236 102.642 21.9236C102.642 21.9236 101.747 22.8856 101.369 23.2112C101.28 23.2852 101.214 23.337 101.155 23.374C101.125 23.3888 101.029 23.4332 101.029 23.2704V23.1594C101.044 23.1594 101.103 23.115 101.103 23.0558C101.103 22.9522 101.007 22.9522 101.007 22.9522V22.1974C101.007 22.1974 101.021 22.0642 100.903 21.8792C100.785 21.6942 100.622 21.7238 100.622 21.7238H99.3046Z" fill="white"/>
</mask>
<g mask="url(#mask0_1_338)">
<path d="M108.843 21.6868H96.6036V39.7576H108.843V21.6868Z" fill="url(#paint0_linear_1_338)"/>
</g>
<path d="M98.7348 33.3344C98.7348 33.3344 99.0086 34.1706 98.868 35.6728C98.7348 37.175 99.5488 38.9806 101.495 38.8844C101.495 38.8844 101.495 37.249 99.8374 34.6812C99.8374 34.6812 101.665 36.509 102.346 38.4182C102.346 38.4182 103.907 36.2204 102.072 34.9698C101.658 34.6812 99.3786 33.8598 98.7348 33.3344Z" fill="black"/>
<path d="M106.497 28.9832C106.497 28.9832 105.269 29.6862 104.455 30.071C103.641 30.4632 101.865 31.551 101.436 31.921C101.007 32.291 100.481 33.1494 100.422 33.734C100.422 33.734 102.146 34.2076 102.797 35.251C102.797 35.251 103.811 32.9718 103.87 32.8756C103.93 32.7794 104.544 31.8174 104.98 31.3216C104.98 31.3216 102.879 35.3916 102.997 38.4478C102.997 38.4478 106.09 38.2924 106.638 35.2954C106.971 33.4824 106.52 31.736 106.52 31.736C106.52 31.736 106.275 29.8712 106.497 28.9832Z" fill="black"/>
<defs>
<linearGradient id="paint0_linear_1_338" x1="96.6419" y1="30.6958" x2="108.73" y2="30.6958" gradientUnits="userSpaceOnUse">
<stop stop-color="#ABF538"/>
<stop offset="1" stop-color="#FED919"/>
</linearGradient>
</defs>
</svg>
