<svg width="1195" height="176" viewBox="0 0 1195 176" fill="none" xmlns="http://www.w3.org/2000/svg">
<path d="M415.67 36.41H316.65V61.24H415.67V36.41Z" fill="white"/>
<path d="M36.6 47.2C37.34 45.44 38.22 43.83 39.23 42.35C40.25 40.87 41.59 39.62 43.25 38.61C44.91 37.59 46.97 36.81 49.42 36.25C51.87 35.7 54.99 35.42 58.78 35.42C61.09 35.42 63.33 35.54 65.51 35.77C67.68 36 69.72 36.51 71.61 37.3C73.5 38.09 75.26 39.27 76.88 40.84C78.5 42.41 79.86 44.54 80.97 47.22L116.89 133.62H83.88L76.25 113.65H41.3L33.67 133.62H0.659973L36.6 47.2ZM48.8 91.44H68.77L60.03 66.89C59.84 66.52 59.64 66.08 59.41 65.57C59.18 65.06 58.97 64.81 58.79 64.81C58.6 64.81 58.4 65.07 58.17 65.57C57.94 66.08 57.73 66.52 57.55 66.89L48.8 91.44Z" fill="white"/>
<path d="M121.32 109.47H175.13C177.44 109.47 178.92 109.15 179.57 108.5C180.22 107.85 180.54 107.16 180.54 106.42C180.54 104.85 179.89 103.76 178.6 103.16C177.3 102.56 175.87 102.03 174.3 101.57L136.72 91.03C133.85 90.29 131.54 89.2 129.79 87.77C128.03 86.34 126.65 84.97 125.63 83.68C123.32 80.63 121.86 77.16 121.26 73.28C120.66 69.4 120.36 65.65 120.36 62.05C120.36 59 120.66 55.72 121.26 52.2C121.86 48.69 123.59 45.5 126.46 42.63C128.03 41.06 130.16 39.65 132.84 38.4C135.52 37.15 138.94 36.53 143.1 36.53H207.17V60.66H157.8C155.95 60.66 154.7 60.71 154.06 60.8C153.41 60.89 152.95 61.03 152.67 61.22C151.65 61.77 151.15 62.65 151.15 63.85C151.15 65.42 152.05 66.58 153.85 67.32C155.65 68.06 157.48 68.66 159.33 69.12L192.06 77.86C194.19 78.41 196.52 79.25 199.06 80.36C201.6 81.47 203.75 82.9 205.51 84.66C206.99 86.14 208.19 87.83 209.12 89.72C210.04 91.62 210.72 93.56 211.13 95.54C211.55 97.53 211.82 99.49 211.96 101.43C212.1 103.37 212.17 105.17 212.17 106.84C212.17 109.71 211.94 112.9 211.48 116.41C211.02 119.92 209.68 123.16 207.46 126.12C206.07 127.97 204.59 129.4 203.02 130.42C201.45 131.44 199.81 132.18 198.1 132.64C196.39 133.1 194.68 133.38 192.97 133.47C191.26 133.56 189.57 133.61 187.91 133.61H121.34V109.47H121.32Z" fill="white"/>
<path d="M246.68 47.2C247.42 45.44 248.3 43.83 249.31 42.35C250.33 40.87 251.67 39.62 253.33 38.61C254.99 37.59 257.05 36.81 259.5 36.25C261.95 35.7 265.07 35.42 268.86 35.42C271.17 35.42 273.41 35.54 275.59 35.77C277.76 36 279.8 36.51 281.69 37.3C283.58 38.09 285.34 39.27 286.96 40.84C288.58 42.41 289.94 44.54 291.05 47.22L326.97 133.62H293.96L286.33 113.65H251.4L243.77 133.62H210.76L246.68 47.2ZM258.89 91.44H278.86L270.12 66.89C269.93 66.52 269.73 66.08 269.5 65.57C269.27 65.06 269.06 64.81 268.88 64.81C268.69 64.81 268.49 65.07 268.26 65.57C268.03 66.08 267.82 66.52 267.64 66.89L258.89 91.44Z" fill="white"/>
<path d="M441.7 46.64C442.44 44.88 443.32 43.25 444.35 41.77C445.37 40.29 446.72 39.03 448.39 38.01C450.06 36.99 452.13 36.2 454.59 35.64C457.05 35.08 460.18 34.8 463.99 34.8C466.31 34.8 468.56 34.92 470.74 35.15C472.92 35.38 474.96 35.89 476.87 36.68C478.77 37.47 480.54 38.65 482.16 40.23C483.78 41.81 485.15 43.94 486.27 46.64L522.33 133.39H489.19L481.53 113.34H446.44L438.78 133.39H405.64L441.7 46.64ZM453.95 91.06H474L465.23 66.41C465.04 66.04 464.83 65.6 464.6 65.09C464.37 64.58 464.16 64.32 463.97 64.32C463.78 64.32 463.57 64.58 463.34 65.09C463.11 65.6 462.9 66.04 462.71 66.41L453.95 91.06Z" fill="white"/>
<path d="M614.27 118.77C614.27 122.02 613.69 124.53 612.53 126.29C611.37 128.06 610.37 129.31 609.54 130.05C606.85 132.28 603.37 133.39 599.1 133.39H553.01C549.02 133.39 544.72 132.72 540.13 131.37C535.54 130.03 531.66 127.96 528.5 125.17C525.81 122.85 523.7 120.04 522.16 116.75C520.63 113.46 519.47 110.02 518.68 106.45C517.89 102.88 517.38 99.26 517.15 95.59C516.92 91.92 516.8 88.47 516.8 85.22C516.8 81.32 516.94 77.35 517.22 73.31C517.5 69.27 518.1 65.35 519.03 61.54C519.96 57.73 521.35 54.21 523.21 50.96C525.07 47.71 527.57 44.93 530.73 42.61C532.96 40.94 535.37 39.66 537.97 38.78C540.57 37.9 543.03 37.25 545.35 36.83C547.67 36.41 549.74 36.16 551.55 36.06C553.36 35.97 554.59 35.92 555.24 35.92H612.05V59.03H569.44C561.64 59.03 556.03 61.72 552.59 67.11C550.92 69.8 549.92 72.73 549.6 75.88C549.27 79.04 549.11 81.96 549.11 84.65C549.11 87.34 549.27 90.27 549.6 93.42C549.92 96.58 550.97 99.59 552.73 102.47C554.49 105.16 556.54 106.95 558.86 107.83C561.18 108.71 563.69 109.15 566.38 109.15H575.85C576.69 109.15 577.59 109.08 578.57 108.94C579.54 108.8 580.4 108.36 581.15 107.62C581.89 106.88 582.36 106 582.54 104.97C582.72 103.95 582.82 102.93 582.82 101.91V81.86H614.29V118.77H614.27Z" fill="white"/>
<path d="M367.78 73.7C367.79 73.69 367.79 73.69 367.78 73.7C367.84 73.64 367.88 73.58 367.93 73.53C368.43 73.06 369.46 72.93 369.9 72.89C371.33 72.91 373.55 72.93 375.03 72.94C375.27 72.94 375.5 72.94 375.69 72.95C376.12 72.98 376.69 73.07 377.2 73.32C377.39 73.44 377.56 73.55 377.56 73.55C377.56 73.55 379.98 75.05 380.52 75.39C381.06 75.72 381.15 77.06 381.15 77.06C381.15 77.06 381.18 80.24 381.24 80.99C381.3 81.73 381.61 82.04 381.33 82.91C381.06 83.91 376.13 83.75 376.13 83.75C376.13 83.75 373.08 83.67 371.74 82.33C371.74 82.33 367.88 79.49 365.19 77.98C365.19 77.98 364.92 77.78 364.46 77.51C364.37 77.3 364.39 77.09 364.5 76.89C364.6 76.7 365.2 76.18 365.63 75.83C365.75 75.74 365.89 75.63 366.04 75.5H366.05C366.6 74.99 367.28 74.26 367.78 73.7ZM354.13 68.85L349.42 68.86C349.42 68.86 348.84 68.75 348.42 69.41C348 70.07 348.05 70.55 348.05 70.55V73.26C348.05 73.26 347.69 73.25 347.69 73.63C347.69 73.86 347.91 74.01 347.96 74.01V74.92C347.95 74.92 347.95 74.93 347.94 74.93C347.93 74.94 347.91 74.94 347.89 74.95C347.88 74.95 347.87 74.96 347.86 74.96C347.85 74.96 347.84 74.97 347.83 74.97C347.82 74.97 347.81 74.97 347.81 74.98C347.8 74.98 347.78 74.99 347.77 74.99C347.75 75 347.73 75 347.7 75.01C347.7 75.01 347.7 75.01 347.69 75.01C347.67 75.02 347.65 75.02 347.63 75.03C345.94 75.5 345.13 83.81 344.78 86.1C344.42 88.4 344.78 89.31 344.78 89.31C345.23 90.06 345.23 90.87 345.23 90.87V126.5C345.23 127.59 345.32 127.67 346.22 130.68C347.12 133.69 349.08 133.69 349.08 133.69H382.17C382.17 133.69 384.14 133.69 385.58 132.02C387.4 129.9 387.28 127.09 387.28 127.09L387.37 90.46V90.35C387.39 90.33 387.41 90.32 387.41 90.32C387.52 90.31 387.85 90.2 388 89.15C388.42 86.23 387.01 85.39 386.3 85.05C385.58 84.72 385.22 84.38 385.22 83.63C385.22 82.88 385.61 82.8 385.67 81.69C385.67 81.69 385.61 77.66 385.67 76.7C385.24 73.51 384.59 73.27 382.08 71.27C379.57 69.26 377 68.93 377 68.93C377 68.93 370.33 68.85 368.36 68.93C366.39 69.01 366.12 69.57 366.12 69.57C366.12 69.57 362.89 73.02 361.55 74.19C361.23 74.47 360.99 74.65 360.79 74.78C360.69 74.84 360.34 74.99 360.34 74.41V74.01C360.38 74.01 360.61 73.86 360.61 73.63C360.61 73.25 360.25 73.26 360.25 73.26V70.55C360.25 70.55 360.3 70.07 359.88 69.41C359.46 68.75 358.88 68.86 358.88 68.86L354.13 68.85Z" fill="white"/>
<path d="M388.42 68.73H344.43V133.67H388.42V68.73Z" fill="white"/>
<path d="M352.08 110.58C352.08 110.58 353.06 113.59 352.57 118.97C352.08 124.35 355.02 130.86 362.01 130.51C362.01 130.51 362.01 124.63 356.06 115.4C356.06 115.4 362.64 121.98 365.08 128.83C365.08 128.83 370.69 120.94 364.1 116.45C362.57 115.41 354.38 112.47 352.08 110.58Z" fill="black"/>
<path d="M379.97 94.95C379.97 94.95 375.56 97.47 372.63 98.87C369.69 100.27 363.33 104.19 361.79 105.51C360.25 106.84 358.36 109.92 358.15 112.01C358.15 112.01 364.34 113.72 366.68 117.47C366.68 117.47 370.32 109.29 370.53 108.94C370.74 108.59 372.94 105.13 374.52 103.34C374.52 103.34 366.97 117.96 367.39 128.94C367.39 128.94 378.5 128.39 380.47 117.61C381.66 111.11 380.05 104.81 380.05 104.81C380.05 104.81 379.17 98.13 379.97 94.95Z" fill="black"/>
<path d="M638.57 0.350006H633.6V175.82H638.57V0.350006Z" fill="white"/>
<path d="M654.868 39.4454V35.5171H682.295V39.4454H670.795V72.0862H666.367V39.4454H654.868ZM696.08 72.6576C693.437 72.6576 691.157 72.0743 689.241 70.9077C687.336 69.7292 685.866 68.0865 684.83 65.9795C683.806 63.8605 683.295 61.3964 683.295 58.5871C683.295 55.7777 683.806 53.3017 684.83 51.159C685.866 49.0044 687.306 47.3259 689.151 46.1236C691.008 44.9094 693.175 44.3023 695.651 44.3023C697.079 44.3023 698.49 44.5404 699.883 45.0165C701.276 45.4927 702.543 46.2664 703.686 47.3378C704.829 48.3972 705.74 49.8019 706.418 51.5518C707.097 53.3017 707.436 55.4563 707.436 58.0157V59.8013H686.294V56.1587H703.15C703.15 54.6111 702.841 53.2303 702.222 52.0161C701.615 50.8019 700.746 49.8436 699.615 49.1412C698.496 48.4389 697.175 48.0877 695.651 48.0877C693.973 48.0877 692.52 48.5044 691.294 49.3377C690.08 50.159 689.145 51.2304 688.491 52.5517C687.836 53.8731 687.509 55.2897 687.509 56.8015V59.2299C687.509 61.3012 687.866 63.057 688.58 64.4974C689.306 65.9259 690.312 67.0151 691.598 67.7651C692.883 68.5031 694.377 68.8721 696.08 68.8721C697.187 68.8721 698.187 68.7174 699.079 68.4079C699.984 68.0865 700.764 67.6103 701.418 66.9794C702.073 66.3366 702.579 65.539 702.936 64.5867L707.007 65.7295C706.579 67.1103 705.859 68.3245 704.847 69.3721C703.835 70.4077 702.585 71.2172 701.097 71.8005C699.609 72.3719 697.937 72.6576 696.08 72.6576ZM713.846 82.3713V44.6594H717.917V49.0163H718.417C718.727 48.5401 719.155 47.933 719.703 47.1949C720.263 46.445 721.06 45.7784 722.096 45.1951C723.143 44.5999 724.56 44.3023 726.345 44.3023C728.655 44.3023 730.69 44.8796 732.452 46.0343C734.214 47.189 735.589 48.8258 736.577 50.9447C737.565 53.0636 738.059 55.5635 738.059 58.4442C738.059 61.3488 737.565 63.8665 736.577 65.9973C735.589 68.1162 734.22 69.759 732.47 70.9256C730.72 72.0803 728.702 72.6576 726.417 72.6576C724.655 72.6576 723.244 72.366 722.185 71.7827C721.126 71.1875 720.31 70.5149 719.739 69.7649C719.167 69.0031 718.727 68.3722 718.417 67.8722H718.06V82.3713H713.846ZM717.989 58.3728C717.989 60.4441 718.292 62.2714 718.899 63.8546C719.507 65.4259 720.393 66.658 721.56 67.5508C722.727 68.4317 724.155 68.8721 725.845 68.8721C727.607 68.8721 729.077 68.4079 730.256 67.4794C731.446 66.5389 732.339 65.2771 732.934 63.6939C733.541 62.0988 733.845 60.3251 733.845 58.3728C733.845 56.4444 733.547 54.7064 732.952 53.1588C732.369 51.5994 731.482 50.3674 730.292 49.4627C729.113 48.546 727.631 48.0877 725.845 48.0877C724.131 48.0877 722.691 48.5222 721.524 49.3912C720.358 50.2483 719.477 51.4506 718.882 52.9981C718.286 54.5338 717.989 56.3253 717.989 58.3728ZM744.487 82.3713V44.6594H748.558V49.0163H749.058C749.368 48.5401 749.796 47.933 750.344 47.1949C750.903 46.445 751.701 45.7784 752.737 45.1951C753.784 44.5999 755.201 44.3023 756.986 44.3023C759.296 44.3023 761.331 44.8796 763.093 46.0343C764.855 47.189 766.23 48.8258 767.218 50.9447C768.206 53.0636 768.7 55.5635 768.7 58.4442C768.7 61.3488 768.206 63.8665 767.218 65.9973C766.23 68.1162 764.861 69.759 763.111 70.9256C761.361 72.0803 759.343 72.6576 757.058 72.6576C755.296 72.6576 753.885 72.366 752.826 71.7827C751.766 71.1875 750.951 70.5149 750.38 69.7649C749.808 69.0031 749.368 68.3722 749.058 67.8722H748.701V82.3713H744.487ZM748.63 58.3728C748.63 60.4441 748.933 62.2714 749.54 63.8546C750.147 65.4259 751.034 66.658 752.201 67.5508C753.368 68.4317 754.796 68.8721 756.486 68.8721C758.248 68.8721 759.718 68.4079 760.897 67.4794C762.087 66.5389 762.98 65.2771 763.575 63.6939C764.182 62.0988 764.486 60.3251 764.486 58.3728C764.486 56.4444 764.188 54.7064 763.593 53.1588C763.01 51.5994 762.123 50.3674 760.933 49.4627C759.754 48.546 758.272 48.0877 756.486 48.0877C754.772 48.0877 753.332 48.5222 752.165 49.3912C750.999 50.2483 750.118 51.4506 749.523 52.9981C748.927 54.5338 748.63 56.3253 748.63 58.3728ZM779.342 65.8723L792.556 44.6594H797.412V72.0862H793.198V50.8733L780.056 72.0862H775.128V44.6594H779.342V65.8723ZM801.399 48.5877V44.6594H823.683V48.5877H814.684V72.0862H810.47V48.5877H801.399ZM839.548 72.6576C837.072 72.6576 834.9 72.0684 833.031 70.8899C831.174 69.7114 829.721 68.0627 828.674 65.9437C827.638 63.8248 827.12 61.3488 827.12 58.5157C827.12 55.6587 827.638 53.1648 828.674 51.034C829.721 48.9032 831.174 47.2485 833.031 46.07C834.9 44.8915 837.072 44.3023 839.548 44.3023C842.024 44.3023 844.191 44.8915 846.048 46.07C847.917 47.2485 849.369 48.9032 850.404 51.034C851.452 53.1648 851.976 55.6587 851.976 58.5157C851.976 61.3488 851.452 63.8248 850.404 65.9437C849.369 68.0627 847.917 69.7114 846.048 70.8899C844.191 72.0684 842.024 72.6576 839.548 72.6576ZM839.548 68.8721C841.429 68.8721 842.976 68.39 844.191 67.4258C845.405 66.4616 846.304 65.1938 846.887 63.6225C847.47 62.0511 847.762 60.3489 847.762 58.5157C847.762 56.6824 847.47 54.9742 846.887 53.391C846.304 51.8077 845.405 50.5281 844.191 49.5519C842.976 48.5758 841.429 48.0877 839.548 48.0877C837.667 48.0877 836.12 48.5758 834.905 49.5519C833.691 50.5281 832.793 51.8077 832.209 53.391C831.626 54.9742 831.334 56.6824 831.334 58.5157C831.334 60.3489 831.626 62.0511 832.209 63.6225C832.793 65.1938 833.691 66.4616 834.905 67.4258C836.12 68.39 837.667 68.8721 839.548 68.8721ZM858.408 82.3713V44.6594H862.48V49.0163H862.98C863.289 48.5401 863.718 47.933 864.265 47.1949C864.825 46.445 865.622 45.7784 866.658 45.1951C867.705 44.5999 869.122 44.3023 870.908 44.3023C873.217 44.3023 875.253 44.8796 877.014 46.0343C878.776 47.189 880.151 48.8258 881.139 50.9447C882.127 53.0636 882.621 55.5635 882.621 58.4442C882.621 61.3488 882.127 63.8665 881.139 65.9973C880.151 68.1162 878.782 69.759 877.032 70.9256C875.282 72.0803 873.265 72.6576 870.979 72.6576C869.217 72.6576 867.807 72.366 866.747 71.7827C865.688 71.1875 864.872 70.5149 864.301 69.7649C863.73 69.0031 863.289 68.3722 862.98 67.8722H862.622V82.3713H858.408ZM862.551 58.3728C862.551 60.4441 862.855 62.2714 863.462 63.8546C864.069 65.4259 864.956 66.658 866.122 67.5508C867.289 68.4317 868.717 68.8721 870.408 68.8721C872.169 68.8721 873.64 68.4079 874.818 67.4794C876.009 66.5389 876.901 65.2771 877.497 63.6939C878.104 62.0988 878.407 60.3251 878.407 58.3728C878.407 56.4444 878.11 54.7064 877.514 53.1588C876.931 51.5994 876.044 50.3674 874.854 49.4627C873.675 48.546 872.193 48.0877 870.408 48.0877C868.693 48.0877 867.253 48.5222 866.087 49.3912C864.92 50.2483 864.039 51.4506 863.444 52.9981C862.849 54.5338 862.551 56.3253 862.551 58.3728ZM893.263 65.8723L906.477 44.6594H911.334V72.0862H907.12V50.8733L893.978 72.0862H889.049V44.6594H893.263V65.8723ZM935.551 72.0862V48.5163H928.266C926.623 48.5163 925.331 48.8972 924.391 49.6591C923.45 50.4209 922.98 51.4685 922.98 52.8017C922.98 54.1112 923.403 55.1409 924.248 55.8908C925.105 56.6408 926.278 57.0157 927.766 57.0157H936.622V60.9441H927.766C925.909 60.9441 924.307 60.6167 922.962 59.962C921.617 59.3073 920.582 58.3728 919.855 57.1586C919.129 55.9325 918.766 54.4802 918.766 52.8017C918.766 51.1114 919.147 49.6591 919.909 48.4449C920.671 47.2307 921.76 46.2962 923.177 45.6415C924.605 44.9868 926.301 44.6594 928.266 44.6594H939.551V72.0862H935.551ZM917.266 72.0862L925.051 58.4442H929.623L921.837 72.0862H917.266Z" fill="white"/>
<path d="M667.438 132.998C664.867 132.998 662.653 132.39 660.796 131.176C658.939 129.962 657.511 128.29 656.511 126.159C655.511 124.028 655.011 121.594 655.011 118.856C655.011 116.07 655.523 113.612 656.546 111.481C657.582 109.338 659.022 107.666 660.867 106.464C662.725 105.249 664.891 104.642 667.367 104.642C669.296 104.642 671.034 104.999 672.581 105.714C674.129 106.428 675.396 107.428 676.384 108.713C677.372 109.999 677.985 111.499 678.224 113.213H674.01C673.688 111.963 672.974 110.856 671.867 109.892C670.772 108.916 669.296 108.428 667.438 108.428C665.796 108.428 664.355 108.856 663.117 109.713C661.891 110.559 660.933 111.755 660.243 113.302C659.564 114.838 659.225 116.642 659.225 118.713C659.225 120.832 659.558 122.677 660.225 124.248C660.903 125.819 661.856 127.04 663.082 127.909C664.32 128.778 665.772 129.212 667.438 129.212C668.534 129.212 669.528 129.022 670.42 128.641C671.313 128.26 672.069 127.712 672.688 126.998C673.307 126.284 673.748 125.427 674.01 124.427H678.224C677.985 126.046 677.396 127.504 676.456 128.801C675.527 130.087 674.295 131.111 672.76 131.873C671.236 132.623 669.462 132.998 667.438 132.998ZM705.525 104.999V132.426H701.311V104.999H705.525ZM703.883 118.07V121.998C702.93 122.355 701.984 122.671 701.043 122.945C700.103 123.207 699.115 123.415 698.079 123.57C697.044 123.712 695.907 123.784 694.669 123.784C691.562 123.784 689.068 122.945 687.187 121.266C685.318 119.588 684.384 117.07 684.384 113.713V104.928H688.598V113.713C688.598 115.118 688.866 116.272 689.401 117.177C689.937 118.082 690.663 118.754 691.58 119.195C692.496 119.635 693.526 119.856 694.669 119.856C696.454 119.856 698.067 119.695 699.508 119.373C700.96 119.04 702.418 118.606 703.883 118.07ZM721.328 133.069C719.59 133.069 718.013 132.742 716.596 132.087C715.179 131.42 714.055 130.462 713.221 129.212C712.388 127.95 711.971 126.427 711.971 124.641C711.971 123.07 712.281 121.796 712.9 120.82C713.519 119.832 714.346 119.058 715.382 118.499C716.418 117.939 717.56 117.522 718.81 117.249C720.072 116.963 721.34 116.737 722.614 116.57C724.28 116.356 725.631 116.195 726.667 116.088C727.714 115.969 728.476 115.773 728.952 115.499C729.44 115.225 729.685 114.749 729.685 114.07V113.927C729.685 112.166 729.202 110.797 728.238 109.821C727.286 108.844 725.84 108.356 723.899 108.356C721.887 108.356 720.31 108.797 719.167 109.678C718.025 110.559 717.221 111.499 716.757 112.499L712.757 111.07C713.471 109.404 714.424 108.106 715.614 107.178C716.816 106.237 718.126 105.583 719.542 105.214C720.971 104.833 722.375 104.642 723.756 104.642C724.637 104.642 725.649 104.749 726.792 104.964C727.947 105.166 729.06 105.589 730.131 106.231C731.214 106.874 732.113 107.844 732.827 109.142C733.541 110.44 733.899 112.178 733.899 114.356V132.426H729.685V128.712H729.47C729.185 129.307 728.708 129.944 728.042 130.623C727.375 131.301 726.488 131.879 725.381 132.355C724.274 132.831 722.923 133.069 721.328 133.069ZM721.971 129.284C723.637 129.284 725.042 128.956 726.185 128.301C727.339 127.647 728.208 126.802 728.792 125.766C729.387 124.73 729.685 123.641 729.685 122.498V118.641C729.506 118.856 729.113 119.052 728.506 119.231C727.911 119.397 727.22 119.546 726.435 119.677C725.661 119.796 724.905 119.903 724.167 119.998C723.441 120.082 722.852 120.153 722.399 120.213C721.304 120.356 720.28 120.588 719.328 120.909C718.388 121.219 717.626 121.689 717.042 122.32C716.471 122.939 716.185 123.784 716.185 124.855C716.185 126.319 716.727 127.427 717.81 128.176C718.905 128.915 720.292 129.284 721.971 129.284ZM752.732 132.998C750.161 132.998 747.947 132.39 746.09 131.176C744.233 129.962 742.804 128.29 741.804 126.159C740.804 124.028 740.304 121.594 740.304 118.856C740.304 116.07 740.816 113.612 741.84 111.481C742.876 109.338 744.316 107.666 746.161 106.464C748.018 105.249 750.185 104.642 752.661 104.642C754.589 104.642 756.327 104.999 757.875 105.714C759.422 106.428 760.69 107.428 761.678 108.713C762.666 109.999 763.279 111.499 763.517 113.213H759.303C758.982 111.963 758.268 110.856 757.16 109.892C756.065 108.916 754.589 108.428 752.732 108.428C751.089 108.428 749.649 108.856 748.411 109.713C747.185 110.559 746.227 111.755 745.536 113.302C744.858 114.838 744.518 116.642 744.518 118.713C744.518 120.832 744.852 122.677 745.518 124.248C746.197 125.819 747.149 127.04 748.375 127.909C749.613 128.778 751.066 129.212 752.732 129.212C753.827 129.212 754.821 129.022 755.714 128.641C756.607 128.26 757.363 127.712 757.982 126.998C758.601 126.284 759.041 125.427 759.303 124.427H763.517C763.279 126.046 762.69 127.504 761.749 128.801C760.821 130.087 759.589 131.111 758.053 131.873C756.53 132.623 754.756 132.998 752.732 132.998ZM767.517 108.928V104.999H789.801V108.928H780.802V132.426H776.588V108.928H767.517ZM791.212 132.426V128.498H792.212C793.033 128.498 793.718 128.337 794.265 128.016C794.813 127.682 795.253 127.105 795.587 126.284C795.932 125.45 796.194 124.296 796.372 122.82C796.563 121.332 796.7 119.439 796.783 117.141L797.283 104.999H815.567V132.426H811.353V108.928H801.283L800.854 118.713C800.759 120.963 800.556 122.945 800.247 124.659C799.949 126.361 799.491 127.79 798.872 128.944C798.265 130.099 797.455 130.968 796.444 131.551C795.432 132.135 794.164 132.426 792.64 132.426H791.212ZM827.513 126.212L840.727 104.999H845.583V132.426H841.369V111.213L828.227 132.426H823.299V104.999H827.513V126.212ZM853.302 132.426V104.999H864.515C867.467 104.999 869.812 105.666 871.55 106.999C873.288 108.333 874.157 110.094 874.157 112.285C874.157 113.951 873.663 115.243 872.675 116.159C871.687 117.064 870.42 117.677 868.872 117.999C869.884 118.141 870.866 118.499 871.818 119.07C872.783 119.641 873.58 120.427 874.211 121.427C874.842 122.415 875.157 123.629 875.157 125.07C875.157 126.474 874.8 127.73 874.086 128.837C873.372 129.944 872.348 130.819 871.015 131.462C869.682 132.105 868.086 132.426 866.229 132.426H853.302ZM857.301 128.569H866.229C867.682 128.569 868.818 128.224 869.64 127.534C870.461 126.843 870.872 125.903 870.872 124.712C870.872 123.296 870.461 122.183 869.64 121.373C868.818 120.552 867.682 120.141 866.229 120.141H857.301V128.569ZM857.301 116.499H864.515C865.646 116.499 866.616 116.344 867.426 116.034C868.235 115.713 868.854 115.261 869.283 114.677C869.723 114.082 869.943 113.38 869.943 112.57C869.943 111.416 869.461 110.511 868.497 109.856C867.533 109.19 866.206 108.856 864.515 108.856H857.301V116.499ZM892.679 132.998C890.203 132.998 888.03 132.408 886.161 131.23C884.304 130.051 882.852 128.403 881.804 126.284C880.769 124.165 880.251 121.689 880.251 118.856C880.251 115.999 880.769 113.505 881.804 111.374C882.852 109.243 884.304 107.589 886.161 106.41C888.03 105.232 890.203 104.642 892.679 104.642C895.155 104.642 897.321 105.232 899.178 106.41C901.047 107.589 902.499 109.243 903.535 111.374C904.583 113.505 905.106 115.999 905.106 118.856C905.106 121.689 904.583 124.165 903.535 126.284C902.499 128.403 901.047 130.051 899.178 131.23C897.321 132.408 895.155 132.998 892.679 132.998ZM892.679 129.212C894.559 129.212 896.107 128.73 897.321 127.766C898.535 126.802 899.434 125.534 900.017 123.962C900.601 122.391 900.892 120.689 900.892 118.856C900.892 117.022 900.601 115.314 900.017 113.731C899.434 112.148 898.535 110.868 897.321 109.892C896.107 108.916 894.559 108.428 892.679 108.428C890.798 108.428 889.25 108.916 888.036 109.892C886.822 110.868 885.923 112.148 885.34 113.731C884.756 115.314 884.465 117.022 884.465 118.856C884.465 120.689 884.756 122.391 885.34 123.962C885.923 125.534 886.822 126.802 888.036 127.766C889.25 128.73 890.798 129.212 892.679 129.212ZM928.466 104.999V108.928H915.753V132.426H911.539V104.999H928.466ZM944.336 132.998C941.86 132.998 939.687 132.408 937.819 131.23C935.962 130.051 934.509 128.403 933.462 126.284C932.426 124.165 931.908 121.689 931.908 118.856C931.908 115.999 932.426 113.505 933.462 111.374C934.509 109.243 935.962 107.589 937.819 106.41C939.687 105.232 941.86 104.642 944.336 104.642C946.812 104.642 948.979 105.232 950.836 106.41C952.705 107.589 954.157 109.243 955.192 111.374C956.24 113.505 956.764 115.999 956.764 118.856C956.764 121.689 956.24 124.165 955.192 126.284C954.157 128.403 952.705 130.051 950.836 131.23C948.979 132.408 946.812 132.998 944.336 132.998ZM944.336 129.212C946.217 129.212 947.764 128.73 948.979 127.766C950.193 126.802 951.092 125.534 951.675 123.962C952.258 122.391 952.55 120.689 952.55 118.856C952.55 117.022 952.258 115.314 951.675 113.731C951.092 112.148 950.193 110.868 948.979 109.892C947.764 108.916 946.217 108.428 944.336 108.428C942.455 108.428 940.908 108.916 939.693 109.892C938.479 110.868 937.58 112.148 936.997 113.731C936.414 115.314 936.122 117.022 936.122 118.856C936.122 120.689 936.414 122.391 936.997 123.962C937.58 125.534 938.479 126.802 939.693 127.766C940.908 128.73 942.455 129.212 944.336 129.212ZM988.48 141.783V95.8571H992.695V141.783H988.48ZM988.48 132.998C986.623 132.998 984.933 132.664 983.409 131.998C981.886 131.319 980.576 130.361 979.481 129.123C978.386 127.873 977.541 126.379 976.946 124.641C976.35 122.903 976.053 120.975 976.053 118.856C976.053 116.713 976.35 114.773 976.946 113.035C977.541 111.285 978.386 109.785 979.481 108.535C980.576 107.285 981.886 106.327 983.409 105.66C984.933 104.982 986.623 104.642 988.48 104.642H989.766V132.998H988.48ZM988.48 129.212H989.195V108.428H988.48C987.076 108.428 985.856 108.713 984.82 109.285C983.784 109.844 982.927 110.612 982.249 111.588C981.582 112.552 981.082 113.66 980.749 114.909C980.427 116.159 980.267 117.475 980.267 118.856C980.267 120.689 980.558 122.391 981.142 123.962C981.725 125.534 982.624 126.802 983.838 127.766C985.052 128.73 986.6 129.212 988.48 129.212ZM992.695 132.998H991.409V104.642H992.695C994.552 104.642 996.242 104.982 997.766 105.66C999.289 106.327 1000.6 107.285 1001.69 108.535C1002.79 109.785 1003.63 111.285 1004.23 113.035C1004.82 114.773 1005.12 116.713 1005.12 118.856C1005.12 120.975 1004.82 122.903 1004.23 124.641C1003.63 126.379 1002.79 127.873 1001.69 129.123C1000.6 130.361 999.289 131.319 997.766 131.998C996.242 132.664 994.552 132.998 992.695 132.998ZM992.695 129.212C994.111 129.212 995.331 128.938 996.355 128.391C997.391 127.831 998.242 127.069 998.908 126.105C999.587 125.129 1000.09 124.022 1000.41 122.784C1000.74 121.534 1000.91 120.225 1000.91 118.856C1000.91 117.022 1000.62 115.314 1000.03 113.731C999.45 112.148 998.551 110.868 997.337 109.892C996.123 108.916 994.575 108.428 992.695 108.428H991.98V129.212H992.695ZM1023.06 132.998C1020.42 132.998 1018.14 132.414 1016.22 131.248C1014.32 130.069 1012.85 128.426 1011.81 126.319C1010.79 124.201 1010.28 121.736 1010.28 118.927C1010.28 116.118 1010.79 113.642 1011.81 111.499C1012.85 109.344 1014.29 107.666 1016.13 106.464C1017.99 105.249 1020.16 104.642 1022.63 104.642C1024.06 104.642 1025.47 104.88 1026.87 105.357C1028.26 105.833 1029.53 106.606 1030.67 107.678C1031.81 108.737 1032.72 110.142 1033.4 111.892C1034.08 113.642 1034.42 115.796 1034.42 118.356V120.141H1013.28V116.499H1030.13C1030.13 114.951 1029.82 113.57 1029.21 112.356C1028.6 111.142 1027.73 110.184 1026.6 109.481C1025.48 108.779 1024.16 108.428 1022.63 108.428C1020.96 108.428 1019.5 108.844 1018.28 109.678C1017.06 110.499 1016.13 111.57 1015.47 112.892C1014.82 114.213 1014.49 115.63 1014.49 117.141V119.57C1014.49 121.641 1014.85 123.397 1015.56 124.837C1016.29 126.266 1017.3 127.355 1018.58 128.105C1019.87 128.843 1021.36 129.212 1023.06 129.212C1024.17 129.212 1025.17 129.057 1026.06 128.748C1026.97 128.426 1027.75 127.95 1028.4 127.319C1029.06 126.677 1029.56 125.879 1029.92 124.927L1033.99 126.069C1033.56 127.45 1032.84 128.665 1031.83 129.712C1030.82 130.748 1029.57 131.557 1028.08 132.141C1026.59 132.712 1024.92 132.998 1023.06 132.998ZM1040.83 142.711V104.999H1044.9V109.356H1045.4C1045.71 108.88 1046.14 108.273 1046.69 107.535C1047.25 106.785 1048.04 106.118 1049.08 105.535C1050.13 104.94 1051.54 104.642 1053.33 104.642C1055.64 104.642 1057.67 105.22 1059.44 106.374C1061.2 107.529 1062.57 109.166 1063.56 111.285C1064.55 113.404 1065.04 115.903 1065.04 118.784C1065.04 121.689 1064.55 124.206 1063.56 126.337C1062.57 128.456 1061.2 130.099 1059.45 131.266C1057.7 132.42 1055.69 132.998 1053.4 132.998C1051.64 132.998 1050.23 132.706 1049.17 132.123C1048.11 131.527 1047.29 130.855 1046.72 130.105C1046.15 129.343 1045.71 128.712 1045.4 128.212H1045.04V142.711H1040.83ZM1044.97 118.713C1044.97 120.784 1045.28 122.611 1045.88 124.195C1046.49 125.766 1047.38 126.998 1048.54 127.891C1049.71 128.772 1051.14 129.212 1052.83 129.212C1054.59 129.212 1056.06 128.748 1057.24 127.819C1058.43 126.879 1059.32 125.617 1059.92 124.034C1060.52 122.439 1060.83 120.665 1060.83 118.713C1060.83 116.784 1060.53 115.046 1059.94 113.499C1059.35 111.939 1058.47 110.707 1057.28 109.803C1056.1 108.886 1054.61 108.428 1052.83 108.428C1051.11 108.428 1049.67 108.862 1048.51 109.731C1047.34 110.588 1046.46 111.791 1045.87 113.338C1045.27 114.874 1044.97 116.665 1044.97 118.713ZM1086.47 126.712L1096.04 104.999H1100.04L1088.18 132.426H1084.76L1073.11 104.999H1077.04L1086.47 126.712ZM1075.68 104.999V132.426H1071.47V104.999H1075.68ZM1097.25 132.426V104.999H1101.47V132.426H1097.25ZM1120.68 132.998C1118.04 132.998 1115.76 132.414 1113.84 131.248C1111.94 130.069 1110.47 128.426 1109.43 126.319C1108.41 124.201 1107.9 121.736 1107.9 118.927C1107.9 116.118 1108.41 113.642 1109.43 111.499C1110.47 109.344 1111.91 107.666 1113.75 106.464C1115.61 105.249 1117.78 104.642 1120.25 104.642C1121.68 104.642 1123.09 104.88 1124.49 105.357C1125.88 105.833 1127.15 106.606 1128.29 107.678C1129.43 108.737 1130.34 110.142 1131.02 111.892C1131.7 113.642 1132.04 115.796 1132.04 118.356V120.141H1110.9V116.499H1127.75C1127.75 114.951 1127.44 113.57 1126.82 112.356C1126.22 111.142 1125.35 110.184 1124.22 109.481C1123.1 108.779 1121.78 108.428 1120.25 108.428C1118.57 108.428 1117.12 108.844 1115.9 109.678C1114.68 110.499 1113.75 111.57 1113.09 112.892C1112.44 114.213 1112.11 115.63 1112.11 117.141V119.57C1112.11 121.641 1112.47 123.397 1113.18 124.837C1113.91 126.266 1114.91 127.355 1116.2 128.105C1117.49 128.843 1118.98 129.212 1120.68 129.212C1121.79 129.212 1122.79 129.057 1123.68 128.748C1124.59 128.426 1125.37 127.95 1126.02 127.319C1126.68 126.677 1127.18 125.879 1127.54 124.927L1131.61 126.069C1131.18 127.45 1130.46 128.665 1129.45 129.712C1128.44 130.748 1127.19 131.557 1125.7 132.141C1124.21 132.712 1122.54 132.998 1120.68 132.998ZM1138.45 142.711V104.999H1142.52V109.356H1143.02C1143.33 108.88 1143.76 108.273 1144.31 107.535C1144.86 106.785 1145.66 106.118 1146.7 105.535C1147.75 104.94 1149.16 104.642 1150.95 104.642C1153.26 104.642 1155.29 105.22 1157.05 106.374C1158.82 107.529 1160.19 109.166 1161.18 111.285C1162.17 113.404 1162.66 115.903 1162.66 118.784C1162.66 121.689 1162.17 124.206 1161.18 126.337C1160.19 128.456 1158.82 130.099 1157.07 131.266C1155.32 132.42 1153.3 132.998 1151.02 132.998C1149.26 132.998 1147.85 132.706 1146.79 132.123C1145.73 131.527 1144.91 130.855 1144.34 130.105C1143.77 129.343 1143.33 128.712 1143.02 128.212H1142.66V142.711H1138.45ZM1142.59 118.713C1142.59 120.784 1142.89 122.611 1143.5 124.195C1144.11 125.766 1145 126.998 1146.16 127.891C1147.33 128.772 1148.76 129.212 1150.45 129.212C1152.21 129.212 1153.68 128.748 1154.86 127.819C1156.05 126.879 1156.94 125.617 1157.54 124.034C1158.14 122.439 1158.45 120.665 1158.45 118.713C1158.45 116.784 1158.15 115.046 1157.55 113.499C1156.97 111.939 1156.08 110.707 1154.89 109.803C1153.72 108.886 1152.23 108.428 1150.45 108.428C1148.73 108.428 1147.29 108.862 1146.13 109.731C1144.96 110.588 1144.08 111.791 1143.48 113.338C1142.89 114.874 1142.59 116.665 1142.59 118.713ZM1177.16 133.069C1175.42 133.069 1173.85 132.742 1172.43 132.087C1171.01 131.42 1169.89 130.462 1169.05 129.212C1168.22 127.95 1167.8 126.427 1167.8 124.641C1167.8 123.07 1168.11 121.796 1168.73 120.82C1169.35 119.832 1170.18 119.058 1171.21 118.499C1172.25 117.939 1173.39 117.522 1174.64 117.249C1175.9 116.963 1177.17 116.737 1178.45 116.57C1180.11 116.356 1181.46 116.195 1182.5 116.088C1183.55 115.969 1184.31 115.773 1184.78 115.499C1185.27 115.225 1185.52 114.749 1185.52 114.07V113.927C1185.52 112.166 1185.03 110.797 1184.07 109.821C1183.12 108.844 1181.67 108.356 1179.73 108.356C1177.72 108.356 1176.14 108.797 1175 109.678C1173.86 110.559 1173.05 111.499 1172.59 112.499L1168.59 111.07C1169.3 109.404 1170.26 108.106 1171.45 107.178C1172.65 106.237 1173.96 105.583 1175.37 105.214C1176.8 104.833 1178.21 104.642 1179.59 104.642C1180.47 104.642 1181.48 104.749 1182.62 104.964C1183.78 105.166 1184.89 105.589 1185.96 106.231C1187.05 106.874 1187.95 107.844 1188.66 109.142C1189.37 110.44 1189.73 112.178 1189.73 114.356V132.426H1185.52V128.712H1185.3C1185.02 129.307 1184.54 129.944 1183.87 130.623C1183.21 131.301 1182.32 131.879 1181.21 132.355C1180.11 132.831 1178.76 133.069 1177.16 133.069ZM1177.8 129.284C1179.47 129.284 1180.87 128.956 1182.02 128.301C1183.17 127.647 1184.04 126.802 1184.62 125.766C1185.22 124.73 1185.52 123.641 1185.52 122.498V118.641C1185.34 118.856 1184.95 119.052 1184.34 119.231C1183.74 119.397 1183.05 119.546 1182.27 119.677C1181.49 119.796 1180.74 119.903 1180 119.998C1179.27 120.082 1178.68 120.153 1178.23 120.213C1177.14 120.356 1176.11 120.588 1175.16 120.909C1174.22 121.219 1173.46 121.689 1172.87 122.32C1172.3 122.939 1172.02 123.784 1172.02 124.855C1172.02 126.319 1172.56 127.427 1173.64 128.176C1174.74 128.915 1176.12 129.284 1177.8 129.284Z" fill="white"/>
</svg>
