<?xml version="1.0" encoding="utf-8"?>
<!-- Generator: Adobe Illustrator 24.3.0, SVG Export Plug-In . SVG Version: 6.00 Build 0)  -->
<svg version="1.1" id="Слой_1" xmlns="http://www.w3.org/2000/svg" xmlns:xlink="http://www.w3.org/1999/xlink" x="0px" y="0px"
	 viewBox="0 0 100 83" style="enable-background:new 0 0 100 83;" xml:space="preserve">
<style type="text/css">
	.st0{display:none;}
	.st1{fill:#FFFFFF;}
	.st2{clip-path:url(#SVGID_2_);fill:url(#SVGID_3_);}
</style>
<rect x="0" y="-7" class="st0" width="100" height="100"/>
<rect x="8.49" class="st1" width="84.51" height="21.19"/>
<path class="st1" d="M291.32,30.07c0.28-0.66,0.61-1.27,0.99-1.83c0.38-0.56,0.89-1.03,1.52-1.41c0.63-0.38,1.4-0.68,2.33-0.89
	c0.92-0.21,2.1-0.31,3.53-0.31c0.87,0,1.72,0.04,2.54,0.13c0.82,0.09,1.59,0.28,2.3,0.58c0.72,0.3,1.38,0.74,1.99,1.34
	c0.61,0.59,1.13,1.4,1.54,2.41l13.56,32.62h-12.46l-2.88-7.54H293.1l-2.88,7.54h-12.46L291.32,30.07z M295.93,46.78h7.54l-3.3-9.27
	c-0.07-0.14-0.15-0.31-0.24-0.5c-0.09-0.19-0.17-0.29-0.24-0.29c-0.07,0-0.15,0.1-0.24,0.29c-0.09,0.19-0.17,0.36-0.24,0.5
	L295.93,46.78z"/>
<path class="st1" d="M356.21,57.2c0,1.22-0.22,2.16-0.65,2.83c-0.44,0.66-0.81,1.13-1.13,1.41c-1.01,0.84-2.32,1.26-3.93,1.26
	h-17.33c-1.5,0-3.12-0.25-4.84-0.76c-1.73-0.51-3.19-1.28-4.37-2.33c-1.01-0.87-1.81-1.93-2.38-3.17c-0.58-1.24-1.01-2.53-1.31-3.87
	c-0.3-1.34-0.49-2.7-0.58-4.08c-0.09-1.38-0.13-2.68-0.13-3.9c0-1.47,0.05-2.96,0.16-4.48c0.1-1.52,0.33-2.99,0.68-4.42
	c0.35-1.43,0.87-2.76,1.57-3.98c0.7-1.22,1.64-2.27,2.83-3.14c0.84-0.63,1.75-1.11,2.72-1.44c0.98-0.33,1.9-0.58,2.77-0.73
	c0.87-0.16,1.65-0.25,2.33-0.29c0.68-0.03,1.14-0.05,1.39-0.05h21.36v8.69h-16.02c-2.93,0-5.04,1.01-6.34,3.04
	c-0.63,1.01-1,2.11-1.13,3.3c-0.12,1.19-0.18,2.29-0.18,3.3c0,1.01,0.06,2.11,0.18,3.3c0.12,1.19,0.51,2.32,1.18,3.4
	c0.66,1.01,1.43,1.68,2.3,2.02c0.87,0.33,1.81,0.5,2.83,0.5h3.56c0.31,0,0.65-0.03,1.02-0.08c0.37-0.05,0.69-0.22,0.97-0.5
	c0.28-0.28,0.45-0.61,0.52-0.99c0.07-0.38,0.1-0.77,0.1-1.15v-7.54h11.83V57.2z"/>
<g>
	<defs>
		<path id="SVGID_1_" d="M52.13,31.82L52.13,31.82C52.13,31.82,52.14,31.81,52.13,31.82c0.05-0.05,0.09-0.1,0.13-0.14
			c0.43-0.4,1.31-0.52,1.68-0.55c1.22,0.01,3.11,0.03,4.38,0.05c0.21,0,0.4,0,0.57,0.01c0.37,0.03,0.85,0.1,1.29,0.31
			c0.16,0.1,0.3,0.19,0.3,0.19s2.07,1.28,2.52,1.57c0.46,0.28,0.54,1.43,0.54,1.43s0.02,2.72,0.08,3.35
			c0.05,0.64,0.32,0.89,0.08,1.64c-0.23,0.86-4.44,0.71-4.44,0.71s-2.6-0.07-3.75-1.21c0,0-3.29-2.42-5.59-3.71
			c0,0-0.23-0.17-0.62-0.4c-0.08-0.18-0.06-0.35,0.03-0.53c0.08-0.17,0.6-0.61,0.96-0.9c0.11-0.08,0.22-0.17,0.35-0.28
			c0,0,0.01,0,0.01,0s0,0,0,0C51.12,32.92,51.7,32.3,52.13,31.82 M40.48,27.68l-4.02,0.01c0,0-0.5-0.1-0.85,0.47
			c-0.36,0.56-0.32,0.97-0.32,0.97v2.31c0,0-0.31-0.01-0.3,0.32c0,0.2,0.19,0.33,0.23,0.33v0.77c0,0-0.01,0.01-0.01,0.01
			c-0.01,0.01-0.03,0.01-0.04,0.02c-0.01,0-0.02,0.01-0.02,0.01c-0.01,0-0.02,0.01-0.03,0.01c-0.01,0-0.01,0-0.02,0.01
			c-0.01,0-0.02,0.01-0.04,0.01c-0.02,0-0.04,0.01-0.06,0.01c0,0,0,0-0.01,0c-0.02,0.01-0.03,0.01-0.05,0.01
			c-1.44,0.4-2.13,7.49-2.44,9.45c-0.31,1.97,0,2.74,0,2.74c0.38,0.64,0.38,1.33,0.38,1.33v30.41c0,0.93,0.08,1,0.84,3.57
			C34.49,83,36.17,83,36.17,83h28.24c0,0,1.68,0,2.91-1.43c1.55-1.81,1.45-4.21,1.45-4.21l0.08-31.26v-0.1
			c0.02-0.01,0.03-0.03,0.03-0.03s0,0,0,0c0.09-0.01,0.38-0.1,0.51-1c0.36-2.49-0.84-3.21-1.45-3.5c-0.61-0.28-0.92-0.57-0.92-1.21
			c0-0.64,0.33-0.71,0.38-1.66c0,0-0.05-3.44,0-4.26c-0.36-2.72-0.92-2.92-3.06-4.64c-2.14-1.71-4.33-2-4.33-2s-5.69-0.07-7.37,0
			c-1.68,0.07-1.91,0.55-1.91,0.55s-2.75,2.95-3.9,3.94c-0.27,0.24-0.48,0.39-0.65,0.5c-0.09,0.05-0.39,0.18-0.39-0.32v-0.34
			c0.04,0,0.23-0.13,0.23-0.33c0-0.33-0.31-0.32-0.31-0.32v-2.31c0,0,0.04-0.41-0.31-0.97c-0.36-0.56-0.85-0.47-0.85-0.47
			l-4.05-0.01V27.68z"/>
	</defs>
	<clipPath id="SVGID_2_">
		<use xlink:href="#SVGID_1_"  style="overflow:visible;"/>
	</clipPath>
	
		<linearGradient id="SVGID_3_" gradientUnits="userSpaceOnUse" x1="-910.1846" y1="584.1382" x2="-909.5959" y2="584.1382" gradientTransform="matrix(63 0 0 -63 57373.957 36855.9727)">
		<stop  offset="0" style="stop-color:#ABF538"/>
		<stop  offset="1" style="stop-color:#FED919"/>
	</linearGradient>
	<rect x="32.2" y="27.58" class="st2" width="37.55" height="55.42"/>
</g>
<g>
	<path d="M38.73,63.3c0,0,0.84,2.57,0.42,7.16c-0.42,4.6,2.09,10.15,8.06,9.85c0,0,0-5.01-5.07-12.89c0,0,5.61,5.61,7.7,11.46
		c0,0,4.79-6.73-0.84-10.57C47.68,67.42,40.7,64.91,38.73,63.3"/>
	<path d="M62.53,49.96c0,0-3.76,2.15-6.27,3.34c-2.51,1.19-7.94,4.54-9.25,5.67c-1.31,1.13-2.93,3.76-3.1,5.55
		c0,0,5.28,1.46,7.28,4.66c0,0,3.1-6.98,3.28-7.28c0.18-0.3,2.06-3.25,3.4-4.78c0,0-6.45,12.48-6.09,21.85c0,0,9.48-0.47,11.16-9.67
		c1.01-5.55-0.36-10.92-0.36-10.92S61.85,52.67,62.53,49.96"/>
</g>
</svg>
