<svg width="387" height="129" viewBox="0 0 387 129" fill="none" xmlns="http://www.w3.org/2000/svg">
<path d="M75.49 28.08C75.8 32.15 74.51 36.18 71.9 39.32C70.65 40.88 69.06 42.13 67.26 42.98C65.45 43.83 63.48 44.27 61.48 44.25C61.35 42.29 61.61 40.33 62.24 38.47C62.87 36.61 63.86 34.9 65.16 33.43C67.81 30.41 71.5 28.5 75.49 28.08Z" fill="white"/>
<path d="M82.77 57.71C81.44 60.05 80.73 62.68 80.69 65.37C80.69 68.39 81.59 71.35 83.26 73.87C84.93 76.39 87.31 78.36 90.09 79.54C89 83.1 87.35 86.46 85.2 89.5C82.32 93.81 79.3 98.02 74.51 98.09C72.23 98.14 70.69 97.49 69.09 96.81C67.42 96.1 65.68 95.35 62.95 95.35C60.06 95.35 58.24 96.12 56.48 96.86C54.96 97.5 53.49 98.12 51.42 98.2C46.86 98.37 43.37 93.6 40.38 89.34C34.41 80.62 29.77 64.78 36 54C37.44 51.42 39.52 49.25 42.04 47.71C44.56 46.17 47.44 45.31 50.4 45.22C52.99 45.17 55.47 46.17 57.65 47.04C59.32 47.71 60.8 48.31 62.02 48.31C63.09 48.31 64.53 47.74 66.22 47.07C68.87 46.02 72.12 44.73 75.43 45.08C77.97 45.16 80.45 45.83 82.68 47.04C84.91 48.25 86.83 49.96 88.28 52.03C86 53.41 84.1 55.37 82.77 57.71Z" fill="white"/>
<path fill-rule="evenodd" clip-rule="evenodd" d="M137.16 76.29H121.92L118.26 87.1H111.81L126.25 47.12H132.96L147.4 87.1H140.83L137.16 76.29ZM123.49 71.3H135.57L129.61 53.76H129.44L123.49 71.3Z" fill="white"/>
<path fill-rule="evenodd" clip-rule="evenodd" d="M166.39 87.4C173.71 87.4 178.56 81.58 178.56 72.52C178.56 63.49 173.68 57.64 166.28 57.64C164.41 57.58 162.56 58.03 160.93 58.93C159.29 59.84 157.94 61.17 157 62.79H156.89V57.94H151.1V96.74H157.08V82.3H157.22C158.12 83.93 159.45 85.27 161.07 86.17C162.69 87.07 164.54 87.5 166.39 87.4ZM164.7 62.74C169.35 62.74 172.4 66.62 172.4 72.52C172.4 78.48 169.35 82.33 164.7 82.33C160.13 82.33 157.05 78.4 157.05 72.52C157.05 66.7 160.13 62.74 164.7 62.74Z" fill="white"/>
<path fill-rule="evenodd" clip-rule="evenodd" d="M210.64 72.52C210.64 81.58 205.79 87.4 198.47 87.4C196.62 87.5 194.77 87.07 193.15 86.17C191.53 85.27 190.19 83.93 189.3 82.3H189.16V96.74H183.18V57.94H188.97V62.79H189.08C190.02 61.17 191.38 59.84 193.01 58.93C194.64 58.02 196.49 57.57 198.36 57.63C205.76 57.64 210.64 63.49 210.64 72.52ZM204.49 72.52C204.49 66.62 201.44 62.74 196.79 62.74C192.22 62.74 189.14 66.7 189.14 72.52C189.14 78.39 192.22 82.33 196.79 82.33C201.44 82.33 204.49 78.48 204.49 72.52Z" fill="white"/>
<path d="M241.41 82.53C236.15 82.53 232.29 79.93 231.85 75.96H225.72C226.11 83.19 232.09 87.77 240.96 87.77C250.44 87.77 256.4 83.09 256.4 75.6C256.4 69.75 252.99 66.46 244.79 64.51L240.39 63.43C235.24 62.16 233.13 60.49 233.13 57.67C233.13 54.12 236.43 51.69 241.25 51.69C246.07 51.69 249.37 54.1 249.73 58.09H255.77C255.58 51.19 249.78 46.45 241.33 46.45C232.79 46.45 226.78 51.19 226.78 58.09C226.78 63.66 230.19 67.1 237.53 68.87L242.71 70.12C247.89 71.39 250.08 73.25 250.08 76.35C250.08 79.92 246.45 82.53 241.41 82.53Z" fill="white"/>
<path d="M269.31 51.05V57.95H274.85V62.69H269.31V78.76C269.31 81.26 270.42 82.42 272.86 82.42C273.52 82.41 274.18 82.36 274.83 82.28V86.99C273.73 87.2 272.62 87.29 271.51 87.27C265.61 87.27 263.31 85.05 263.31 79.4V62.69H259.07V57.95H263.31V51.05H269.31Z" fill="white"/>
<path fill-rule="evenodd" clip-rule="evenodd" d="M291.89 57.59C283.47 57.59 278.06 63.35 278.06 72.53C278.06 81.73 283.41 87.47 291.89 87.47C300.37 87.47 305.72 81.73 305.72 72.53C305.72 63.35 300.35 57.59 291.89 57.59ZM291.89 62.52C296.74 62.52 299.62 66.23 299.62 72.53C299.62 78.85 296.74 82.53 291.89 82.53C287.04 82.53 284.16 78.85 284.16 72.53C284.17 66.26 287.05 62.52 291.89 62.52Z" fill="white"/>
<path d="M310.66 57.95H316.37V62.91H316.51C316.9 61.36 317.8 59.99 319.08 59.03C320.36 58.07 321.93 57.58 323.52 57.64C324.21 57.64 324.9 57.71 325.57 57.86V63.46C324.7 63.19 323.79 63.07 322.88 63.1C322.01 63.06 321.14 63.22 320.34 63.55C319.54 63.88 318.81 64.38 318.22 65.02C317.63 65.66 317.18 66.41 316.91 67.24C316.64 68.07 316.55 68.94 316.65 69.81V87.1H310.67V57.95H310.66Z" fill="white"/>
<path fill-rule="evenodd" clip-rule="evenodd" d="M340.6 87.46C347.19 87.46 352.35 83.83 353.15 78.54H347.47C346.94 79.86 346 80.97 344.78 81.71C343.57 82.45 342.15 82.78 340.74 82.64C339.66 82.68 338.59 82.49 337.59 82.08C336.59 81.67 335.69 81.06 334.95 80.28C334.21 79.5 333.64 78.57 333.29 77.55C332.93 76.53 332.8 75.45 332.89 74.38V74.02H353.48V71.97C353.48 63.13 348.41 57.59 340.34 57.59C332.14 57.59 326.85 63.52 326.85 72.66C326.86 81.78 332.12 87.46 340.6 87.46ZM347.5 69.84H332.93C332.93 68.87 333.12 67.9 333.49 67C333.86 66.1 334.41 65.28 335.1 64.59C335.79 63.9 336.61 63.36 337.51 62.99C338.41 62.62 339.38 62.43 340.35 62.44C341.32 62.42 342.27 62.6 343.17 62.97C344.07 63.34 344.87 63.89 345.54 64.58C346.21 65.28 346.73 66.1 347.07 67.01C347.41 67.91 347.56 68.87 347.5 69.84Z" fill="white"/>
<path fill-rule="evenodd" clip-rule="evenodd" d="M31.65 -1.52588e-05C30.47 -1.52588e-05 29.3 -2.07517e-05 28.12 0.00997925C27.34 0.0199792 26.56 0.029978 25.78 0.039978L25.16 0.0499878C23 0.0799878 20.84 0.26998 18.71 0.61998C16.58 0.97998 14.52 1.65998 12.59 2.63998C10.67 3.62998 8.91001 4.90998 7.38001 6.42998C5.84001 7.95998 4.56001 9.71998 3.59001 11.65C2.61001 13.58 1.93001 15.64 1.58001 17.78C1.22001 19.91 1.03001 22.07 1.00001 24.23C0.980011 24.9 0.970011 25.57 0.960011 26.24C0.960011 26.56 0.950012 26.87 0.950012 27.19V101.62C0.950012 101.94 0.960011 102.25 0.960011 102.56C0.970011 103.23 0.980011 103.9 1.00001 104.59C1.03001 106.75 1.22001 108.91 1.58001 111.04C1.93001 113.18 2.61001 115.24 3.59001 117.17C4.57001 119.1 5.85001 120.85 7.38001 122.37C8.90001 123.91 10.66 125.19 12.59 126.16C14.52 127.14 16.58 127.82 18.71 128.19C20.84 128.54 23 128.73 25.16 128.76C26.16 128.78 27.13 128.79 28.12 128.79C29.3 128.8 30.47 128.8 31.65 128.8H355.58C356.74 128.8 357.91 128.8 359.07 128.79C360.05 128.79 361.06 128.78 362.04 128.76C364.2 128.73 366.35 128.54 368.48 128.19C370.62 127.82 372.69 127.14 374.62 126.16C376.55 125.18 378.3 123.9 379.83 122.37C381.36 120.85 382.65 119.09 383.64 117.17C384.61 115.24 385.28 113.17 385.63 111.04C385.99 108.91 386.19 106.76 386.23 104.59C386.24 103.59 386.24 102.62 386.24 101.62C386.27 100.45 386.27 99.29 386.27 98.1V30.71C386.27 29.53 386.27 28.36 386.24 27.19C386.24 26.2 386.24 25.21 386.23 24.23C386.19 22.07 385.99 19.91 385.63 17.78C385.28 15.65 384.61 13.58 383.64 11.65C381.65 7.77998 378.5 4.61999 374.63 2.62999C372.7 1.65999 370.62 0.969985 368.49 0.609985C366.36 0.249985 364.21 0.059978 362.05 0.039978L361.51 0.0299835C360.7 0.0199835 359.88 -1.52588e-05 359.09 -1.52588e-05C358 -0.0100153 356.89 -0.0100098 355.8 -0.0100098H31.65V-1.52588e-05ZM28.14 125.98C27.16 125.98 26.2 125.97 25.23 125.95C23.21 125.92 21.2 125.75 19.21 125.42C17.35 125.1 15.56 124.51 13.87 123.66C12.21 122.82 10.69 121.71 9.37001 120.39C8.04001 119.08 6.93001 117.56 6.08001 115.89C5.23001 114.21 4.64001 112.41 4.33001 110.55C4.00001 108.55 3.82001 106.54 3.79001 104.51C3.77001 103.83 3.74001 101.57 3.74001 101.57V27.19C3.74001 27.19 3.77001 24.96 3.79001 24.31C3.81001 22.29 3.99001 20.28 4.32001 18.28C4.63001 16.42 5.22001 14.61 6.07001 12.93C6.91001 11.26 8.01001 9.73998 9.34001 8.42998C10.66 7.09998 12.19 5.98998 13.86 5.13998C15.54 4.28998 17.33 3.69998 19.18 3.38998C21.18 3.05998 23.2 2.88999 25.22 2.85999L28.13 2.81999H359.04L361.98 2.85999C363.99 2.87999 365.99 3.05999 367.96 3.37999C369.83 3.69999 371.65 4.28998 373.34 5.13998C376.68 6.85998 379.4 9.58998 381.12 12.93C381.96 14.6 382.54 16.39 382.84 18.24C383.17 20.25 383.36 22.28 383.4 24.32C383.41 25.23 383.41 26.21 383.41 27.19C383.44 28.4 383.44 29.55 383.44 30.71V98.1C383.44 99.27 383.44 100.41 383.41 101.56C383.41 102.61 383.41 103.57 383.4 104.55C383.36 106.55 383.18 108.54 382.85 110.52C382.55 112.39 381.96 114.2 381.11 115.9C380.26 117.55 379.16 119.06 377.84 120.36C376.52 121.69 375 122.8 373.33 123.65C371.64 124.51 369.83 125.1 367.96 125.42C365.97 125.75 363.96 125.92 361.94 125.95C361 125.97 360.01 125.98 359.05 125.98L355.56 125.99L28.14 125.98Z" fill="white"/>
</svg>
