<?xml version="1.0" encoding="utf-8"?>
<!-- Generator: Adobe Illustrator 24.3.0, SVG Export Plug-In . SVG Version: 6.00 Build 0)  -->
<svg version="1.1" xmlns="http://www.w3.org/2000/svg" xmlns:xlink="http://www.w3.org/1999/xlink" x="0px" y="0px"
	 viewBox="0 0 100 100" style="enable-background:new 0 0 100 100;" xml:space="preserve">
<style type="text/css">
	.st0{display:none;}
	.st1{display:inline;}
	.st2{fill:#FFFFFF;}
</style>
<g id="Слой_1" class="st0">
	<g class="st1">
		<rect x="0.5" y="0.5" width="99" height="99"/>
		<path d="M99,1v98H1V1H99 M100,0H0v100h100V0L100,0z"/>
	</g>
</g>
<g id="Слой_2">
	<path class="st2" d="M60.05,90L39.43,71.96l20.62-18.04V64.2h14.51v15.52H60.05V90z M40.97,71.96l18.07,15.81v-9.06h14.51v-13.5
		H59.03v-9.06L40.97,71.96z M42.5,79.72H1V69.03h36.24l-3.52,2.94L42.5,79.72z M2.01,78.71h37.81l-7.66-6.76l2.28-1.9H2.01V78.71z
		 M78.38,70.66V60.37H63.87V44.85h14.51V34.57L99,52.61L78.38,70.66z M64.88,59.36h14.51v9.06l18.07-15.81L79.39,36.8v9.06H64.88
		V59.36z M35.87,65.21H25.18V40.02h10.69V65.21z M26.19,64.2h8.66V41.03h-8.66V64.2z M16.52,65.21H5.84V40.02h10.69V65.21z
		 M6.85,64.2h8.66V41.03H6.85V64.2z M44.53,62.45V40.02h10.69v12.82L44.53,62.45z M45.54,41.03v19.15l8.66-7.79V41.03H45.54z
		 M60.05,36.19H1v-7.08l29.52-18.21l29.52,18.21V36.19z M2.01,35.18h57.02v-5.5L30.52,12.1L2.01,29.68V35.18z"/>
</g>
</svg>
