<svg width="90" height="52" viewBox="0 0 90 52" fill="none" xmlns="http://www.w3.org/2000/svg">
<path d="M89.53 46.16C89.42 45.93 89.32 45.73 89.23 45.58C87.68 42.79 84.71 39.36 80.34 35.29L80.25 35.2L80.2 35.15L80.15 35.1H80.1C78.11 33.21 76.86 31.93 76.33 31.28C75.37 30.04 75.15 28.78 75.68 27.51C76.05 26.55 77.45 24.52 79.87 21.41C81.14 19.77 82.15 18.45 82.9 17.45C88.27 10.31 90.6 5.75002 89.88 3.77002L89.6 3.31002C89.41 3.03002 88.93 2.77001 88.16 2.54001C87.38 2.31001 86.39 2.27002 85.18 2.42002L71.77 2.51001C71.55 2.43001 71.24 2.44002 70.84 2.53002C70.44 2.62002 70.23 2.67002 70.23 2.67002L70 2.80002L69.81 2.94002C69.65 3.03002 69.48 3.20001 69.3 3.43001C69.11 3.66001 68.96 3.93003 68.84 4.24003C67.38 7.99003 65.72 11.49 63.86 14.71C62.71 16.63 61.66 18.3 60.69 19.71C59.73 21.12 58.92 22.16 58.27 22.83C57.62 23.5 57.03 24.03 56.5 24.44C55.97 24.84 55.57 25.01 55.29 24.95C55.01 24.89 54.75 24.83 54.5 24.76C54.07 24.48 53.72 24.1 53.45 23.62C53.19 23.14 53.01 22.53 52.91 21.8C52.82 21.07 52.76 20.44 52.75 19.91C52.74 19.38 52.74 18.64 52.77 17.68C52.8 16.72 52.82 16.07 52.82 15.73C52.82 14.55 52.84 13.27 52.89 11.89C52.94 10.51 52.97 9.41002 53.01 8.61002C53.04 7.80002 53.06 6.95002 53.06 6.05002C53.06 5.15002 53.01 4.44001 52.9 3.93001C52.79 3.42001 52.63 2.92002 52.41 2.44002C52.19 1.96002 51.87 1.59003 51.46 1.32003C51.04 1.06003 50.52 0.850022 49.9 0.690022C48.26 0.320022 46.16 0.120016 43.62 0.0900158C37.85 0.0300158 34.14 0.400026 32.5 1.21003C31.85 1.55003 31.26 2.02002 30.73 2.61002C30.17 3.29002 30.09 3.67002 30.5 3.73002C32.36 4.01002 33.68 4.68002 34.46 5.73002L34.74 6.29001C34.96 6.69001 35.17 7.41001 35.39 8.43001C35.61 9.45001 35.75 10.59 35.81 11.83C35.96 14.1 35.96 16.04 35.81 17.65C35.65 19.26 35.51 20.52 35.37 21.42C35.23 22.32 35.02 23.05 34.74 23.61C34.46 24.17 34.27 24.51 34.18 24.63C34.09 24.75 34.01 24.83 33.95 24.86C33.55 25.01 33.13 25.09 32.69 25.09C32.26 25.09 31.73 24.87 31.11 24.44C30.49 24.01 29.85 23.41 29.18 22.65C28.51 21.89 27.76 20.83 26.92 19.46C26.08 18.09 25.21 16.48 24.31 14.62L23.57 13.27C23.1 12.4 22.47 11.14 21.66 9.48001C20.85 7.82001 20.14 6.21002 19.52 4.66002C19.27 4.01002 18.9 3.51002 18.4 3.17002L18.17 3.03002C18.02 2.91002 17.77 2.77002 17.43 2.63002C17.09 2.49002 16.73 2.39002 16.36 2.33002L3.61 2.42002C2.31 2.42002 1.42001 2.72002 0.960007 3.30002L0.770004 3.58002C0.680004 3.74002 0.630005 3.98002 0.630005 4.33002C0.630005 4.67002 0.720004 5.09002 0.910004 5.59002C2.77 9.97002 4.8 14.19 6.98 18.25C9.17 22.32 11.07 25.59 12.68 28.07C14.29 30.55 15.94 32.9 17.61 35.1C19.29 37.3 20.4 38.72 20.94 39.34C21.48 39.96 21.91 40.43 22.22 40.74L23.38 41.86C24.12 42.6 25.22 43.5 26.66 44.54C28.1 45.58 29.7 46.6 31.45 47.61C33.2 48.62 35.24 49.44 37.57 50.08C39.9 50.72 42.16 50.97 44.37 50.85H49.72C50.81 50.76 51.63 50.41 52.19 49.83L52.38 49.6C52.5 49.41 52.62 49.13 52.73 48.74C52.84 48.35 52.89 47.92 52.89 47.46C52.86 46.13 52.96 44.92 53.19 43.85C53.42 42.78 53.69 41.97 53.98 41.43C54.28 40.89 54.61 40.43 54.98 40.06C55.35 39.69 55.62 39.46 55.77 39.38C55.92 39.3 56.05 39.25 56.14 39.22C56.88 38.97 57.76 39.21 58.77 39.94C59.78 40.67 60.72 41.57 61.61 42.64C62.49 43.71 63.56 44.91 64.8 46.25C66.04 47.58 67.13 48.58 68.06 49.23L68.99 49.79C69.61 50.16 70.42 50.5 71.41 50.81C72.4 51.12 73.27 51.2 74.02 51.04L85.94 50.85C87.12 50.85 88.04 50.65 88.69 50.27C89.34 49.88 89.73 49.45 89.85 48.99C89.97 48.52 89.98 48 89.87 47.41C89.74 46.8 89.63 46.39 89.53 46.16Z" fill="white"/>
</svg>
