<svg width="428" height="428" viewBox="0 0 428 428" fill="none" xmlns="http://www.w3.org/2000/svg">
<g clip-path="url(#clip0_34_21)">
<g opacity="0.4">
<mask id="mask0_34_21" style="mask-type:luminance" maskUnits="userSpaceOnUse" x="0" y="0" width="428" height="428">
<g opacity="0.4">
<path d="M0.790039 214C0.790039 331.86 96.34 427.41 214.2 427.41C332.07 427.41 427.61 331.86 427.61 214C427.61 155.4 403.99 102.33 365.75 63.76L341.93 87.23C374 119.54 393.82 164.03 393.82 213.15C393.82 311.89 313.78 391.93 215.04 391.93C116.3 391.93 36.26 311.89 36.26 213.15C36.26 114.42 116.3 34.37 215.04 34.37C261.76 34.37 304.28 52.31 336.13 81.66L358.96 57.22C320.92 22.07 270.07 0.590027 214.19 0.590027C96.34 0.590027 0.790039 96.13 0.790039 214Z" fill="white"/>
</g>
</mask>
<g mask="url(#mask0_34_21)">
<path d="M427.61 0.590027H0.790039V427.41H427.61V0.590027Z" fill="url(#paint0_linear_34_21)"/>
</g>
</g>
<path d="M152.209 173.278C155.949 173.278 159.548 173.906 163.004 175.161C166.484 176.415 169.586 178.416 172.308 181.162C175.054 183.908 177.221 187.554 178.807 192.099C180.417 196.621 181.233 202.173 181.257 208.754C181.257 214.933 180.559 220.449 179.162 225.303C177.789 230.132 175.812 234.24 173.232 237.625C170.651 241.01 167.538 243.591 163.892 245.366C160.246 247.118 156.174 247.994 151.676 247.994C146.823 247.994 142.538 247.059 138.821 245.189C135.104 243.295 132.109 240.726 129.837 237.483C127.588 234.216 126.226 230.546 125.753 226.474H140.916C141.508 229.126 142.751 231.186 144.645 232.653C146.539 234.098 148.883 234.82 151.676 234.82C156.411 234.82 160.009 232.76 162.472 228.641C164.934 224.498 166.177 218.828 166.2 211.631H165.703C164.614 213.761 163.146 215.596 161.3 217.135C159.453 218.65 157.334 219.822 154.943 220.651C152.576 221.479 150.054 221.893 147.379 221.893C143.094 221.893 139.271 220.887 135.909 218.875C132.547 216.863 129.896 214.093 127.955 210.565C126.013 207.038 125.043 203.013 125.043 198.491C125.019 193.615 126.143 189.27 128.416 185.459C130.689 181.647 133.861 178.664 137.933 176.51C142.029 174.332 146.787 173.255 152.209 173.278ZM152.315 185.352C149.924 185.352 147.794 185.92 145.923 187.057C144.077 188.193 142.609 189.72 141.52 191.638C140.455 193.555 139.934 195.698 139.957 198.065C139.957 200.456 140.478 202.611 141.52 204.528C142.585 206.422 144.029 207.937 145.852 209.074C147.699 210.187 149.806 210.743 152.173 210.743C153.949 210.743 155.594 210.411 157.109 209.749C158.625 209.086 159.938 208.174 161.051 207.014C162.188 205.83 163.075 204.469 163.714 202.93C164.354 201.392 164.673 199.758 164.673 198.03C164.65 195.733 164.105 193.626 163.04 191.709C161.974 189.791 160.507 188.252 158.636 187.092C156.766 185.932 154.659 185.352 152.315 185.352ZM218.224 173.278C221.965 173.278 225.563 173.906 229.02 175.161C232.5 176.415 235.601 178.416 238.324 181.162C241.07 183.908 243.236 187.554 244.822 192.099C246.432 196.621 247.249 202.173 247.273 208.754C247.273 214.933 246.574 220.449 245.178 225.303C243.804 230.132 241.828 234.24 239.247 237.625C236.667 241.01 233.554 243.591 229.908 245.366C226.262 247.118 222.19 247.994 217.692 247.994C212.839 247.994 208.554 247.059 204.837 245.189C201.12 243.295 198.125 240.726 195.852 237.483C193.603 234.216 192.242 230.546 191.768 226.474H206.932C207.524 229.126 208.767 231.186 210.661 232.653C212.554 234.098 214.898 234.82 217.692 234.82C222.427 234.82 226.025 232.76 228.487 228.641C230.949 224.498 232.192 218.828 232.216 211.631H231.719C230.63 213.761 229.162 215.596 227.315 217.135C225.469 218.65 223.35 219.822 220.959 220.651C218.591 221.479 216.07 221.893 213.395 221.893C209.11 221.893 205.286 220.887 201.925 218.875C198.563 216.863 195.911 214.093 193.97 210.565C192.029 207.038 191.058 203.013 191.058 198.491C191.035 193.615 192.159 189.27 194.432 185.459C196.705 181.647 199.877 178.664 203.949 176.51C208.045 174.332 212.803 173.255 218.224 173.278ZM218.331 185.352C215.94 185.352 213.809 185.92 211.939 187.057C210.092 188.193 208.625 189.72 207.536 191.638C206.47 193.555 205.949 195.698 205.973 198.065C205.973 200.456 206.494 202.611 207.536 204.528C208.601 206.422 210.045 207.937 211.868 209.074C213.714 210.187 215.821 210.743 218.189 210.743C219.964 210.743 221.61 210.411 223.125 209.749C224.64 209.086 225.954 208.174 227.067 207.014C228.203 205.83 229.091 204.469 229.73 202.93C230.369 201.392 230.689 199.758 230.689 198.03C230.665 195.733 230.121 193.626 229.055 191.709C227.99 189.791 226.522 188.252 224.652 187.092C222.782 185.932 220.675 185.352 218.331 185.352ZM297.734 233.364V229.528C297.734 226.616 298.35 223.941 299.581 221.503C300.836 219.041 302.647 217.076 305.014 215.608C307.405 214.116 310.317 213.371 313.75 213.371C317.23 213.371 320.154 214.105 322.521 215.572C324.912 217.04 326.712 219.005 327.919 221.467C329.15 223.906 329.766 226.593 329.766 229.528V233.364C329.766 236.276 329.15 238.963 327.919 241.425C326.688 243.863 324.877 245.816 322.486 247.284C320.095 248.776 317.183 249.521 313.75 249.521C310.27 249.521 307.346 248.776 304.979 247.284C302.611 245.816 300.812 243.863 299.581 241.425C298.35 238.963 297.734 236.276 297.734 233.364ZM308.068 229.528V233.364C308.068 235.045 308.471 236.631 309.276 238.122C310.104 239.614 311.596 240.359 313.75 240.359C315.904 240.359 317.372 239.625 318.153 238.158C318.958 236.69 319.361 235.092 319.361 233.364V229.528C319.361 227.8 318.982 226.19 318.224 224.699C317.467 223.207 315.975 222.462 313.75 222.462C311.619 222.462 310.14 223.207 309.311 224.699C308.482 226.19 308.068 227.8 308.068 229.528ZM260.412 191.744V187.909C260.412 184.973 261.039 182.286 262.294 179.848C263.549 177.386 265.36 175.421 267.727 173.953C270.118 172.485 273.007 171.751 276.392 171.751C279.896 171.751 282.831 172.485 285.199 173.953C287.566 175.421 289.366 177.386 290.597 179.848C291.828 182.286 292.443 184.973 292.443 187.909V191.744C292.443 194.68 291.816 197.367 290.561 199.805C289.33 202.244 287.519 204.197 285.128 205.665C282.76 207.109 279.848 207.831 276.392 207.831C272.936 207.831 270.012 207.097 267.621 205.629C265.253 204.138 263.454 202.185 262.223 199.77C261.016 197.331 260.412 194.656 260.412 191.744ZM270.817 187.909V191.744C270.817 193.473 271.219 195.071 272.024 196.538C272.853 198.006 274.309 198.74 276.392 198.74C278.57 198.74 280.05 198.006 280.831 196.538C281.636 195.071 282.038 193.473 282.038 191.744V187.909C282.038 186.181 281.66 184.571 280.902 183.08C280.144 181.588 278.641 180.842 276.392 180.842C274.285 180.842 272.829 181.6 272.024 183.115C271.219 184.63 270.817 186.228 270.817 187.909ZM265.099 247L315.099 174.273H324.403L274.403 247H265.099Z" fill="white"/>
</g>
<defs>
<linearGradient id="paint0_linear_34_21" x1="0.775119" y1="213.837" x2="427.59" y2="213.837" gradientUnits="userSpaceOnUse">
<stop stop-color="#ABF538"/>
<stop offset="1" stop-color="#FED919"/>
</linearGradient>
<clipPath id="clip0_34_21">
<rect width="428" height="428" fill="white"/>
</clipPath>
</defs>
</svg>
