<svg width="428" height="428" viewBox="0 0 428 428" fill="none" xmlns="http://www.w3.org/2000/svg">
<g opacity="0.4">
<mask id="mask0_35_2" style="mask-type:luminance" maskUnits="userSpaceOnUse" x="0" y="0" width="428" height="428">
<g opacity="0.4">
<path d="M0.790039 214C0.790039 331.86 96.34 427.41 214.2 427.41C332.07 427.41 427.61 331.86 427.61 214C427.61 155.4 403.99 102.33 365.75 63.76L341.93 87.23C374 119.54 393.82 164.03 393.82 213.15C393.82 311.89 313.78 391.93 215.04 391.93C116.3 391.93 36.26 311.89 36.26 213.15C36.26 114.42 116.3 34.37 215.04 34.37C261.76 34.37 304.28 52.31 336.13 81.66L358.96 57.22C320.92 22.07 270.07 0.590027 214.19 0.590027C96.34 0.590027 0.790039 96.13 0.790039 214Z" fill="white"/>
</g>
</mask>
<g mask="url(#mask0_35_2)">
<path d="M427.61 0.590027H0.790039V427.41H427.61V0.590027Z" fill="url(#paint0_linear_35_2)"/>
</g>
</g>
<path d="M90.5355 171.273V244H75.1591V185.868H74.733L58.0781 196.308V182.672L76.0824 171.273H90.5355ZM136.336 245.598C130.228 245.574 124.973 244.071 120.569 241.088C116.19 238.105 112.816 233.785 110.449 228.126C108.105 222.468 106.945 215.662 106.968 207.707C106.968 199.777 108.14 193.018 110.484 187.43C112.851 181.843 116.225 177.594 120.605 174.682C125.008 171.746 130.252 170.278 136.336 170.278C142.421 170.278 147.653 171.746 152.032 174.682C156.436 177.617 159.821 181.879 162.189 187.466C164.556 193.029 165.728 199.777 165.704 207.707C165.704 215.686 164.52 222.504 162.153 228.162C159.809 233.82 156.448 238.141 152.068 241.124C147.688 244.107 142.444 245.598 136.336 245.598ZM136.336 232.849C140.503 232.849 143.829 230.754 146.315 226.564C148.801 222.374 150.032 216.088 150.008 207.707C150.008 202.191 149.44 197.598 148.304 193.929C147.191 190.259 145.605 187.501 143.545 185.655C141.509 183.808 139.106 182.885 136.336 182.885C132.193 182.885 128.879 184.956 126.393 189.099C123.907 193.242 122.653 199.445 122.629 207.707C122.629 213.295 123.185 217.958 124.298 221.699C125.434 225.416 127.032 228.209 129.092 230.08C131.152 231.926 133.566 232.849 136.336 232.849ZM205.184 245.598C199.076 245.574 193.82 244.071 189.417 241.088C185.037 238.105 181.664 233.785 179.296 228.126C176.952 222.468 175.792 215.662 175.816 207.707C175.816 199.777 176.988 193.018 179.332 187.43C181.699 181.843 185.073 177.594 189.452 174.682C193.856 171.746 199.1 170.278 205.184 170.278C211.268 170.278 216.5 171.746 220.88 174.682C225.283 177.617 228.669 181.879 231.036 187.466C233.404 193.029 234.576 199.777 234.552 207.707C234.552 215.686 233.368 222.504 231.001 228.162C228.657 233.82 225.295 238.141 220.915 241.124C216.536 244.107 211.292 245.598 205.184 245.598ZM205.184 232.849C209.351 232.849 212.677 230.754 215.163 226.564C217.648 222.374 218.879 216.088 218.856 207.707C218.856 202.191 218.288 197.598 217.151 193.929C216.039 190.259 214.452 187.501 212.393 185.655C210.357 183.808 207.954 182.885 205.184 182.885C201.041 182.885 197.727 184.956 195.241 189.099C192.755 193.242 191.5 199.445 191.477 207.707C191.477 213.295 192.033 217.958 193.146 221.699C194.282 225.416 195.88 228.209 197.94 230.08C199.999 231.926 202.414 232.849 205.184 232.849ZM274.032 245.598C267.924 245.574 262.668 244.071 258.265 241.088C253.885 238.105 250.511 233.785 248.144 228.126C245.8 222.468 244.64 215.662 244.664 207.707C244.664 199.777 245.836 193.018 248.179 187.43C250.547 181.843 253.92 177.594 258.3 174.682C262.703 171.746 267.947 170.278 274.032 170.278C280.116 170.278 285.348 171.746 289.728 174.682C294.131 177.617 297.516 181.879 299.884 187.466C302.251 193.029 303.423 199.777 303.4 207.707C303.4 215.686 302.216 222.504 299.848 228.162C297.505 233.82 294.143 238.141 289.763 241.124C285.383 244.107 280.14 245.598 274.032 245.598ZM274.032 232.849C278.198 232.849 281.525 230.754 284.01 226.564C286.496 222.374 287.727 216.088 287.703 207.707C287.703 202.191 287.135 197.598 285.999 193.929C284.886 190.259 283.3 187.501 281.24 185.655C279.204 183.808 276.801 182.885 274.032 182.885C269.889 182.885 266.574 184.956 264.088 189.099C261.603 193.242 260.348 199.445 260.324 207.707C260.324 213.295 260.881 217.958 261.993 221.699C263.13 225.416 264.728 228.209 266.787 230.08C268.847 231.926 271.262 232.849 274.032 232.849ZM342.879 245.598C336.771 245.574 331.516 244.071 327.112 241.088C322.732 238.105 319.359 233.785 316.991 228.126C314.648 222.468 313.488 215.662 313.511 207.707C313.511 199.777 314.683 193.018 317.027 187.43C319.394 181.843 322.768 177.594 327.148 174.682C331.551 171.746 336.795 170.278 342.879 170.278C348.964 170.278 354.196 171.746 358.575 174.682C362.979 177.617 366.364 181.879 368.732 187.466C371.099 193.029 372.271 199.777 372.247 207.707C372.247 215.686 371.063 222.504 368.696 228.162C366.352 233.82 362.991 238.141 358.611 241.124C354.231 244.107 348.987 245.598 342.879 245.598ZM342.879 232.849C347.046 232.849 350.372 230.754 352.858 226.564C355.344 222.374 356.575 216.088 356.551 207.707C356.551 202.191 355.983 197.598 354.847 193.929C353.734 190.259 352.148 187.501 350.088 185.655C348.052 183.808 345.649 182.885 342.879 182.885C338.736 182.885 335.422 184.956 332.936 189.099C330.45 193.242 329.196 199.445 329.172 207.707C329.172 213.295 329.728 217.958 330.841 221.699C331.977 225.416 333.575 228.209 335.635 230.08C337.695 231.926 340.109 232.849 342.879 232.849Z" fill="white"/>
<defs>
<linearGradient id="paint0_linear_35_2" x1="0.775119" y1="213.837" x2="427.59" y2="213.837" gradientUnits="userSpaceOnUse">
<stop stop-color="#ABF538"/>
<stop offset="1" stop-color="#FED919"/>
</linearGradient>
</defs>
</svg>
