<svg width="428" height="428" viewBox="0 0 428 428" fill="none" xmlns="http://www.w3.org/2000/svg">
<g clip-path="url(#clip0_35_3)">
<g opacity="0.4">
<mask id="mask0_35_3" style="mask-type:luminance" maskUnits="userSpaceOnUse" x="0" y="0" width="428" height="428">
<g opacity="0.4">
<path d="M0.790039 214C0.790039 331.86 96.34 427.41 214.2 427.41C332.07 427.41 427.61 331.86 427.61 214C427.61 155.4 403.99 102.33 365.75 63.76L341.93 87.23C374 119.54 393.82 164.03 393.82 213.15C393.82 311.89 313.78 391.93 215.04 391.93C116.3 391.93 36.26 311.89 36.26 213.15C36.26 114.42 116.3 34.37 215.04 34.37C261.76 34.37 304.28 52.31 336.13 81.66L358.96 57.22C320.92 22.07 270.07 0.590027 214.19 0.590027C96.34 0.590027 0.790039 96.13 0.790039 214Z" fill="white"/>
</g>
</mask>
<g mask="url(#mask0_35_3)">
<path d="M427.61 0.590027H0.790039V427.41H427.61V0.590027Z" fill="url(#paint0_linear_35_3)"/>
</g>
</g>
<path d="M150.209 165.278C153.949 165.278 157.548 165.906 161.004 167.161C164.484 168.415 167.586 170.416 170.308 173.162C173.054 175.908 175.221 179.554 176.807 184.099C178.417 188.621 179.233 194.173 179.257 200.754C179.257 206.933 178.559 212.449 177.162 217.303C175.789 222.132 173.812 226.24 171.232 229.625C168.651 233.01 165.538 235.591 161.892 237.366C158.246 239.118 154.174 239.994 149.676 239.994C144.823 239.994 140.538 239.059 136.821 237.189C133.104 235.295 130.109 232.726 127.837 229.483C125.588 226.216 124.226 222.546 123.753 218.474H138.916C139.508 221.126 140.751 223.186 142.645 224.653C144.539 226.098 146.883 226.82 149.676 226.82C154.411 226.82 158.009 224.76 160.472 220.641C162.934 216.498 164.177 210.828 164.2 203.631H163.703C162.614 205.761 161.146 207.596 159.3 209.135C157.453 210.65 155.334 211.822 152.943 212.651C150.576 213.479 148.054 213.893 145.379 213.893C141.094 213.893 137.271 212.887 133.909 210.875C130.547 208.863 127.896 206.093 125.955 202.565C124.013 199.038 123.043 195.013 123.043 190.491C123.019 185.615 124.143 181.27 126.416 177.459C128.689 173.647 131.861 170.664 135.933 168.51C140.029 166.332 144.787 165.255 150.209 165.278ZM150.315 177.352C147.924 177.352 145.794 177.92 143.923 179.057C142.077 180.193 140.609 181.72 139.52 183.638C138.455 185.555 137.934 187.698 137.957 190.065C137.957 192.456 138.478 194.611 139.52 196.528C140.585 198.422 142.029 199.937 143.852 201.074C145.699 202.187 147.806 202.743 150.173 202.743C151.949 202.743 153.594 202.411 155.109 201.749C156.625 201.086 157.938 200.174 159.051 199.014C160.188 197.83 161.075 196.469 161.714 194.93C162.354 193.392 162.673 191.758 162.673 190.03C162.65 187.733 162.105 185.626 161.04 183.709C159.974 181.791 158.507 180.252 156.636 179.092C154.766 177.932 152.659 177.352 150.315 177.352ZM216.473 239.994C211.454 239.994 206.98 239.071 203.05 237.224C199.143 235.378 196.042 232.833 193.746 229.589C191.449 226.346 190.254 222.629 190.159 218.439H205.074C205.24 221.256 206.423 223.541 208.625 225.293C210.827 227.045 213.443 227.92 216.473 227.92C218.888 227.92 221.018 227.388 222.865 226.322C224.735 225.233 226.191 223.73 227.233 221.812C228.298 219.871 228.831 217.646 228.831 215.136C228.831 212.58 228.286 210.33 227.197 208.389C226.132 206.448 224.652 204.933 222.759 203.844C220.865 202.755 218.698 202.198 216.26 202.175C214.129 202.175 212.058 202.613 210.045 203.489C208.057 204.365 206.506 205.56 205.393 207.075L191.722 204.625L195.166 166.273H239.626V178.844H207.844L205.962 197.061H206.388C207.666 195.262 209.596 193.77 212.176 192.587C214.757 191.403 217.645 190.811 220.841 190.811C225.221 190.811 229.127 191.841 232.56 193.901C235.992 195.96 238.703 198.789 240.692 202.388C242.68 205.963 243.663 210.082 243.639 214.746C243.663 219.646 242.527 224.002 240.23 227.814C237.957 231.602 234.773 234.585 230.678 236.763C226.606 238.917 221.871 239.994 216.473 239.994ZM294.172 225.364V221.528C294.172 218.616 294.787 215.941 296.018 213.503C297.273 211.041 299.084 209.076 301.452 207.608C303.843 206.116 306.755 205.371 310.188 205.371C313.668 205.371 316.591 206.105 318.959 207.572C321.35 209.04 323.149 211.005 324.357 213.467C325.588 215.906 326.203 218.593 326.203 221.528V225.364C326.203 228.276 325.588 230.963 324.357 233.425C323.125 235.863 321.314 237.816 318.923 239.284C316.532 240.776 313.62 241.521 310.188 241.521C306.707 241.521 303.784 240.776 301.416 239.284C299.049 237.816 297.25 235.863 296.018 233.425C294.787 230.963 294.172 228.276 294.172 225.364ZM304.506 221.528V225.364C304.506 227.045 304.908 228.631 305.713 230.122C306.542 231.614 308.033 232.359 310.188 232.359C312.342 232.359 313.81 231.625 314.591 230.158C315.396 228.69 315.798 227.092 315.798 225.364V221.528C315.798 219.8 315.42 218.19 314.662 216.699C313.904 215.207 312.413 214.462 310.188 214.462C308.057 214.462 306.577 215.207 305.749 216.699C304.92 218.19 304.506 219.8 304.506 221.528ZM256.849 183.744V179.909C256.849 176.973 257.477 174.286 258.732 171.848C259.986 169.386 261.797 167.421 264.165 165.953C266.556 164.485 269.444 163.751 272.83 163.751C276.333 163.751 279.269 164.485 281.636 165.953C284.004 167.421 285.803 169.386 287.034 171.848C288.265 174.286 288.881 176.973 288.881 179.909V183.744C288.881 186.68 288.253 189.367 286.999 191.805C285.768 194.244 283.956 196.197 281.565 197.665C279.198 199.109 276.286 199.831 272.83 199.831C269.373 199.831 266.449 199.097 264.058 197.629C261.691 196.138 259.892 194.185 258.661 191.77C257.453 189.331 256.849 186.656 256.849 183.744ZM267.254 179.909V183.744C267.254 185.473 267.657 187.071 268.462 188.538C269.29 190.006 270.746 190.74 272.83 190.74C275.008 190.74 276.487 190.006 277.268 188.538C278.073 187.071 278.476 185.473 278.476 183.744V179.909C278.476 178.181 278.097 176.571 277.339 175.08C276.582 173.588 275.079 172.842 272.83 172.842C270.723 172.842 269.267 173.6 268.462 175.115C267.657 176.63 267.254 178.228 267.254 179.909ZM261.537 239L311.537 166.273H320.841L270.841 239H261.537Z" fill="white"/>
</g>
<defs>
<linearGradient id="paint0_linear_35_3" x1="0.775119" y1="213.837" x2="427.59" y2="213.837" gradientUnits="userSpaceOnUse">
<stop stop-color="#ABF538"/>
<stop offset="1" stop-color="#FED919"/>
</linearGradient>
<clipPath id="clip0_35_3">
<rect width="428" height="428" fill="white"/>
</clipPath>
</defs>
</svg>
