<svg width="121" height="126" viewBox="0 0 121 126" fill="none" xmlns="http://www.w3.org/2000/svg">
<path d="M94.58 125.17H27.57C21.26 125.17 16.13 120.04 16.13 113.74L6.64001 69.17C3.05001 67.39 0.700012 63.76 0.700012 59.71C0.700012 53.79 5.52001 48.98 11.43 48.98H109.44C115.35 48.98 120.17 53.79 120.17 59.71C120.17 63.17 118.5 66.34 115.7 68.34L105.95 114.46C106.02 120.04 100.89 125.17 94.58 125.17ZM11.42 56.02C9.39001 56.02 7.73001 57.68 7.73001 59.71C7.73001 61.32 8.89002 62.74 10.55 63.16C11.85 63.49 12.84 64.53 13.12 65.85L23.09 113.02C23.17 116.17 25.14 118.14 27.57 118.14H94.58C97.01 118.14 98.99 116.17 98.99 113.74L109.13 65.41C109.35 64.35 110.05 63.45 111.02 62.97C112.32 62.34 113.13 61.08 113.13 59.72C113.13 57.69 111.47 56.03 109.44 56.03H11.42V56.02Z" fill="white"/>
<path d="M27.1 36.41C29.45 20.05 43.48 7.46001 60.49 7.46001C77.5 7.46001 91.53 20.05 93.88 36.41C94.22 42 101.42 41.1 101.42 36.41C99.02 15.91 81.63 0 60.49 0C39.35 0 21.95 15.91 19.56 36.41C19.57 42.22 27.2 42.44 27.1 36.41Z" fill="white"/>
</svg>
