<svg width="131" height="153" viewBox="0 0 131 153" fill="none" xmlns="http://www.w3.org/2000/svg">
<path d="M0.710004 34.07C0.660004 34.31 0.660002 34.55 0.740002 34.78C0.900002 35.25 1.30999 35.61 1.78999 35.7C2.33999 35.8 15.22 38.23 22.29 35.83C26.55 34.41 28.92 32.34 29.49 29.49C29.75 28.19 29.67 26.74 29.14 25.08C28.5 23.11 27.54 20.92 25.33 19.8C23.4 18.83 20.94 18.9 17.78 19.97C10.7 22.36 1.39999 32.97 1.00999 33.42C0.849991 33.61 0.750004 33.84 0.710004 34.07ZM17.33 3.26C17.31 3.5 17.35 3.76001 17.45 3.99001C17.68 4.50001 23.03 16.44 29.01 20.91C34.26 24.83 38.41 24.68 41.69 20.36C42.52 19.25 43.43 17.86 43.75 16.26C44.33 13.37 42.89 10.68 39.38 8.04C33.4 3.58 19.41 2.12 18.81 2.06C18.32 2.01 17.84 2.20001 17.55 2.60001C17.4 2.80001 17.35 3.02 17.33 3.26ZM28.9 34.69C27.47 41.84 28.03 50.86 28.06 51.24C28.09 51.74 28.36 52.15 28.81 52.36C29.26 52.58 29.83 52.58 30.24 52.29C30.7 51.97 41.58 44.31 44.98 37.46C45.73 35.95 46.28 34.52 46.53 33.26C47.29 29.46 45.9 26.73 42.28 24.89C40.46 23.97 38.28 23.1 35.93 23.88C33.84 24.57 32.08 26.45 30.55 29.53C29.87 30.89 29.31 32.61 28.9 34.69ZM44.33 0.979998C44.24 1.2 44.22 1.52 44.26 1.76C44.35 2.31 46.46 15.23 51.09 21.09C55.16 26.24 59.19 27.17 63.46 23.84C64.96 22.67 66.56 21.19 67 18.98C67.46 16.71 66.67 14.2 64.45 11.39C59.82 5.53 46.72 0.409999 46.17 0.199999C45.71 0.0199992 45.18 0.139999 44.79 0.449999C44.6 0.609999 44.42 0.749998 44.33 0.979998ZM42.92 50.33C42.9 50.76 42.98 51.33 43.36 51.66C43.74 51.99 44.35 52.04 44.82 51.87C45.35 51.68 57.9 47.02 62.96 41.26C64.84 39.12 65.89 37.23 66.26 35.38C67.02 31.58 64.45 29.16 63.59 28.39C62.08 27.03 60.2 25.66 57.74 25.8C55.54 25.92 53.38 27.27 51.09 29.86C46.03 35.62 43.05 49.73 42.92 50.33ZM53.89 54.74C53.88 54.98 53.89 55.25 54.01 55.47C54.24 55.92 54.68 56.22 55.18 56.24C55.75 56.26 69.14 56.62 75.97 53.16C79.67 51.28 81.74 49.1 82.25 46.55C82.57 44.96 82.26 43.29 81.33 41.41C80.42 39.58 79.2 37.58 76.86 36.8C74.77 36.1 72.26 36.52 69.17 38.09C62.35 41.57 54.44 53.58 54.1 54.09C53.98 54.29 53.91 54.5 53.89 54.74ZM71.78 9.23C71.68 9.78 69.27 22.73 71.63 29.82C73.71 36.06 77.25 38.27 82.4 36.58C83.9 36.09 87.34 34.87 88.1 31.09C88.43 29.43 88.22 27.48 87.44 25.12C85.07 18.02 74.53 8.76 74.08 8.37C73.71 8.04 73.17 8.01999 72.7 8.17999C72.23 8.32999 71.9 8.65 71.78 9.23ZM65.73 62.34C65.66 62.57 65.7 62.81 65.76 63.05C65.88 63.54 66.23 63.91 66.71 64.04C67.26 64.19 80.23 67.67 87.67 65.86C92.45 64.71 95.06 62.54 95.69 59.42C95.92 58.29 95.89 57.13 95.56 55.68C95.1 53.68 94.35 51.44 92.25 50.15C90.37 48.99 87.82 48.84 84.48 49.65C77.05 51.44 66.57 61.3 66.13 61.72C65.94 61.88 65.8 62.1 65.73 62.34ZM92.24 50.14C93.47 51.08 95.13 51.6 97.16 51.66C99.28 51.71 104.29 51.86 105.55 45.56C105.72 44.7 105.77 43.67 105.79 42.6C105.94 35.13 99.18 22.8 98.89 22.28C98.65 21.85 98.11 21.59 97.61 21.58C97.11 21.57 96.65 21.88 96.4 22.31C96.19 22.67 91.14 31.31 89.7 38.49C89.47 39.63 89.35 40.74 89.32 41.69C89.25 45.78 90.19 48.56 92.24 50.14ZM73.7 73.76C73.69 74.26 73.91 74.7 74.35 74.95C74.84 75.23 86.51 81.92 94.15 82.11C99.98 82.26 103.38 80.19 104.21 76.08C104.33 75.48 104.38 74.89 104.4 74.26C104.46 72.21 104.25 69.84 102.55 68.05C101.04 66.46 98.69 65.69 95.25 65.61C87.6 65.43 74.94 72.2 74.4 72.49C73.96 72.73 73.71 73.25 73.7 73.76ZM80.65 89.4C80.59 89.9 80.79 90.36 81.19 90.66C81.65 90.99 92.57 98.79 100.15 99.77C106.49 100.57 110.02 98.63 110.99 93.8C111.04 93.55 111.1 93.3 111.14 93.03C111.17 92.8 111.17 92.57 111.19 92.33C113.52 104.23 116.21 126.34 110.36 150.74C113.46 154.9 116.28 149.45 116.28 149.45C116.28 149.45 123.09 115.35 112.81 90.45C113.21 90.77 113.65 91.04 114.14 91.34C115.88 92.4 117.99 93.45 120.38 92.86C122.52 92.33 124.42 90.64 126.2 87.66C127.35 85.73 128.3 82.93 129.01 79.38C130.29 73.02 130.44 66.32 130.45 66.04C130.46 65.54 130.16 65.09 129.72 64.83C129.28 64.57 128.74 64.56 128.31 64.81C127.82 65.1 116.29 72.01 112.36 78.6C110.89 81.06 110.2 83.19 110.18 85.06C109.81 84.4 109.47 83.71 109.08 83.07C109.08 83.07 109.52 84.61 110.08 86.9C110.03 86.83 110 86.77 109.94 86.7C108.6 84.96 106.31 83.86 102.9 83.43C95.32 82.46 82.06 88.02 81.49 88.25C81.04 88.43 80.72 88.9 80.65 89.4ZM101.59 63.07C101.24 66.95 103.01 69.5 106.83 70.93C108.75 71.63 111.01 72.2 113.24 71.15C115.24 70.21 116.77 68.18 117.94 64.93C118.2 64.22 118.41 63.49 118.57 62.67C120.08 55.12 118.01 43.48 117.92 42.99C117.83 42.49 117.54 42.1 117.07 41.93C116.6 41.77 116.07 41.85 115.69 42.18C115.27 42.56 105.23 51.54 102.63 58.76C102.06 60.36 101.71 61.78 101.59 63.07Z" fill="white"/>
</svg>
