<svg width="428" height="428" viewBox="0 0 428 428" fill="none" xmlns="http://www.w3.org/2000/svg">
<g clip-path="url(#clip0_35_3)">
<g opacity="0.4">
<mask id="mask0_35_3" style="mask-type:luminance" maskUnits="userSpaceOnUse" x="0" y="0" width="428" height="428">
<g opacity="0.4">
<path d="M0.790039 214C0.790039 331.86 96.34 427.41 214.2 427.41C332.07 427.41 427.61 331.86 427.61 214C427.61 155.4 403.99 102.33 365.75 63.76L341.93 87.23C374 119.54 393.82 164.03 393.82 213.15C393.82 311.89 313.78 391.93 215.04 391.93C116.3 391.93 36.26 311.89 36.26 213.15C36.26 114.42 116.3 34.37 215.04 34.37C261.76 34.37 304.28 52.31 336.13 81.66L358.96 57.22C320.92 22.07 270.07 0.590027 214.19 0.590027C96.34 0.590027 0.790039 96.13 0.790039 214Z" fill="white"/>
</g>
</mask>
<g mask="url(#mask0_35_3)">
<path d="M427.61 0.590027H0.790039V427.41H427.61V0.590027Z" fill="url(#paint0_linear_35_3)"/>
</g>
</g>
<path d="M124.536 171.273V244H109.159V185.868H108.733L92.0781 196.308V182.672L110.082 171.273H124.536ZM168.383 244.994C163.364 244.994 158.89 244.071 154.96 242.224C151.054 240.378 147.952 237.833 145.656 234.589C143.359 231.346 142.164 227.629 142.069 223.439H156.984C157.15 226.256 158.333 228.541 160.535 230.293C162.737 232.045 165.353 232.92 168.383 232.92C170.798 232.92 172.929 232.388 174.775 231.322C176.645 230.233 178.101 228.73 179.143 226.812C180.208 224.871 180.741 222.646 180.741 220.136C180.741 217.58 180.197 215.33 179.108 213.389C178.042 211.448 176.563 209.933 174.669 208.844C172.775 207.755 170.609 207.198 168.17 207.175C166.039 207.175 163.968 207.613 161.956 208.489C159.967 209.365 158.416 210.56 157.304 212.075L143.632 209.625L147.076 171.273H191.537V183.844H159.754L157.872 202.061H158.298C159.576 200.262 161.506 198.77 164.086 197.587C166.667 196.403 169.555 195.811 172.751 195.811C177.131 195.811 181.037 196.841 184.47 198.901C187.903 200.96 190.613 203.789 192.602 207.388C194.591 210.963 195.573 215.082 195.549 219.746C195.573 224.646 194.437 229.002 192.14 232.814C189.868 236.602 186.683 239.585 182.588 241.763C178.516 243.917 173.781 244.994 168.383 244.994ZM234.789 245.598C228.681 245.574 223.426 244.071 219.022 241.088C214.643 238.105 211.269 233.785 208.902 228.126C206.558 222.468 205.398 215.662 205.422 207.707C205.422 199.777 206.593 193.018 208.937 187.43C211.305 181.843 214.678 177.594 219.058 174.682C223.461 171.746 228.705 170.278 234.789 170.278C240.874 170.278 246.106 171.746 250.485 174.682C254.889 177.617 258.274 181.879 260.642 187.466C263.009 193.029 264.181 199.777 264.157 207.707C264.157 215.686 262.974 222.504 260.606 228.162C258.262 233.82 254.901 238.141 250.521 241.124C246.141 244.107 240.897 245.598 234.789 245.598ZM234.789 232.849C238.956 232.849 242.282 230.754 244.768 226.564C247.254 222.374 248.485 216.088 248.461 207.707C248.461 202.191 247.893 197.598 246.757 193.929C245.644 190.259 244.058 187.501 241.998 185.655C239.962 183.808 237.559 182.885 234.789 182.885C230.646 182.885 227.332 184.956 224.846 189.099C222.36 193.242 221.106 199.445 221.082 207.707C221.082 213.295 221.638 217.958 222.751 221.699C223.887 225.416 225.485 228.209 227.545 230.08C229.605 231.926 232.02 232.849 234.789 232.849ZM303.637 245.598C297.529 245.574 292.273 244.071 287.87 241.088C283.49 238.105 280.117 233.785 277.749 228.126C275.406 222.468 274.246 215.662 274.269 207.707C274.269 199.777 275.441 193.018 277.785 187.43C280.152 181.843 283.526 177.594 287.906 174.682C292.309 171.746 297.553 170.278 303.637 170.278C309.721 170.278 314.953 171.746 319.333 174.682C323.737 177.617 327.122 181.879 329.489 187.466C331.857 193.029 333.029 199.777 333.005 207.707C333.005 215.686 331.821 222.504 329.454 228.162C327.11 233.82 323.748 238.141 319.369 241.124C314.989 244.107 309.745 245.598 303.637 245.598ZM303.637 232.849C307.804 232.849 311.13 230.754 313.616 226.564C316.102 222.374 317.333 216.088 317.309 207.707C317.309 202.191 316.741 197.598 315.604 193.929C314.492 190.259 312.906 187.501 310.846 185.655C308.81 183.808 306.407 182.885 303.637 182.885C299.494 182.885 296.18 184.956 293.694 189.099C291.208 193.242 289.953 199.445 289.93 207.707C289.93 213.295 290.486 217.958 291.599 221.699C292.735 225.416 294.333 228.209 296.393 230.08C298.452 231.926 300.867 232.849 303.637 232.849Z" fill="white"/>
</g>
<defs>
<linearGradient id="paint0_linear_35_3" x1="0.775119" y1="213.837" x2="427.59" y2="213.837" gradientUnits="userSpaceOnUse">
<stop stop-color="#ABF538"/>
<stop offset="1" stop-color="#FED919"/>
</linearGradient>
<clipPath id="clip0_35_3">
<rect width="428" height="428" fill="white"/>
</clipPath>
</defs>
</svg>
