<?xml version="1.0" encoding="utf-8"?>
<!-- Generator: Adobe Illustrator 24.3.0, SVG Export Plug-In . SVG Version: 6.00 Build 0)  -->
<svg version="1.1" xmlns="http://www.w3.org/2000/svg" xmlns:xlink="http://www.w3.org/1999/xlink" x="0px" y="0px"
	 viewBox="0 0 100 100" style="enable-background:new 0 0 100 100;" xml:space="preserve">
<style type="text/css">
	.st0{display:none;}
	.st1{display:inline;}
	.st2{fill:#FFFFFF;}
	.st3{opacity:0.5;fill:#FFFFFF;}
</style>
<g id="Слой_1" class="st0">
	<g class="st1">
		<rect x="0.5" y="0.5" width="99" height="99"/>
		<path d="M99,1v98H1V1H99 M100,0H0v100h100V0L100,0z"/>
	</g>
</g>
<g id="Слой_2">
	<g>
		<path class="st2" d="M57.65,30.12c0-4.22-3.43-7.65-7.65-7.65s-7.65,3.43-7.65,7.65c0,4.22,3.43,7.65,7.65,7.65
			S57.65,34.33,57.65,30.12z M45.41,30.12c0-2.53,2.06-4.59,4.59-4.59s4.59,2.06,4.59,4.59c0,2.53-2.06,4.59-4.59,4.59
			S45.41,32.65,45.41,30.12z"/>
		<path class="st2" d="M49.96,75.36l1.19-1.45C51.98,72.9,71.48,48.9,71.41,33.2C71.36,20.54,61.75,10.23,50,10.23
			c-11.81,0-21.41,10.31-21.41,22.98c0,15.69,19.37,39.68,20.19,40.69L49.96,75.36z M50,13.29c10.07,0,18.31,8.94,18.35,19.93
			c0.05,12.48-14.13,31.76-18.38,37.25c-4.23-5.5-18.32-24.78-18.32-37.26C31.65,22.23,39.88,13.29,50,13.29z"/>
		<polygon class="st3" points="66.82,56.12 66.82,59.18 79.69,59.18 94.83,86.71 5.17,86.71 20.31,59.18 33.18,59.18 33.18,56.12 
			18.51,56.12 0,89.77 100,89.77 81.49,56.12 		"/>
	</g>
</g>
</svg>
