<?xml version="1.0" encoding="utf-8"?>
<!-- Generator: Adobe Illustrator 24.3.0, SVG Export Plug-In . SVG Version: 6.00 Build 0)  -->
<svg version="1.1" xmlns="http://www.w3.org/2000/svg" xmlns:xlink="http://www.w3.org/1999/xlink" x="0px" y="0px"
	 viewBox="0 0 500 500" style="enable-background:new 0 0 500 500;" xml:space="preserve">
<style type="text/css">
	.st0{display:none;}
	.st1{display:inline;}
	.st2{fill:#FFFFFF;}
</style>
<g id="Слой_2" class="st0">
	<rect class="st1" width="500" height="500"/>
</g>
<g id="Слой_1">
	<g>
		<path class="st2" d="M211.35,228.82c0,22.09,18.08,40.17,40.17,40.17c22.09,0,40.17-18.08,40.17-40.17s-18.08-40.17-40.17-40.17
			S211.35,206.73,211.35,228.82z M282.24,228.82c0,16.9-13.82,30.72-30.72,30.72s-30.72-13.82-30.72-30.72s13.82-30.72,30.72-30.72
			S282.24,211.93,282.24,228.82z"/>
		<path class="st2" d="M204.73,312c12.52-12.52,29.06-19.38,46.79-19.38s34.26,6.85,46.79,19.38l6.73-6.73
			c-14.3-14.18-33.32-22.09-53.52-22.09c-20.2,0-39.23,7.92-53.52,22.09L204.73,312z"/>
	</g>
</g>
</svg>
