<?xml version="1.0" encoding="utf-8"?>
<!-- Generator: Adobe Illustrator 24.3.0, SVG Export Plug-In . SVG Version: 6.00 Build 0)  -->
<svg version="1.1" id="Слой_1" xmlns="http://www.w3.org/2000/svg" xmlns:xlink="http://www.w3.org/1999/xlink" x="0px" y="0px"
	 viewBox="0 0 1920 1080" style="enable-background:new 0 0 1920 1080;" xml:space="preserve">
<style type="text/css">
	.st0{fill:#FFFFFF;}
	.st1{clip-path:url(#SVGID_2_);fill:#FFFFFF;}
	.st2{clip-path:url(#SVGID_4_);fill:#FFFFFF;}
	.st3{clip-path:url(#SVGID_6_);}
	.st4{font-family:'MyriadPro-Regular';}
	.st5{font-size:50.2825px;}
</style>
<rect x="857.65" y="484.41" class="st0" width="99.02" height="24.83"/>
<g>
	<defs>
		<rect id="SVGID_1_" x="184.86" y="163" width="1324.28" height="744.91"/>
	</defs>
	<clipPath id="SVGID_2_">
		<use xlink:href="#SVGID_1_"  style="overflow:visible;"/>
	</clipPath>
	<path class="st1" d="M577.6,495.2c0.74-1.76,1.62-3.37,2.63-4.85c1.02-1.48,2.36-2.73,4.02-3.74c1.66-1.02,3.72-1.8,6.17-2.36
		c2.45-0.55,5.57-0.83,9.36-0.83c2.31,0,4.55,0.12,6.73,0.35c2.17,0.23,4.21,0.74,6.1,1.53c1.89,0.79,3.65,1.97,5.27,3.54
		c1.62,1.57,2.98,3.7,4.09,6.38l35.92,86.4h-33.01l-7.63-19.97h-34.95l-7.63,19.97h-33.01L577.6,495.2z M589.8,539.44h19.97
		l-8.74-24.55c-0.19-0.37-0.39-0.81-0.62-1.32c-0.23-0.51-0.44-0.76-0.62-0.76c-0.19,0-0.39,0.26-0.62,0.76
		c-0.23,0.51-0.44,0.95-0.62,1.32L589.8,539.44z"/>
	<path class="st1" d="M662.32,557.47h53.81c2.31,0,3.79-0.32,4.44-0.97c0.65-0.65,0.97-1.34,0.97-2.08c0-1.57-0.65-2.66-1.94-3.26
		c-1.3-0.6-2.73-1.13-4.3-1.59l-37.58-10.54c-2.87-0.74-5.18-1.83-6.93-3.26c-1.76-1.43-3.14-2.8-4.16-4.09
		c-2.31-3.05-3.77-6.52-4.37-10.4c-0.6-3.88-0.9-7.63-0.9-11.23c0-3.05,0.3-6.33,0.9-9.85c0.6-3.51,2.33-6.7,5.2-9.57
		c1.57-1.57,3.7-2.98,6.38-4.23c2.68-1.25,6.1-1.87,10.26-1.87h64.07v24.13h-49.37c-1.85,0-3.1,0.05-3.74,0.14
		c-0.65,0.09-1.11,0.23-1.39,0.42c-1.02,0.55-1.52,1.43-1.52,2.63c0,1.57,0.9,2.73,2.7,3.47c1.8,0.74,3.63,1.34,5.48,1.8l32.73,8.74
		c2.13,0.55,4.46,1.39,7,2.5c2.54,1.11,4.69,2.54,6.45,4.3c1.48,1.48,2.68,3.17,3.61,5.06c0.92,1.9,1.6,3.84,2.01,5.82
		c0.42,1.99,0.69,3.95,0.83,5.89c0.14,1.94,0.21,3.74,0.21,5.41c0,2.87-0.23,6.06-0.69,9.57c-0.46,3.51-1.8,6.75-4.02,9.71
		c-1.39,1.85-2.87,3.28-4.44,4.3c-1.57,1.02-3.21,1.76-4.92,2.22c-1.71,0.46-3.42,0.74-5.13,0.83c-1.71,0.09-3.4,0.14-5.06,0.14
		h-66.57V557.47z"/>
	<path class="st1" d="M787.68,495.2c0.74-1.76,1.62-3.37,2.63-4.85c1.02-1.48,2.36-2.73,4.02-3.74c1.66-1.02,3.72-1.8,6.17-2.36
		c2.45-0.55,5.57-0.83,9.36-0.83c2.31,0,4.55,0.12,6.73,0.35c2.17,0.23,4.21,0.74,6.1,1.53c1.89,0.79,3.65,1.97,5.27,3.54
		c1.62,1.57,2.98,3.7,4.09,6.38l35.92,86.4h-33.01l-7.63-19.97H792.4l-7.63,19.97h-33.01L787.68,495.2z M799.89,539.44h19.97
		l-8.74-24.55c-0.19-0.37-0.39-0.81-0.62-1.32c-0.23-0.51-0.44-0.76-0.62-0.76c-0.19,0-0.39,0.26-0.62,0.76
		c-0.23,0.51-0.44,0.95-0.62,1.32L799.89,539.44z"/>
	<path class="st1" d="M982.7,494.64c0.74-1.76,1.62-3.39,2.65-4.87c1.02-1.48,2.37-2.74,4.04-3.76c1.67-1.02,3.74-1.81,6.2-2.37
		c2.46-0.56,5.59-0.84,9.4-0.84c2.32,0,4.57,0.12,6.75,0.35c2.18,0.23,4.22,0.74,6.13,1.53c1.9,0.79,3.67,1.97,5.29,3.55
		c1.62,1.58,2.99,3.71,4.11,6.41l36.06,86.75h-33.14l-7.66-20.05h-35.09l-7.66,20.05h-33.14L982.7,494.64z M994.95,539.06H1015
		l-8.77-24.65c-0.19-0.37-0.4-0.81-0.63-1.32c-0.23-0.51-0.44-0.77-0.63-0.77c-0.19,0-0.4,0.26-0.63,0.77
		c-0.23,0.51-0.44,0.95-0.63,1.32L994.95,539.06z"/>
	<path class="st1" d="M1155.27,566.77c0,3.25-0.58,5.76-1.74,7.52c-1.16,1.77-2.16,3.02-2.99,3.76c-2.69,2.23-6.17,3.34-10.44,3.34
		h-46.09c-3.99,0-8.29-0.67-12.88-2.02c-4.59-1.34-8.47-3.41-11.63-6.2c-2.69-2.32-4.8-5.13-6.34-8.42
		c-1.53-3.29-2.69-6.73-3.48-10.3c-0.79-3.57-1.3-7.19-1.53-10.86c-0.23-3.67-0.35-7.12-0.35-10.37c0-3.9,0.14-7.87,0.42-11.91
		c0.28-4.04,0.88-7.96,1.81-11.77c0.93-3.81,2.32-7.33,4.18-10.58c1.86-3.25,4.36-6.03,7.52-8.35c2.23-1.67,4.64-2.95,7.24-3.83
		c2.6-0.88,5.06-1.53,7.38-1.95c2.32-0.42,4.39-0.67,6.2-0.77c1.81-0.09,3.04-0.14,3.69-0.14h56.81v23.11h-42.61
		c-7.8,0-13.41,2.69-16.85,8.08c-1.67,2.69-2.67,5.62-2.99,8.77c-0.33,3.16-0.49,6.08-0.49,8.77c0,2.69,0.16,5.62,0.49,8.77
		c0.32,3.16,1.37,6.17,3.13,9.05c1.76,2.69,3.81,4.48,6.13,5.36c2.32,0.88,4.83,1.32,7.52,1.32h9.47c0.84,0,1.74-0.07,2.72-0.21
		c0.97-0.14,1.83-0.58,2.58-1.32c0.74-0.74,1.21-1.62,1.39-2.65c0.18-1.02,0.28-2.04,0.28-3.06v-20.05h31.47V566.77z"/>
</g>
<g>
	<defs>
		<path id="SVGID_3_" d="M908.78,521.7L908.78,521.7C908.79,521.69,908.79,521.69,908.78,521.7c0.06-0.06,0.1-0.12,0.15-0.17
			c0.5-0.47,1.53-0.6,1.97-0.64c1.43,0.02,3.65,0.04,5.13,0.05c0.24,0,0.47,0,0.66,0.01c0.43,0.03,1,0.12,1.51,0.37
			c0.19,0.12,0.36,0.23,0.36,0.23s2.42,1.5,2.96,1.84c0.54,0.33,0.63,1.67,0.63,1.67s0.03,3.18,0.09,3.93
			c0.06,0.74,0.37,1.05,0.09,1.92c-0.27,1-5.2,0.84-5.2,0.84s-3.05-0.08-4.39-1.42c0,0-3.86-2.84-6.55-4.35c0,0-0.27-0.2-0.73-0.47
			c-0.09-0.21-0.07-0.42,0.04-0.62c0.1-0.19,0.7-0.71,1.13-1.06c0.12-0.09,0.26-0.2,0.41-0.33c0,0,0.01,0,0.01,0s0,0,0,0
			C907.6,522.99,908.28,522.26,908.78,521.7 M895.13,516.85l-4.71,0.01c0,0-0.58-0.11-1,0.55c-0.42,0.66-0.37,1.14-0.37,1.14v2.71
			c0,0-0.36-0.01-0.36,0.37c0,0.23,0.22,0.38,0.27,0.38v0.91c-0.01,0-0.01,0.01-0.02,0.01c-0.01,0.01-0.03,0.01-0.05,0.02
			c-0.01,0-0.02,0.01-0.03,0.01c-0.01,0-0.02,0.01-0.03,0.01c-0.01,0-0.02,0-0.02,0.01c-0.01,0-0.03,0.01-0.04,0.01
			c-0.02,0.01-0.04,0.01-0.07,0.02c0,0,0,0-0.01,0c-0.02,0.01-0.04,0.01-0.06,0.02c-1.69,0.47-2.5,8.78-2.85,11.07
			c-0.36,2.3,0,3.21,0,3.21c0.45,0.75,0.45,1.56,0.45,1.56v35.63c0,1.09,0.09,1.17,0.99,4.18c0.9,3.01,2.86,3.01,2.86,3.01h33.09
			c0,0,1.97,0,3.41-1.67c1.82-2.12,1.7-4.93,1.7-4.93l0.09-36.63v-0.11c0.02-0.02,0.04-0.03,0.04-0.03s0,0,0,0
			c0.11-0.01,0.44-0.12,0.59-1.17c0.42-2.92-0.99-3.76-1.7-4.1c-0.72-0.33-1.08-0.67-1.08-1.42c0-0.75,0.39-0.83,0.45-1.94
			c0,0-0.06-4.03,0-4.99c-0.43-3.19-1.08-3.43-3.59-5.43c-2.51-2.01-5.08-2.34-5.08-2.34s-6.67-0.08-8.64,0
			c-1.97,0.08-2.24,0.64-2.24,0.64s-3.23,3.45-4.57,4.62c-0.32,0.28-0.56,0.46-0.76,0.59c-0.1,0.06-0.45,0.21-0.45-0.37v-0.4
			c0.04,0,0.27-0.15,0.27-0.38c0-0.38-0.36-0.37-0.36-0.37v-2.71c0,0,0.05-0.48-0.37-1.14c-0.42-0.66-1-0.55-1-0.55l-4.75-0.01
			V516.85z"/>
	</defs>
	<use xlink:href="#SVGID_3_"  style="overflow:visible;fill:#FFFFFF;"/>
	<clipPath id="SVGID_4_">
		<use xlink:href="#SVGID_3_"  style="overflow:visible;"/>
	</clipPath>
	<rect x="885.43" y="516.73" class="st2" width="43.99" height="64.94"/>
</g>
<g>
	<defs>
		<rect id="SVGID_5_" x="184.86" y="163" width="1324.28" height="744.91"/>
	</defs>
	<clipPath id="SVGID_6_">
		<use xlink:href="#SVGID_5_"  style="overflow:visible;"/>
	</clipPath>
	<path class="st3" d="M893.08,558.58c0,0,0.98,3.01,0.49,8.39s2.45,11.89,9.44,11.54c0,0,0-5.88-5.95-15.11
		c0,0,6.58,6.58,9.02,13.43c0,0,5.61-7.89-0.98-12.38C903.57,563.41,895.38,560.47,893.08,558.58"/>
	<path class="st3" d="M920.97,542.95c0,0-4.41,2.52-7.34,3.92c-2.94,1.4-9.3,5.32-10.84,6.64c-1.54,1.33-3.43,4.41-3.64,6.5
		c0,0,6.19,1.71,8.53,5.46c0,0,3.64-8.18,3.85-8.53s2.41-3.81,3.99-5.6c0,0-7.55,14.62-7.13,25.6c0,0,11.11-0.55,13.08-11.33
		c1.19-6.5-0.42-12.8-0.42-12.8S920.17,546.13,920.97,542.95"/>
</g>
<rect x="1174.6" y="448.35" class="st0" width="4.97" height="175.47"/>
<text transform="matrix(1 0 0 1 1193.4395 521.3687)"><tspan x="0" y="0" class="st0 st4 st5">Территория </tspan><tspan x="0" y="60.34" class="st0 st4 st5">счастливого фермера</tspan></text>
</svg>
