<svg width="253" height="42" viewBox="0 0 253 42" fill="none" xmlns="http://www.w3.org/2000/svg">
<path d="M170.96 1.51001H130.18V11.74H170.96V1.51001Z" fill="white"/>
<path d="M14.84 5.95C15.14 5.23 15.51 4.56 15.93 3.95C16.35 3.34 16.9 2.83 17.59 2.41C18.28 1.99 19.12 1.67 20.13 1.44C21.14 1.21 22.42 1.10001 23.99 1.10001C24.94 1.10001 25.86 1.15001 26.76 1.24001C27.65 1.34001 28.49 1.55 29.27 1.87C30.05 2.19 30.77 2.68 31.44 3.33C32.11 3.98 32.67 4.85001 33.13 5.96001L47.92 41.54H34.33L31.19 33.32H16.8L13.66 41.54H0.0699921L14.84 5.95ZM19.87 24.18H28.09L24.49 14.07C24.41 13.92 24.33 13.74 24.23 13.53C24.13 13.32 24.05 13.22 23.97 13.22C23.89 13.22 23.81 13.33 23.71 13.53C23.61 13.74 23.53 13.92 23.45 14.07L19.87 24.18Z" fill="white"/>
<path d="M49.73 31.6H71.89C72.84 31.6 73.45 31.47 73.72 31.2C73.99 30.93 74.12 30.65 74.12 30.34C74.12 29.69 73.85 29.25 73.32 29C72.79 28.75 72.2 28.53 71.55 28.34L56.07 24C54.89 23.7 53.94 23.25 53.21 22.66C52.49 22.07 51.92 21.51 51.5 20.98C50.55 19.72 49.95 18.3 49.7 16.7C49.45 15.1 49.33 13.56 49.33 12.07C49.33 10.81 49.45 9.45999 49.7 8.00999C49.95 6.55999 50.66 5.25001 51.84 4.07001C52.49 3.42001 53.36 2.84 54.47 2.33C55.57 1.82 56.98 1.56 58.7 1.56H85.09V11.5H64.76C64 11.5 63.48 11.52 63.22 11.56C62.95 11.6 62.76 11.66 62.65 11.73C62.23 11.96 62.02 12.32 62.02 12.82C62.02 13.47 62.39 13.94 63.13 14.25C63.87 14.56 64.62 14.8 65.39 14.99L78.87 18.59C79.75 18.82 80.71 19.16 81.75 19.62C82.8 20.08 83.68 20.67 84.41 21.39C85.02 22 85.51 22.69 85.89 23.47C86.27 24.25 86.55 25.05 86.72 25.87C86.89 26.69 87.01 27.5 87.06 28.3C87.12 29.1 87.15 29.84 87.15 30.53C87.15 31.71 87.05 33.02 86.86 34.47C86.67 35.92 86.12 37.25 85.2 38.47C84.63 39.23 84.02 39.82 83.37 40.24C82.72 40.66 82.05 40.96 81.34 41.15C80.63 41.34 79.93 41.46 79.23 41.49C78.52 41.53 77.83 41.55 77.15 41.55H49.73V31.6Z" fill="white"/>
<path d="M101.37 5.95C101.67 5.23 102.04 4.56 102.46 3.95C102.88 3.34 103.43 2.83 104.12 2.41C104.81 1.99 105.65 1.67 106.66 1.44C107.67 1.21 108.95 1.10001 110.52 1.10001C111.47 1.10001 112.39 1.15001 113.29 1.24001C114.18 1.34001 115.02 1.55 115.8 1.87C116.58 2.19 117.3 2.68 117.97 3.33C118.64 3.98 119.2 4.85001 119.66 5.96001L134.45 41.54H120.86L117.72 33.32H103.33L100.19 41.54H86.6L101.37 5.95ZM106.39 24.18H114.61L111.01 14.07C110.93 13.92 110.85 13.74 110.75 13.53C110.65 13.32 110.57 13.22 110.49 13.22C110.41 13.22 110.33 13.33 110.23 13.53C110.13 13.74 110.05 13.92 109.97 14.07L106.39 24.18Z" fill="white"/>
<path d="M181.69 5.72C182 4.99 182.36 4.32001 182.78 3.71001C183.2 3.10001 183.76 2.58 184.44 2.16C185.13 1.74 185.98 1.41 186.99 1.19C188 0.960002 189.29 0.850006 190.86 0.850006C191.82 0.850006 192.74 0.900005 193.64 0.990005C194.54 1.09001 195.38 1.3 196.16 1.62C196.94 1.95 197.67 2.43 198.34 3.08C199.01 3.73 199.57 4.61 200.03 5.72L214.88 41.45H201.23L198.08 33.19H183.63L180.48 41.45H166.83L181.69 5.72ZM186.74 24.02H195L191.39 13.87C191.31 13.72 191.23 13.54 191.13 13.33C191.03 13.12 190.95 13.01 190.87 13.01C190.79 13.01 190.71 13.12 190.61 13.33C190.51 13.54 190.43 13.72 190.35 13.87L186.74 24.02Z" fill="white"/>
<path d="M252.77 35.43C252.77 36.77 252.53 37.8 252.05 38.53C251.57 39.26 251.16 39.77 250.82 40.08C249.71 41 248.28 41.46 246.52 41.46H227.54C225.9 41.46 224.13 41.18 222.23 40.63C220.34 40.08 218.74 39.22 217.44 38.08C216.33 37.12 215.46 35.97 214.83 34.61C214.2 33.25 213.72 31.84 213.4 30.37C213.07 28.9 212.86 27.41 212.77 25.9C212.67 24.39 212.63 22.97 212.63 21.63C212.63 20.02 212.69 18.39 212.8 16.73C212.91 15.07 213.16 13.45 213.55 11.88C213.93 10.31 214.51 8.86 215.27 7.52C216.03 6.18 217.07 5.04 218.37 4.08C219.29 3.39 220.28 2.87 221.35 2.5C222.42 2.14 223.43 1.87 224.39 1.7C225.35 1.53 226.2 1.42 226.94 1.38C227.69 1.34 228.19 1.32001 228.46 1.32001H251.86V10.84H234.3C231.09 10.84 228.78 11.95 227.36 14.17C226.67 15.28 226.26 16.48 226.13 17.78C226 19.08 225.93 20.28 225.93 21.39C225.93 22.5 226 23.7 226.13 25C226.26 26.3 226.69 27.54 227.42 28.73C228.15 29.84 228.99 30.58 229.94 30.94C230.9 31.3 231.93 31.48 233.04 31.48H236.94C237.28 31.48 237.66 31.45 238.06 31.39C238.46 31.33 238.81 31.15 239.12 30.85C239.43 30.54 239.62 30.18 239.69 29.76C239.77 29.34 239.8 28.92 239.8 28.5V20.24H252.76V35.43H252.77Z" fill="white"/>
<mask id="mask0_2_223" style="mask-type:luminance" maskUnits="userSpaceOnUse" x="141" y="14" width="19" height="28">
<path d="M151.25 16.87C151.25 16.86 151.25 16.87 151.25 16.87C151.27 16.84 151.29 16.82 151.31 16.8C151.52 16.61 151.94 16.55 152.12 16.54C152.71 16.55 153.62 16.56 154.23 16.56C154.33 16.56 154.42 16.56 154.5 16.56C154.68 16.57 154.91 16.61 155.12 16.71C155.2 16.76 155.27 16.8 155.27 16.8C155.27 16.8 156.27 17.42 156.49 17.56C156.71 17.7 156.75 18.25 156.75 18.25C156.75 18.25 156.76 19.56 156.79 19.87C156.82 20.18 156.94 20.3 156.83 20.66C156.72 21.07 154.69 21 154.69 21C154.69 21 153.43 20.97 152.88 20.41C152.88 20.41 151.29 19.24 150.18 18.62C150.18 18.62 150.07 18.54 149.88 18.43C149.84 18.34 149.85 18.26 149.9 18.17C149.94 18.09 150.19 17.88 150.36 17.73C150.41 17.69 150.47 17.65 150.53 17.59C150.76 17.4 151.04 17.1 151.25 16.87ZM145.62 14.87H143.68C143.68 14.87 143.44 14.82 143.27 15.09C143.1 15.36 143.12 15.56 143.12 15.56V16.68C143.12 16.68 142.97 16.67 142.97 16.83C142.97 16.93 143.06 16.99 143.08 16.99V17.36C143.08 17.36 143.08 17.36 143.07 17.36C143.06 17.36 143.06 17.37 143.05 17.37H143.04H143.03H143.02C143.01 17.37 143.01 17.37 143 17.37C142.99 17.37 142.98 17.37 142.97 17.38C142.96 17.38 142.95 17.39 142.94 17.39C142.24 17.58 141.91 21 141.76 21.95C141.61 22.9 141.76 23.27 141.76 23.27C141.94 23.58 141.94 23.91 141.94 23.91V38.58C141.94 39.03 141.98 39.06 142.35 40.3C142.72 41.54 143.53 41.54 143.53 41.54H157.16C157.16 41.54 157.97 41.54 158.56 40.85C159.31 39.98 159.26 38.82 159.26 38.82L159.3 23.74V23.69C159.31 23.68 159.31 23.68 159.31 23.68C159.35 23.68 159.49 23.63 159.55 23.2C159.72 22 159.14 21.65 158.85 21.51C158.55 21.37 158.41 21.23 158.41 20.93C158.41 20.62 158.57 20.59 158.59 20.13C158.59 20.13 158.57 18.47 158.59 18.07C158.41 16.76 158.15 16.66 157.11 15.83C156.08 15 155.02 14.87 155.02 14.87C155.02 14.87 152.27 14.84 151.46 14.87C150.65 14.9 150.54 15.13 150.54 15.13C150.54 15.13 149.21 16.55 148.66 17.03C148.53 17.14 148.43 17.22 148.35 17.27C148.31 17.29 148.16 17.36 148.16 17.12V16.96C148.18 16.96 148.27 16.9 148.27 16.8C148.27 16.64 148.12 16.65 148.12 16.65V15.53C148.12 15.53 148.14 15.33 147.97 15.06C147.8 14.79 147.56 14.84 147.56 14.84L145.62 14.87Z" fill="white"/>
</mask>
<g mask="url(#mask0_2_223)">
<path d="M159.75 14.82H141.63V41.57H159.75V14.82Z" fill="url(#paint0_linear_2_223)"/>
</g>
<path d="M144.78 32.06C144.78 32.06 145.18 33.3 144.98 35.52C144.78 37.74 145.99 40.42 148.87 40.27C148.87 40.27 148.87 37.85 146.42 34.05C146.42 34.05 149.13 36.76 150.14 39.58C150.14 39.58 152.45 36.33 149.74 34.48C149.1 34.05 145.73 32.84 144.78 32.06Z" fill="black"/>
<path d="M156.26 25.62C156.26 25.62 154.45 26.66 153.24 27.23C152.03 27.8 149.41 29.42 148.77 29.97C148.14 30.52 147.36 31.78 147.27 32.65C147.27 32.65 149.82 33.36 150.78 34.9C150.78 34.9 152.28 31.53 152.36 31.39C152.45 31.25 153.35 29.82 154 29.09C154 29.09 150.89 35.11 151.06 39.63C151.06 39.63 155.64 39.4 156.45 34.96C156.94 32.28 156.28 29.69 156.28 29.69C156.28 29.69 155.93 26.93 156.26 25.62Z" fill="black"/>
<defs>
<linearGradient id="paint0_linear_2_223" x1="141.679" y1="28.1581" x2="159.577" y2="28.1581" gradientUnits="userSpaceOnUse">
<stop stop-color="#ABF538"/>
<stop offset="1" stop-color="#FED919"/>
</linearGradient>
</defs>
</svg>
