<?xml version="1.0" encoding="utf-8"?>
<!-- Generator: Adobe Illustrator 24.3.0, SVG Export Plug-In . SVG Version: 6.00 Build 0)  -->
<svg version="1.1" id="Слой_1" xmlns="http://www.w3.org/2000/svg" xmlns:xlink="http://www.w3.org/1999/xlink" x="0px" y="0px"
	 viewBox="0 0 500 83" style="enable-background:new 0 0 500 83;" xml:space="preserve">
<style type="text/css">
	.st0{display:none;}
	.st1{fill:#FFFFFF;}
	.st2{clip-path:url(#SVGID_3_);fill:url(#SVGID_4_);}
</style>
<rect x="0" y="-207" class="st0" width="500" height="500"/>
<rect x="279.83" y="2.8" class="st1" width="2.21" height="78.13"/>
<g>
	<g>
		<path class="st1" d="M293.43,21.92h-4.61v-1.66h11.22v1.66h-4.63v13.49h-1.98V21.92z"/>
		<path class="st1" d="M300.69,30.33c0.04,2.67,1.75,3.78,3.73,3.78c1.42,0,2.27-0.25,3.01-0.56l0.34,1.42
			c-0.7,0.31-1.89,0.67-3.62,0.67c-3.35,0-5.35-2.2-5.35-5.48c0-3.28,1.93-5.87,5.1-5.87c3.55,0,4.5,3.12,4.5,5.12
			c0,0.4-0.04,0.72-0.07,0.92H300.69z M306.49,28.91c0.02-1.26-0.52-3.21-2.74-3.21c-2,0-2.88,1.84-3.03,3.21H306.49z"/>
		<path class="st1" d="M310.85,28.08c0-1.39-0.04-2.52-0.09-3.55h1.78l0.09,1.87h0.04c0.81-1.33,2.09-2.11,3.87-2.11
			c2.63,0,4.61,2.23,4.61,5.53c0,3.91-2.38,5.84-4.94,5.84c-1.44,0-2.7-0.63-3.35-1.71h-0.04v5.91h-1.96V28.08z M312.81,30.98
			c0,0.29,0.04,0.56,0.09,0.81c0.36,1.37,1.55,2.31,2.97,2.31c2.09,0,3.3-1.71,3.3-4.2c0-2.18-1.15-4.05-3.24-4.05
			c-1.35,0-2.61,0.97-2.99,2.45c-0.07,0.25-0.13,0.54-0.13,0.81V30.98z"/>
		<path class="st1" d="M323.64,28.08c0-1.39-0.04-2.52-0.09-3.55h1.78l0.09,1.87h0.04c0.81-1.33,2.09-2.11,3.87-2.11
			c2.63,0,4.61,2.23,4.61,5.53c0,3.91-2.38,5.84-4.94,5.84c-1.44,0-2.7-0.63-3.35-1.71h-0.05v5.91h-1.96V28.08z M325.6,30.98
			c0,0.29,0.05,0.56,0.09,0.81c0.36,1.37,1.55,2.31,2.97,2.31c2.09,0,3.3-1.71,3.3-4.2c0-2.18-1.15-4.05-3.24-4.05
			c-1.35,0-2.61,0.97-2.99,2.45c-0.07,0.25-0.14,0.54-0.14,0.81V30.98z"/>
		<path class="st1" d="M338.25,24.53v4.58c0,1.73-0.02,2.81-0.11,4.36l0.07,0.02c0.65-1.33,1.03-2.09,1.75-3.35l3.39-5.62h2.32
			v10.88h-1.89V30.8c0-1.78,0.04-2.7,0.13-4.45h-0.07c-0.7,1.39-1.17,2.27-1.8,3.37c-1.03,1.69-2.23,3.78-3.39,5.69h-2.27V24.53
			H338.25z"/>
		<path class="st1" d="M356.17,24.53v1.57h-3.39v9.31h-1.96V26.1h-3.39v-1.57H356.17z"/>
		<path class="st1" d="M367.45,29.88c0,4.02-2.79,5.78-5.42,5.78c-2.94,0-5.21-2.16-5.21-5.6c0-3.64,2.38-5.78,5.39-5.78
			C365.34,24.28,367.45,26.55,367.45,29.88z M358.82,29.99c0,2.38,1.37,4.18,3.3,4.18c1.89,0,3.3-1.78,3.3-4.23
			c0-1.84-0.92-4.18-3.26-4.18C359.83,25.76,358.82,27.92,358.82,29.99z"/>
		<path class="st1" d="M369.95,28.08c0-1.39-0.04-2.52-0.09-3.55h1.78l0.09,1.87h0.04c0.81-1.33,2.09-2.11,3.87-2.11
			c2.63,0,4.61,2.23,4.61,5.53c0,3.91-2.38,5.84-4.94,5.84c-1.44,0-2.7-0.63-3.35-1.71h-0.05v5.91h-1.96V28.08z M371.9,30.98
			c0,0.29,0.05,0.56,0.09,0.81c0.36,1.37,1.55,2.31,2.97,2.31c2.09,0,3.3-1.71,3.3-4.2c0-2.18-1.15-4.05-3.24-4.05
			c-1.35,0-2.61,0.97-2.99,2.45c-0.07,0.25-0.14,0.54-0.14,0.81V30.98z"/>
		<path class="st1" d="M384.56,24.53v4.58c0,1.73-0.02,2.81-0.11,4.36l0.07,0.02c0.65-1.33,1.03-2.09,1.75-3.35l3.39-5.62h2.32
			v10.88h-1.89V30.8c0-1.78,0.04-2.7,0.13-4.45h-0.07c-0.7,1.39-1.17,2.27-1.8,3.37c-1.03,1.69-2.23,3.78-3.39,5.69h-2.27V24.53
			H384.56z"/>
		<path class="st1" d="M403.21,35.41h-1.96v-4.56h-1.46c-0.83,0-1.39,0.22-1.82,0.61c-0.81,0.65-1.1,2-1.53,3.06
			c-0.13,0.34-0.29,0.63-0.45,0.9h-2.11c0.25-0.36,0.47-0.76,0.67-1.24c0.47-1.06,0.74-2.47,1.71-3.28
			c0.34-0.29,0.74-0.54,1.24-0.63v-0.07c-1.42-0.16-2.88-1.03-2.88-2.7c0-1.12,0.61-1.89,1.44-2.36c0.9-0.52,2.22-0.74,3.64-0.74
			c1.3,0,2.56,0.11,3.51,0.22V35.41z M401.26,25.83c-0.49-0.07-0.94-0.11-1.64-0.11c-1.35,0-2.94,0.38-2.94,1.89
			c0,1.39,1.73,1.89,2.9,1.89c0.81,0,1.24,0,1.69,0V25.83z"/>
		<path class="st1" d="M298.24,61.98c-0.52,0.27-1.66,0.63-3.12,0.63c-3.28,0-5.42-2.22-5.42-5.55c0-3.35,2.29-5.78,5.84-5.78
			c1.17,0,2.2,0.29,2.74,0.56l-0.45,1.53c-0.47-0.27-1.21-0.52-2.29-0.52c-2.5,0-3.84,1.84-3.84,4.11c0,2.52,1.62,4.07,3.78,4.07
			c1.12,0,1.87-0.29,2.43-0.54L298.24,61.98z"/>
		<path class="st1" d="M302.22,51.5v3.57c0,1.37,0.52,2.32,2.25,2.32c0.85,0,1.73-0.32,2.34-0.76V51.5h1.96v10.88h-1.96v-4.36h-0.04
			c-0.74,0.49-1.91,0.83-2.94,0.83c-2.07,0-3.57-1.06-3.57-3.55v-3.8H302.22z"/>
		<path class="st1" d="M318.02,62.38l-0.16-1.37h-0.07c-0.61,0.85-1.78,1.62-3.33,1.62c-2.2,0-3.33-1.55-3.33-3.12
			c0-2.63,2.34-4.07,6.54-4.05v-0.22c0-0.9-0.25-2.52-2.47-2.52c-1.01,0-2.07,0.32-2.83,0.81l-0.45-1.3c0.9-0.58,2.2-0.97,3.57-0.97
			c3.33,0,4.13,2.27,4.13,4.45v4.07c0,0.94,0.04,1.87,0.18,2.61H318.02z M317.73,56.83c-2.16-0.04-4.61,0.34-4.61,2.45
			c0,1.28,0.85,1.89,1.87,1.89c1.42,0,2.32-0.9,2.63-1.82c0.07-0.2,0.11-0.43,0.11-0.63V56.83z"/>
		<path class="st1" d="M330.59,61.98c-0.52,0.27-1.66,0.63-3.12,0.63c-3.28,0-5.42-2.22-5.42-5.55c0-3.35,2.29-5.78,5.84-5.78
			c1.17,0,2.2,0.29,2.74,0.56l-0.45,1.53c-0.47-0.27-1.21-0.52-2.29-0.52c-2.5,0-3.84,1.84-3.84,4.11c0,2.52,1.62,4.07,3.78,4.07
			c1.12,0,1.87-0.29,2.43-0.54L330.59,61.98z"/>
		<path class="st1" d="M340.61,51.5v1.57h-3.39v9.3h-1.96v-9.3h-3.39V51.5H340.61z"/>
		<path class="st1" d="M350.35,51.5v10.88h-1.96v-9.33h-3.73v2.83c0,3.06-0.29,5.1-1.71,6.02c-0.54,0.43-1.15,0.67-2.16,0.67
			l-0.2-1.55c0.38-0.07,0.81-0.22,1.08-0.45c1.01-0.74,1.12-2.27,1.12-4.7V51.5H350.35z"/>
		<path class="st1" d="M355.4,51.5v4.59c0,1.73-0.02,2.81-0.11,4.36l0.07,0.02c0.65-1.33,1.03-2.09,1.75-3.35l3.39-5.62h2.32v10.88
			h-1.89v-4.61c0-1.78,0.04-2.7,0.13-4.45H361c-0.7,1.39-1.17,2.27-1.8,3.37c-1.03,1.69-2.23,3.78-3.39,5.69h-2.27V51.5H355.4z"/>
		<path class="st1" d="M365.99,51.64c0.76-0.14,2.18-0.25,3.46-0.25c1.82,0,4.83,0.29,4.83,2.72c0,1.35-1.03,2.18-2.27,2.45v0.04
			c1.6,0.22,2.76,1.12,2.76,2.7c0,2.85-3.6,3.21-5.73,3.21c-1.21,0-2.47-0.09-3.06-0.13V51.64z M367.86,61.08
			c0.56,0.07,0.97,0.09,1.6,0.09c1.33,0,3.3-0.31,3.3-1.89s-1.57-1.91-3.46-1.91h-1.44V61.08z M367.88,56.07h1.48
			c1.46,0,2.97-0.43,2.97-1.71c0-1.08-0.94-1.6-2.92-1.6c-0.65,0-1.06,0.04-1.53,0.09V56.07z"/>
		<path class="st1" d="M387.12,56.85c0,4.02-2.79,5.78-5.42,5.78c-2.94,0-5.21-2.16-5.21-5.6c0-3.64,2.38-5.78,5.39-5.78
			C385.01,51.25,387.12,53.53,387.12,56.85z M378.49,56.96c0,2.38,1.37,4.18,3.3,4.18c1.89,0,3.3-1.78,3.3-4.23
			c0-1.84-0.92-4.18-3.26-4.18C379.5,52.74,378.49,54.9,378.49,56.96z"/>
		<path class="st1" d="M396.25,51.5v1.6h-4.72v9.28h-1.96V51.5H396.25z"/>
		<path class="st1" d="M407.67,56.85c0,4.02-2.79,5.78-5.42,5.78c-2.94,0-5.21-2.16-5.21-5.6c0-3.64,2.38-5.78,5.39-5.78
			C405.55,51.25,407.67,53.53,407.67,56.85z M399.04,56.96c0,2.38,1.37,4.18,3.3,4.18c1.89,0,3.3-1.78,3.3-4.23
			c0-1.84-0.92-4.18-3.26-4.18C400.05,52.74,399.04,54.9,399.04,56.96z"/>
		<path class="st1" d="M421.4,46.42v4.88c3.17,0.22,5.46,2.23,5.46,5.62c0,3.57-2.43,5.46-5.46,5.66v4.25h-1.8v-4.23
			c-3.15-0.2-5.46-2.18-5.46-5.57c0-3.6,2.4-5.48,5.46-5.73v-4.88H421.4z M419.6,52.65c-2.2,0.29-3.51,2.09-3.51,4.32
			c0,2.25,1.35,4,3.51,4.27V52.65z M421.4,61.23c2.18-0.29,3.51-2.09,3.51-4.32c0-2.25-1.33-3.96-3.51-4.27V61.23z"/>
		<path class="st1" d="M430.44,57.3c0.04,2.67,1.75,3.78,3.73,3.78c1.42,0,2.27-0.25,3.01-0.56l0.34,1.42
			c-0.7,0.31-1.89,0.67-3.62,0.67c-3.35,0-5.35-2.2-5.35-5.48c0-3.28,1.93-5.87,5.1-5.87c3.55,0,4.5,3.12,4.5,5.12
			c0,0.4-0.04,0.72-0.07,0.92H430.44z M436.24,55.88c0.02-1.26-0.52-3.21-2.74-3.21c-2,0-2.88,1.84-3.03,3.21H436.24z"/>
		<path class="st1" d="M440.6,55.05c0-1.39-0.04-2.52-0.09-3.55h1.78l0.09,1.87h0.04c0.81-1.33,2.09-2.11,3.87-2.11
			c2.63,0,4.61,2.23,4.61,5.53c0,3.91-2.38,5.84-4.94,5.84c-1.44,0-2.7-0.63-3.35-1.71h-0.04v5.91h-1.96V55.05z M442.55,57.95
			c0,0.29,0.04,0.56,0.09,0.81c0.36,1.37,1.55,2.32,2.97,2.32c2.09,0,3.3-1.71,3.3-4.2c0-2.18-1.15-4.05-3.24-4.05
			c-1.35,0-2.61,0.97-2.99,2.45c-0.07,0.25-0.13,0.54-0.13,0.81V57.95z"/>
		<path class="st1" d="M453.5,51.5h2.43l1.98,5.48c0.27,0.81,0.74,2.14,0.99,2.99h0.04c0.25-0.81,0.85-2.54,1.28-3.73l1.75-4.74
			h2.45l0.76,10.88h-1.89l-0.25-5.19c-0.07-1.17-0.16-2.56-0.2-3.89h-0.07c-0.29,0.99-0.58,1.87-1.19,3.53l-2.09,5.48h-1.44
			l-1.93-5.37c-0.34-1.03-0.81-2.61-1.08-3.62h-0.09c-0.04,1.28-0.11,2.72-0.18,3.91l-0.27,5.15h-1.82L453.5,51.5z"/>
		<path class="st1" d="M468.85,57.3c0.04,2.67,1.75,3.78,3.73,3.78c1.42,0,2.27-0.25,3.01-0.56l0.34,1.42
			c-0.7,0.31-1.89,0.67-3.62,0.67c-3.35,0-5.35-2.2-5.35-5.48c0-3.28,1.93-5.87,5.1-5.87c3.55,0,4.5,3.12,4.5,5.12
			c0,0.4-0.04,0.72-0.07,0.92H468.85z M474.65,55.88c0.02-1.26-0.52-3.21-2.74-3.21c-2,0-2.88,1.84-3.03,3.21H474.65z"/>
		<path class="st1" d="M479.01,55.05c0-1.39-0.04-2.52-0.09-3.55h1.78l0.09,1.87h0.04c0.81-1.33,2.09-2.11,3.87-2.11
			c2.63,0,4.61,2.23,4.61,5.53c0,3.91-2.38,5.84-4.94,5.84c-1.44,0-2.7-0.63-3.35-1.71h-0.04v5.91h-1.96V55.05z M480.97,57.95
			c0,0.29,0.04,0.56,0.09,0.81c0.36,1.37,1.55,2.32,2.97,2.32c2.09,0,3.3-1.71,3.3-4.2c0-2.18-1.15-4.05-3.24-4.05
			c-1.35,0-2.61,0.97-2.99,2.45c-0.07,0.25-0.13,0.54-0.13,0.81V57.95z"/>
		<path class="st1" d="M497.83,62.38l-0.16-1.37h-0.07c-0.61,0.85-1.78,1.62-3.33,1.62c-2.2,0-3.33-1.55-3.33-3.12
			c0-2.63,2.34-4.07,6.54-4.05v-0.22c0-0.9-0.25-2.52-2.47-2.52c-1.01,0-2.07,0.32-2.83,0.81l-0.45-1.3c0.9-0.58,2.2-0.97,3.57-0.97
			c3.33,0,4.13,2.27,4.13,4.45v4.07c0,0.94,0.04,1.87,0.18,2.61H497.83z M497.54,56.83c-2.16-0.04-4.61,0.34-4.61,2.45
			c0,1.28,0.85,1.89,1.87,1.89c1.42,0,2.32-0.9,2.63-1.82c0.07-0.2,0.11-0.43,0.11-0.63V56.83z"/>
	</g>
	<rect x="139.76" y="19.42" class="st1" width="43.77" height="10.98"/>
	<g>
		<path class="st1" d="M15.96,24.19c0.33-0.78,0.71-1.49,1.16-2.15c0.45-0.65,1.04-1.2,1.78-1.66c0.74-0.45,1.64-0.8,2.73-1.04
			c1.08-0.25,2.46-0.37,4.14-0.37c1.02,0,2.01,0.05,2.97,0.15c0.96,0.1,1.86,0.33,2.7,0.67c0.84,0.35,1.61,0.87,2.33,1.56
			c0.71,0.7,1.32,1.64,1.81,2.82l15.88,38.19H36.87l-3.37-8.83H18.05l-3.37,8.83H0.09L15.96,24.19z M21.36,43.75h8.83L26.33,32.9
			c-0.08-0.16-0.17-0.36-0.28-0.58c-0.1-0.22-0.19-0.34-0.28-0.34c-0.08,0-0.17,0.11-0.28,0.34c-0.1,0.23-0.19,0.42-0.28,0.58
			L21.36,43.75z"/>
		<path class="st1" d="M53.41,51.72H77.2c1.02,0,1.68-0.14,1.96-0.43c0.29-0.29,0.43-0.59,0.43-0.92c0-0.69-0.29-1.17-0.86-1.44
			c-0.57-0.27-1.21-0.5-1.9-0.7l-16.61-4.66c-1.27-0.33-2.29-0.81-3.07-1.44c-0.78-0.63-1.39-1.24-1.84-1.81
			c-1.02-1.35-1.67-2.88-1.93-4.6c-0.27-1.72-0.4-3.37-0.4-4.97c0-1.35,0.13-2.8,0.4-4.35c0.27-1.55,1.03-2.96,2.3-4.23
			c0.69-0.69,1.63-1.32,2.82-1.87c1.19-0.55,2.7-0.83,4.54-0.83h28.32v10.67H69.54c-0.82,0-1.37,0.02-1.66,0.06
			c-0.29,0.04-0.49,0.1-0.61,0.18c-0.45,0.25-0.67,0.63-0.67,1.16c0,0.7,0.4,1.21,1.2,1.53c0.8,0.33,1.6,0.59,2.42,0.8l14.47,3.86
			c0.94,0.25,1.97,0.61,3.1,1.1c1.12,0.49,2.07,1.12,2.85,1.9c0.65,0.65,1.18,1.4,1.59,2.24c0.41,0.84,0.71,1.7,0.89,2.57
			c0.18,0.88,0.31,1.75,0.37,2.61c0.06,0.86,0.09,1.66,0.09,2.39c0,1.27-0.1,2.68-0.31,4.23c-0.2,1.55-0.8,2.98-1.78,4.29
			c-0.61,0.82-1.27,1.45-1.96,1.9c-0.7,0.45-1.42,0.78-2.18,0.98c-0.76,0.2-1.51,0.33-2.27,0.37c-0.76,0.04-1.5,0.06-2.24,0.06
			H53.41V51.72z"/>
		<path class="st1" d="M108.83,24.19c0.33-0.78,0.71-1.49,1.16-2.15c0.45-0.65,1.04-1.2,1.78-1.66c0.74-0.45,1.64-0.8,2.73-1.04
			c1.08-0.25,2.46-0.37,4.14-0.37c1.02,0,2.01,0.05,2.97,0.15c0.96,0.1,1.86,0.33,2.7,0.67c0.84,0.35,1.61,0.87,2.33,1.56
			c0.71,0.7,1.32,1.64,1.81,2.82l15.88,38.19h-14.59l-3.37-8.83h-15.45l-3.37,8.83H92.96L108.83,24.19z M114.23,43.75h8.83
			L119.2,32.9c-0.08-0.16-0.17-0.36-0.28-0.58c-0.1-0.22-0.19-0.34-0.28-0.34c-0.08,0-0.17,0.11-0.28,0.34
			c-0.1,0.23-0.19,0.42-0.28,0.58L114.23,43.75z"/>
		<path class="st1" d="M195.05,23.94c0.33-0.78,0.72-1.5,1.17-2.15c0.45-0.66,1.05-1.21,1.79-1.66c0.74-0.45,1.65-0.8,2.74-1.05
			c1.09-0.25,2.47-0.37,4.15-0.37c1.03,0,2.02,0.05,2.99,0.15c0.96,0.1,1.87,0.33,2.71,0.68c0.84,0.35,1.62,0.87,2.34,1.57
			c0.72,0.7,1.32,1.64,1.82,2.83l15.94,38.35h-14.65l-3.39-8.86h-15.51l-3.39,8.86H179.1L195.05,23.94z M200.46,43.58h8.86
			l-3.88-10.89c-0.08-0.16-0.18-0.36-0.28-0.58c-0.1-0.23-0.2-0.34-0.28-0.34c-0.08,0-0.17,0.11-0.28,0.34
			c-0.1,0.23-0.2,0.42-0.28,0.58L200.46,43.58z"/>
		<path class="st1" d="M271.34,55.83c0,1.44-0.26,2.55-0.77,3.32c-0.51,0.78-0.95,1.33-1.32,1.66c-1.19,0.98-2.73,1.48-4.62,1.48
			h-20.37c-1.77,0-3.66-0.3-5.69-0.89c-2.03-0.59-3.75-1.51-5.14-2.74c-1.19-1.03-2.12-2.27-2.8-3.72
			c-0.68-1.46-1.19-2.97-1.54-4.55c-0.35-1.58-0.58-3.18-0.68-4.8c-0.1-1.62-0.15-3.15-0.15-4.59c0-1.72,0.06-3.48,0.18-5.26
			c0.12-1.79,0.39-3.52,0.8-5.2c0.41-1.68,1.03-3.24,1.85-4.68c0.82-1.44,1.93-2.67,3.32-3.69c0.99-0.74,2.05-1.3,3.2-1.69
			c1.15-0.39,2.24-0.68,3.26-0.86c1.03-0.18,1.94-0.3,2.74-0.34c0.8-0.04,1.34-0.06,1.63-0.06h25.11v10.22h-18.84
			c-3.45,0-5.93,1.19-7.45,3.57c-0.74,1.19-1.18,2.48-1.32,3.88c-0.14,1.4-0.22,2.69-0.22,3.88c0,1.19,0.07,2.48,0.22,3.88
			c0.14,1.4,0.6,2.73,1.38,4c0.78,1.19,1.68,1.98,2.71,2.37c1.03,0.39,2.13,0.58,3.32,0.58h4.19c0.37,0,0.77-0.03,1.2-0.09
			c0.43-0.06,0.81-0.26,1.14-0.58c0.33-0.33,0.53-0.72,0.62-1.17c0.08-0.45,0.12-0.9,0.12-1.35v-8.86h13.91V55.83z"/>
	</g>
	<g>
		<defs>
			<path id="SVGID_1_" d="M162.37,35.9L162.37,35.9C162.37,35.9,162.37,35.9,162.37,35.9c0.02-0.03,0.05-0.05,0.07-0.07
				c0.22-0.21,0.68-0.27,0.87-0.28c0.63,0.01,1.61,0.02,2.27,0.02c0.11,0,0.21,0,0.29,0c0.19,0.01,0.44,0.05,0.67,0.16
				c0.09,0.05,0.16,0.1,0.16,0.1s1.07,0.66,1.31,0.81c0.24,0.15,0.28,0.74,0.28,0.74s0.01,1.41,0.04,1.74
				c0.03,0.33,0.16,0.46,0.04,0.85c-0.12,0.44-2.3,0.37-2.3,0.37s-1.35-0.04-1.94-0.63c0,0-1.7-1.26-2.89-1.92
				c0,0-0.12-0.09-0.32-0.21c-0.04-0.09-0.03-0.18,0.02-0.28c0.04-0.09,0.31-0.31,0.5-0.47c0.06-0.04,0.12-0.09,0.18-0.15
				c0,0,0,0,0,0s0,0,0,0C161.85,36.48,162.15,36.15,162.37,35.9 M156.34,33.76l-2.08,0c0,0-0.26-0.05-0.44,0.24
				c-0.18,0.29-0.16,0.5-0.16,0.5v1.2c0,0-0.16-0.01-0.16,0.16c0,0.1,0.1,0.17,0.12,0.17v0.4c0,0-0.01,0-0.01,0
				c-0.01,0-0.01,0.01-0.02,0.01c0,0-0.01,0-0.01,0c0,0-0.01,0-0.01,0.01c0,0-0.01,0-0.01,0c-0.01,0-0.01,0-0.02,0
				c-0.01,0-0.02,0.01-0.03,0.01c0,0,0,0,0,0c-0.01,0-0.02,0.01-0.03,0.01c-0.75,0.21-1.1,3.88-1.26,4.89c-0.16,1.02,0,1.42,0,1.42
				c0.2,0.33,0.2,0.69,0.2,0.69v15.75c0,0.48,0.04,0.52,0.44,1.85c0.4,1.33,1.26,1.33,1.26,1.33h14.63c0,0,0.87,0,1.51-0.74
				c0.8-0.94,0.75-2.18,0.75-2.18l0.04-16.19v-0.05c0.01-0.01,0.02-0.01,0.02-0.01s0,0,0,0c0.05,0,0.2-0.05,0.26-0.52
				c0.18-1.29-0.44-1.66-0.75-1.81c-0.32-0.15-0.48-0.3-0.48-0.63c0-0.33,0.17-0.37,0.2-0.86c0,0-0.03-1.78,0-2.21
				c-0.19-1.41-0.48-1.51-1.59-2.4c-1.11-0.89-2.24-1.03-2.24-1.03s-2.95-0.04-3.82,0c-0.87,0.04-0.99,0.28-0.99,0.28
				s-1.43,1.53-2.02,2.04c-0.14,0.12-0.25,0.2-0.34,0.26c-0.05,0.03-0.2,0.09-0.2-0.16v-0.18c0.02,0,0.12-0.07,0.12-0.17
				c0-0.17-0.16-0.16-0.16-0.16v-1.2c0,0,0.02-0.21-0.16-0.5c-0.18-0.29-0.44-0.24-0.44-0.24L156.34,33.76L156.34,33.76z"/>
		</defs>
		<linearGradient id="SVGID_2_" gradientUnits="userSpaceOnUse" x1="152.1331" y1="48.0849" x2="171.3422" y2="48.0849">
			<stop  offset="0" style="stop-color:#ABF538"/>
			<stop  offset="1" style="stop-color:#FED919"/>
		</linearGradient>
		<use xlink:href="#SVGID_1_"  style="overflow:visible;fill:url(#SVGID_2_);"/>
		<clipPath id="SVGID_3_">
			<use xlink:href="#SVGID_1_"  style="overflow:visible;"/>
		</clipPath>
		<linearGradient id="SVGID_4_" gradientUnits="userSpaceOnUse" x1="152.045" y1="48.0622" x2="171.4932" y2="48.0622">
			<stop  offset="0" style="stop-color:#ABF538"/>
			<stop  offset="1" style="stop-color:#FED919"/>
		</linearGradient>
		<rect x="152.04" y="33.71" class="st2" width="19.45" height="28.71"/>
	</g>
	<g>
		<path d="M155.43,52.21c0,0,0.43,1.33,0.22,3.71c-0.22,2.38,1.08,5.26,4.17,5.1c0,0,0-2.6-2.63-6.68c0,0,2.91,2.91,3.99,5.94
			c0,0,2.48-3.49-0.43-5.47C160.06,54.35,156.45,53.05,155.43,52.21"/>
		<path d="M167.76,45.3c0,0-1.95,1.11-3.25,1.73s-4.11,2.35-4.79,2.94c-0.68,0.59-1.52,1.95-1.61,2.88c0,0,2.74,0.76,3.77,2.41
			c0,0,1.61-3.62,1.7-3.77c0.09-0.15,1.07-1.69,1.76-2.47c0,0-3.34,6.46-3.15,11.32c0,0,4.91-0.24,5.78-5.01
			c0.53-2.88-0.19-5.66-0.19-5.66S167.4,46.71,167.76,45.3"/>
	</g>
</g>
<g>
</g>
<g>
</g>
<g>
</g>
<g>
</g>
<g>
</g>
<g>
</g>
<g>
</g>
<g>
</g>
<g>
</g>
<g>
</g>
<g>
</g>
<g>
</g>
<g>
</g>
<g>
</g>
<g>
</g>
</svg>
