<svg width="108" height="124" viewBox="0 0 108 124" fill="none" xmlns="http://www.w3.org/2000/svg">
<path d="M13.35 40.82C13.35 62.91 31.43 80.99 53.52 80.99C75.61 80.99 93.69 62.91 93.69 40.82C93.69 18.73 75.61 0.649994 53.52 0.649994C31.43 0.649994 13.35 18.73 13.35 40.82ZM84.24 40.82C84.24 57.72 70.42 71.54 53.52 71.54C36.62 71.54 22.8 57.72 22.8 40.82C22.8 23.92 36.62 10.1 53.52 10.1C70.42 10.1 84.24 23.93 84.24 40.82Z" fill="white"/>
<path d="M6.73 124C19.25 111.48 35.79 104.62 53.52 104.62C71.25 104.62 87.78 111.47 100.31 124L107.04 117.27C92.74 103.09 73.72 95.18 53.52 95.18C33.32 95.18 14.29 103.1 0 117.27L6.73 124Z" fill="white"/>
</svg>
