<?xml version="1.0" encoding="utf-8"?>
<!-- Generator: Adobe Illustrator 24.3.0, SVG Export Plug-In . SVG Version: 6.00 Build 0)  -->
<svg version="1.1" id="Слой_1" xmlns="http://www.w3.org/2000/svg" xmlns:xlink="http://www.w3.org/1999/xlink" x="0px" y="0px"
	 viewBox="0 0 300 300" style="enable-background:new 0 0 300 300;" xml:space="preserve">
<style type="text/css">
	.st0{display:none;}
	.st1{fill:#FFFFFF;}
</style>
<rect class="st0" width="300" height="300"/>
<path class="st1" d="M1,120.8c0,66.2,53.6,119.8,119.8,119.8c28.6,0,54.9-10,75.5-26.7l82.4,82.4c4.9,4.9,12.8,4.9,17.6,0
	c4.9-4.9,4.9-12.8,0-17.6L214,196.3c16.7-20.6,26.7-46.9,26.7-75.5C240.7,54.6,187.1,1,120.8,1C54.7,1,1,54.6,1,120.8 M25.9,120.8
	c0-52.4,42.5-94.9,94.9-94.9s94.9,42.5,94.9,94.9c0,52.4-42.5,94.9-94.9,94.9S25.9,173.3,25.9,120.8"/>
</svg>
