<?xml version="1.0" encoding="utf-8"?>
<!-- Generator: Adobe Illustrator 24.3.0, SVG Export Plug-In . SVG Version: 6.00 Build 0)  -->
<svg version="1.1" xmlns="http://www.w3.org/2000/svg" xmlns:xlink="http://www.w3.org/1999/xlink" x="0px" y="0px"
	 viewBox="0 0 100 100" style="enable-background:new 0 0 100 100;" xml:space="preserve">
<style type="text/css">
	.st0{display:none;}
	.st1{display:inline;}
	.st2{clip-path:url(#SVGID_2_);fill:none;stroke:#FFFFFF;stroke-width:2;stroke-linecap:round;stroke-linejoin:round;}
	.st3{opacity:0.5;clip-path:url(#SVGID_2_);}
	.st4{clip-path:url(#SVGID_4_);fill:none;stroke:#FFFFFF;stroke-width:2;stroke-linecap:round;stroke-linejoin:round;}
	.st5{clip-path:url(#SVGID_6_);fill:none;stroke:#FFFFFF;stroke-width:2;stroke-linecap:round;stroke-linejoin:round;}
	.st6{clip-path:url(#SVGID_8_);fill:none;stroke:#FFFFFF;stroke-width:2;stroke-linecap:round;stroke-linejoin:round;}
	.st7{clip-path:url(#SVGID_10_);fill:none;stroke:#FFFFFF;stroke-width:2;stroke-linecap:round;stroke-linejoin:round;}
	.st8{clip-path:url(#SVGID_12_);fill:none;stroke:#FFFFFF;stroke-width:2;stroke-linecap:round;stroke-linejoin:round;}
	.st9{clip-path:url(#SVGID_14_);fill:none;stroke:#FFFFFF;stroke-width:2;stroke-linecap:round;stroke-linejoin:round;}
	.st10{clip-path:url(#SVGID_16_);fill:none;stroke:#FFFFFF;stroke-width:2;stroke-linecap:round;stroke-linejoin:round;}
</style>
<g id="Слой_1" class="st0">
	<g class="st1">
		<rect x="0.5" y="0.5" width="99" height="99"/>
		<path d="M99,1v98H1V1H99 M100,0H0v100h100V0L100,0z"/>
	</g>
</g>
<g id="Слой_2">
	<g>
		<defs>
			<rect id="SVGID_1_" x="-2.1" y="-2" width="104" height="104"/>
		</defs>
		<clipPath id="SVGID_2_">
			<use xlink:href="#SVGID_1_"  style="overflow:visible;"/>
		</clipPath>
		
			<rect x="15.54" y="26.78" transform="matrix(0.9451 -0.3268 0.3268 0.9451 -17.3974 15.0092)" class="st2" width="40.86" height="65"/>
		<path class="st2" d="M28.65,60.83c-1.34-3.88,0.72-8.11,4.59-9.45c3.88-1.34,8.11,0.72,9.45,4.59c1.34,3.88-0.72,8.11-4.59,9.45
			C34.22,66.77,29.99,64.71,28.65,60.83z"/>
		<g class="st3">
			<g>
				<defs>
					<rect id="SVGID_3_" x="22.1" y="82.74" width="18.41" height="10.62"/>
				</defs>
				<clipPath id="SVGID_4_">
					<use xlink:href="#SVGID_3_"  style="overflow:visible;"/>
				</clipPath>
				<path class="st4" d="M23.04,84.39c6.79-2.35,14.19,1.25,16.53,8.04"/>
			</g>
		</g>
		<g class="st3">
			<g>
				<defs>
					<rect id="SVGID_5_" x="51.96" y="70.1" width="10.62" height="18.41"/>
				</defs>
				<clipPath id="SVGID_6_">
					<use xlink:href="#SVGID_5_"  style="overflow:visible;"/>
				</clipPath>
				<path class="st5" d="M61.65,71.04c-6.79,2.35-10.39,9.75-8.04,16.53"/>
			</g>
		</g>
		<g class="st3">
			<g>
				<defs>
					<rect id="SVGID_7_" x="31.43" y="25.2" width="18.41" height="10.63"/>
				</defs>
				<clipPath id="SVGID_8_">
					<use xlink:href="#SVGID_7_"  style="overflow:visible;"/>
				</clipPath>
				<path class="st6" d="M48.91,34.18c-6.79,2.35-14.19-1.25-16.53-8.04"/>
			</g>
		</g>
		<g class="st3">
			<g>
				<defs>
					<rect id="SVGID_9_" x="9.36" y="30.06" width="10.62" height="18.4"/>
				</defs>
				<clipPath id="SVGID_10_">
					<use xlink:href="#SVGID_9_"  style="overflow:visible;"/>
				</clipPath>
				<path class="st7" d="M10.29,47.53c6.79-2.35,10.38-9.75,8.04-16.53"/>
			</g>
		</g>
		<polyline class="st2" points="61.97,72.53 85.56,75.53 93.77,11.05 53.24,5.89 49.52,35.14 		"/>
		<path class="st2" d="M62.15,38.85c0.52-4.07,4.24-6.95,8.31-6.43c4.07,0.52,6.95,4.24,6.43,8.31c-0.52,4.07-4.24,6.95-8.31,6.43
			C64.51,46.64,61.63,42.92,62.15,38.85z"/>
		<g class="st3">
			<g>
				<defs>
					<rect id="SVGID_11_" x="71.73" y="61.59" width="16.41" height="13.24"/>
				</defs>
				<clipPath id="SVGID_12_">
					<use xlink:href="#SVGID_11_"  style="overflow:visible;"/>
				</clipPath>
				<path class="st8" d="M87.2,62.64c-7.12-0.91-13.63,4.13-14.54,11.25"/>
			</g>
		</g>
		<g class="st3">
			<g>
				<defs>
					<rect id="SVGID_13_" x="79.83" y="8.47" width="13.24" height="16.42"/>
				</defs>
				<clipPath id="SVGID_14_">
					<use xlink:href="#SVGID_13_"  style="overflow:visible;"/>
				</clipPath>
				<path class="st9" d="M92.13,23.95C85,23.04,79.97,16.53,80.87,9.41"/>
			</g>
		</g>
		<g class="st3">
			<g>
				<defs>
					<rect id="SVGID_15_" x="50.66" y="6.6" width="16.41" height="13.23"/>
				</defs>
				<clipPath id="SVGID_16_">
					<use xlink:href="#SVGID_15_"  style="overflow:visible;"/>
				</clipPath>
				<path class="st10" d="M51.6,18.79c7.12,0.91,13.63-4.13,14.54-11.25"/>
			</g>
		</g>
	</g>
</g>
</svg>
