<?xml version="1.0" encoding="utf-8"?>
<!-- Generator: Adobe Illustrator 24.3.0, SVG Export Plug-In . SVG Version: 6.00 Build 0)  -->
<svg version="1.1" xmlns="http://www.w3.org/2000/svg" xmlns:xlink="http://www.w3.org/1999/xlink" x="0px" y="0px"
	 viewBox="0 0 100 100" style="enable-background:new 0 0 100 100;" xml:space="preserve">
<style type="text/css">
	.st0{display:none;}
	.st1{display:inline;}
	.st2{fill:#FFFFFF;}
</style>
<g id="Слой_1" class="st0">
	<g class="st1">
		<rect x="0.5" y="0.5" width="99" height="99"/>
		<path d="M99,1v98H1V1H99 M100,0H0v100h100V0L100,0z"/>
	</g>
</g>
<g id="Слой_2">
	<path class="st2" d="M51.57,40.08c-0.42,0.01-0.83,0.19-1.13,0.5l-8.62,8.59l-5.31-5.29c-1.49-1.55-3.89,0.84-2.34,2.33l6.48,6.46
		c0.64,0.64,1.69,0.64,2.34,0l9.78-9.76C53.85,41.86,53.05,40.08,51.57,40.08L51.57,40.08z M2.63,53.15h9.8
		c0.9,0,1.63,0.73,1.63,1.63c0,0.9-0.73,1.63-1.63,1.63h-9.8c-0.9,0-1.63-0.73-1.63-1.63C1,53.88,1.73,53.15,2.63,53.15z
		 M2.63,40.08h9.8c0.9,0,1.63,0.73,1.63,1.63s-0.73,1.63-1.63,1.63h-9.8c-0.9,0-1.63-0.73-1.63-1.63S1.73,40.08,2.63,40.08z
		 M2.63,27.01h9.8c0.9,0,1.63,0.73,1.63,1.63c0,0.9-0.73,1.63-1.63,1.63h-9.8c-0.9,0-1.63-0.73-1.63-1.63
		C1,27.74,1.73,27.01,2.63,27.01z M81.03,62.95c-4.49,0-8.17,3.67-8.17,8.17s3.67,8.17,8.17,8.17s8.17-3.67,8.17-8.17
		S85.53,62.95,81.03,62.95z M81.03,66.21c2.72,0,4.9,2.18,4.9,4.9c0,2.72-2.18,4.9-4.9,4.9s-4.9-2.18-4.9-4.9
		C76.13,68.39,78.31,66.21,81.03,66.21z M38.57,62.95c-4.49,0-8.17,3.67-8.17,8.17s3.68,8.17,8.17,8.17s8.17-3.67,8.17-8.17
		S43.06,62.95,38.57,62.95z M38.57,66.21c2.72,0,4.9,2.18,4.9,4.9c0,2.72-2.18,4.9-4.9,4.9s-4.9-2.18-4.9-4.9
		C33.67,68.39,35.84,66.21,38.57,66.21z M22.23,20.48c-2.69,0-4.9,2.21-4.9,4.9v35.93c0,2.69,2.21,4.9,4.9,4.9h6.53
		c2.21,0.03,2.21-3.3,0-3.27h-6.53c-0.93,0-1.63-0.7-1.63-1.63V25.38c0-0.93,0.7-1.63,1.63-1.63H64.7c0.93,0,1.63,0.7,1.63,1.63
		v37.57H48.37c-2.16,0-2.12,3.3,0,3.27h22.87c2.16,0,2.14-3.27,0-3.27H69.6v-29.4h13.81l12.33,19.26v8.51c0,0.93-0.7,1.63-1.63,1.63
		h-3.27c-2.14,0-2.14,3.27,0,3.27h3.27c2.69,0,4.9-2.21,4.9-4.9v-8.98c0-0.31-0.09-0.62-0.25-0.88L85.68,31.03
		c-0.3-0.47-0.82-0.75-1.38-0.75H69.6v-4.9c0-2.69-2.21-4.9-4.9-4.9H22.23z"/>
</g>
</svg>
