<svg width="103" height="104" viewBox="0 0 103 104" fill="none" xmlns="http://www.w3.org/2000/svg">
<mask id="mask0_6_6" style="mask-type:luminance" maskUnits="userSpaceOnUse" x="0" y="0" width="103" height="62">
<path d="M72.8 10.2C76.64 9.85 80.03 12.68 80.38 16.52C80.73 20.36 77.9 23.76 74.06 24.11C73.64 24.15 73.22 24.15 72.8 24.11H58.16C60.37 18.43 64.86 10.2 72.8 10.2ZM23.44 17.78C23.09 13.94 25.92 10.55 29.77 10.2C30.19 10.16 30.61 10.16 31.03 10.2C38.97 10.2 43.46 18.37 45.67 24.11H31.03C30.82 24.13 30.6 24.14 30.39 24.14C26.82 24.14 23.77 21.41 23.44 17.78ZM51.91 15.48C48.34 7 40.21 1.33 31.02 0.889999C22.04 0.889999 14.76 8.15001 14.73 17.13C14.75 19.55 15.31 21.94 16.37 24.11H5.92999C3.09999 24.11 0.820007 27.46 0.820007 31.54V53.85C0.820007 57.94 3.08999 61.29 5.92999 61.29H47.25V24.11H56.56V61.29H97.89C100.72 61.29 102.99 57.94 102.99 53.85V31.54C102.99 27.46 100.72 24.11 97.89 24.11H87.44C88.51 21.94 89.07 19.55 89.09 17.13C89.06 8.15001 81.77 0.889999 72.8 0.889999C63.61 1.33 55.49 7 51.91 15.48Z" fill="white"/>
</mask>
<g mask="url(#mask0_6_6)">
<path d="M103 0.889999H0.830017V61.29H103V0.889999Z" fill="url(#paint0_linear_6_6)"/>
</g>
<path d="M47.37 103.46H16.46C13.02 103.46 10.22 100.67 10.22 97.22V70.46H47.37V103.46ZM93.81 97.23V70.47H56.66V103.46H87.57C91.02 103.47 93.81 100.67 93.81 97.23Z" fill="url(#paint1_linear_6_6)"/>
<defs>
<linearGradient id="paint0_linear_6_6" x1="0.822332" y1="31.0854" x2="102.996" y2="31.0854" gradientUnits="userSpaceOnUse">
<stop stop-color="#ABF538"/>
<stop offset="1" stop-color="#FED919"/>
</linearGradient>
<linearGradient id="paint1_linear_6_6" x1="10.2283" y1="86.9666" x2="93.8095" y2="86.9666" gradientUnits="userSpaceOnUse">
<stop stop-color="#ABF538"/>
<stop offset="1" stop-color="#FED919"/>
</linearGradient>
</defs>
</svg>
