<?xml version="1.0" encoding="utf-8"?>
<!-- Generator: Adobe Illustrator 24.3.0, SVG Export Plug-In . SVG Version: 6.00 Build 0)  -->
<svg version="1.1" id="Слой_1" xmlns="http://www.w3.org/2000/svg" xmlns:xlink="http://www.w3.org/1999/xlink" x="0px" y="0px"
	 viewBox="0 0 300 300" style="enable-background:new 0 0 300 300;" xml:space="preserve">
<style type="text/css">
	.st0{display:none;}
	.st1{clip-path:url(#SVGID_2_);fill:#FFFFFF;}
	.st2{clip-path:url(#SVGID_4_);fill:#FFFFFF;}
	.st3{clip-path:url(#SVGID_6_);fill:#FFFFFF;}
</style>
<rect class="st0" width="300" height="300"/>
<g>
	<g>
		<defs>
			<path id="SVGID_1_" d="M29.3,203.5V283c0.1,8.3,6.9,15,15.2,15h92.7v-94.5H29.3z"/>
		</defs>
		<use xlink:href="#SVGID_1_"  style="overflow:visible;fill:#FFFFFF;"/>
		<clipPath id="SVGID_2_">
			<use xlink:href="#SVGID_1_"  style="overflow:visible;"/>
		</clipPath>
		<rect x="29.3" y="203.5" class="st1" width="107.9" height="94.5"/>
	</g>
	<g>
		<defs>
			<path id="SVGID_3_" d="M164.2,203.5V298H257c8.3,0,15.1-6.7,15.2-15v-79.5H164.2z"/>
		</defs>
		<use xlink:href="#SVGID_3_"  style="overflow:visible;fill:#FFFFFF;"/>
		<clipPath id="SVGID_4_">
			<use xlink:href="#SVGID_3_"  style="overflow:visible;"/>
		</clipPath>
		<rect x="164.2" y="203.5" class="st2" width="107.9" height="94.5"/>
	</g>
	<g>
		<defs>
			<path id="SVGID_5_" d="M211.4,28.1c11.2-1,21,7.2,22,18.4c1,11.2-7.2,21-18.4,22c-1.2,0.1-2.4,0.1-3.7,0h-42.6
				C175.3,52,188.3,28.1,211.4,28.1 M67.9,50.1c-1-11.2,7.2-21,18.4-22c1.2-0.1,2.4-0.1,3.7,0c23.1,0,36.1,23.8,42.6,40.4H90
				c-0.6,0.1-1.2,0.1-1.9,0.1C77.8,68.6,68.9,60.6,67.9,50.1 M150.7,43.4C140.3,18.8,116.7,2.3,90,1C63.9,1,42.7,22.1,42.6,48.2
				c0,7,1.7,14,4.8,20.3H17c-8.2,0-14.8,9.7-14.8,21.6v64.8c0,11.9,6.6,21.6,14.8,21.6h120.1V68.5h27.1v108.1h120.1
				c8.2,0,14.8-9.7,14.8-21.6V90.1c0-11.9-6.6-21.6-14.8-21.6H254c3.1-6.3,4.7-13.3,4.8-20.3C258.7,22.1,237.5,1,211.4,1
				C184.7,2.3,161.1,18.8,150.7,43.4"/>
		</defs>
		<use xlink:href="#SVGID_5_"  style="overflow:visible;fill:#FFFFFF;"/>
		<clipPath id="SVGID_6_">
			<use xlink:href="#SVGID_5_"  style="overflow:visible;"/>
		</clipPath>
		<rect x="2.2" y="1" class="st3" width="297" height="175.6"/>
	</g>
</g>
</svg>
