<svg width="387" height="130" viewBox="0 0 387 130" fill="none" xmlns="http://www.w3.org/2000/svg">
<path fill-rule="evenodd" clip-rule="evenodd" d="M31.64 0.600006C30.46 0.600006 29.29 0.600001 28.11 0.610001C27.33 0.620001 26.55 0.629999 25.77 0.639999L25.15 0.649994C22.99 0.679994 20.83 0.870001 18.7 1.22C16.57 1.58 14.51 2.26001 12.58 3.24001C10.66 4.23001 8.90001 5.51 7.37001 7.03C5.83001 8.56 4.55001 10.32 3.58001 12.25C2.60001 14.18 1.92 16.24 1.57 18.38C1.21 20.51 1.02001 22.67 0.990005 24.83C0.970005 25.5 0.960005 26.17 0.950005 26.84C0.950005 27.16 0.940002 27.47 0.940002 27.79V102.22C0.940002 102.54 0.950005 102.85 0.950005 103.16C0.960005 103.83 0.970005 104.5 0.990005 105.19C1.02001 107.35 1.21 109.51 1.57 111.64C1.92 113.78 2.60001 115.84 3.58001 117.77C4.56001 119.7 5.84001 121.45 7.37001 122.97C8.89001 124.51 10.65 125.79 12.58 126.76C14.51 127.74 16.57 128.42 18.7 128.79C20.83 129.14 22.99 129.33 25.15 129.36C26.15 129.38 27.12 129.39 28.11 129.39C29.29 129.4 30.46 129.4 31.64 129.4H355.57C356.73 129.4 357.9 129.4 359.06 129.39C360.04 129.39 361.05 129.38 362.03 129.36C364.19 129.33 366.34 129.14 368.47 128.79C370.61 128.42 372.68 127.74 374.61 126.76C376.54 125.78 378.29 124.5 379.82 122.97C381.35 121.45 382.64 119.69 383.63 117.77C384.6 115.84 385.27 113.77 385.62 111.64C385.98 109.51 386.18 107.36 386.22 105.19C386.23 104.19 386.23 103.22 386.23 102.22C386.26 101.05 386.26 99.89 386.26 98.7V31.31C386.26 30.13 386.26 28.96 386.23 27.79C386.23 26.8 386.23 25.81 386.22 24.83C386.18 22.67 385.98 20.51 385.62 18.38C385.27 16.25 384.6 14.18 383.63 12.25C381.64 8.38 378.49 5.22 374.62 3.23C372.69 2.26 370.61 1.57001 368.48 1.21001C366.35 0.850007 364.2 0.659999 362.04 0.639999L361.5 0.630005C360.69 0.620005 359.87 0.600006 359.08 0.600006C357.99 0.590006 356.88 0.589996 355.79 0.589996H31.64V0.600006ZM28.13 126.58C27.15 126.58 26.19 126.57 25.22 126.55C23.2 126.52 21.19 126.35 19.2 126.02C17.34 125.7 15.55 125.11 13.86 124.26C12.2 123.42 10.68 122.31 9.36 120.99C8.03 119.68 6.92 118.16 6.07 116.49C5.22 114.81 4.63 113.01 4.32 111.15C3.99 109.15 3.81 107.14 3.78 105.11C3.76 104.43 3.73 102.17 3.73 102.17V27.79C3.73 27.79 3.76 25.56 3.78 24.91C3.8 22.89 3.98001 20.88 4.31001 18.88C4.62001 17.02 5.21 15.21 6.06 13.53C6.9 11.86 8.00001 10.34 9.33001 9.03C10.65 7.7 12.18 6.59001 13.85 5.74001C15.53 4.89001 17.32 4.30001 19.17 3.99001C21.17 3.66001 23.19 3.49001 25.21 3.46001L28.12 3.42H359.03L361.97 3.46001C363.98 3.48001 365.98 3.66 367.95 3.98C369.82 4.3 371.64 4.89001 373.33 5.74001C376.67 7.46001 379.39 10.19 381.11 13.53C381.95 15.2 382.53 16.99 382.83 18.84C383.16 20.85 383.35 22.88 383.39 24.92C383.4 25.83 383.4 26.81 383.4 27.79C383.43 29 383.43 30.15 383.43 31.31V98.7C383.43 99.87 383.43 101.01 383.4 102.16C383.4 103.21 383.4 104.17 383.39 105.15C383.35 107.15 383.17 109.14 382.84 111.12C382.54 112.99 381.95 114.8 381.1 116.5C380.25 118.15 379.15 119.66 377.83 120.96C376.51 122.29 374.99 123.4 373.32 124.25C371.63 125.11 369.82 125.7 367.95 126.02C365.96 126.35 363.95 126.52 361.93 126.55C360.99 126.57 360 126.58 359.04 126.58L355.55 126.59L28.13 126.58Z" fill="white"/>
<path fill-rule="evenodd" clip-rule="evenodd" d="M113.59 31.76C108.04 26.21 99.11 26.21 81.24 26.21H78.08C60.21 26.21 51.28 26.21 45.73 31.76C40.18 37.31 40.18 46.24 40.18 64.11V67.27C40.18 85.14 40.18 94.07 45.73 99.62C51.28 105.17 60.21 105.17 78.08 105.17H81.24C99.11 105.17 108.04 105.17 113.59 99.62C119.14 94.07 119.14 85.14 119.14 67.27V64.11C119.14 46.25 119.14 37.31 113.59 31.76ZM105.9 75C105.9 77.48 103.56 79.3 101.14 78.69L91.5 76.28V80.92C91.5 83.4 89.16 85.22 86.74 84.61L77.1 82.2V86.84C77.1 89.32 74.76 91.14 72.34 90.53L57.04 86.71C54.91 86.18 53.42 84.28 53.42 82.09V56.38C53.42 53.9 55.76 52.08 58.18 52.69L67.82 55.1V50.46C67.82 47.98 70.16 46.16 72.58 46.77L82.22 49.18V44.54C82.22 42.06 84.56 40.24 86.98 40.85L102.28 44.67C104.41 45.2 105.9 47.1 105.9 49.29V75Z" fill="white"/>
<path d="M81.45 83.31C80.78 83.14 80.3 82.55 80.28 81.86L79.61 62.22C79.42 59.62 77.49 57.55 75.47 56.95C75.36 56.92 75.24 56.96 75.17 57.06C75.1 57.16 75.13 57.3 75.22 57.37C75.72 57.76 77.09 59.01 77.09 61.18V82.21L81.45 83.31Z" fill="white"/>
<path d="M95.85 77.38C95.18 77.21 94.7 76.62 94.68 75.93L94.01 56.29C93.82 53.69 91.89 51.62 89.87 51.02C89.76 50.99 89.64 51.03 89.57 51.13C89.5 51.23 89.53 51.37 89.62 51.44C90.12 51.83 91.49 53.08 91.49 55.25V76.29L95.85 77.38Z" fill="white"/>
<path d="M164.59 71.58C170.57 70.06 174.5 65.48 174.5 59.5C174.5 52.1 168.58 46.91 160.26 46.91H145.45V86.72H152.28V72.1H157.12L167.71 86.72H175.74L164.59 71.58ZM160.26 53.11C164.53 53.11 167.49 55.71 167.49 59.49C167.49 63.27 164.53 65.87 160.26 65.87H152.29V53.11H160.26Z" fill="white"/>
<path d="M191.13 87.27C194.72 87.27 198.02 85.41 199.9 82.3L201.21 86.7H206.11V57.34H199.56V74.34C199.56 78.52 196.77 81.45 192.95 81.45C189.19 81.45 186.57 78.51 186.57 74.34V57.34H180.02V75.07C180.03 82.14 184.81 87.27 191.13 87.27Z" fill="white"/>
<path d="M227.01 87.27C234.58 87.27 240.85 82.98 240.85 75.86C240.85 67.9 234.3 65.58 228.66 63.66C224.27 62.19 220.46 60.84 220.46 57.28C220.46 54.17 223.36 52.54 226.78 52.54C230.37 52.54 232.93 54.4 234.35 57.57L240.84 56.5C238.79 50.29 233.61 46.34 226.55 46.34C219.26 46.34 213.45 50.52 213.45 57.63C213.45 65.65 220 67.85 225.64 69.71C229.97 71.12 233.84 72.48 233.84 76.09C233.84 79.25 230.94 81.06 227.06 81.06C222.62 81.06 220.23 78.97 218.12 75.19L211.51 76.32C213.46 83.04 219.61 87.27 227.01 87.27Z" fill="white"/>
<path d="M258.66 81.06C256.44 81.06 255.36 79.99 255.36 77.79V63H264.19V57.35H255.36V48.88H250.46L248.81 57.35H243.97V63H248.81V77.79C248.81 83.55 252.17 86.71 258.66 86.71H264.18L264.75 81.06H258.66Z" fill="white"/>
<path d="M283.47 87.27C292.75 87.27 299.3 80.95 299.3 72.03C299.3 63.11 292.75 56.79 283.47 56.79C274.19 56.79 267.64 63.11 267.64 72.03C267.64 80.95 274.19 87.27 283.47 87.27ZM283.47 81.35C278.12 81.35 274.47 77.57 274.47 72.03C274.47 66.5 278.11 62.71 283.47 62.71C288.83 62.71 292.47 66.49 292.47 72.03C292.47 77.56 288.83 81.35 283.47 81.35Z" fill="white"/>
<path d="M311.55 86.71V69.38C311.55 65.65 313.37 63.56 317.36 63.56H321.12L320.55 57.35H319.3C315.83 57.35 313.15 58.31 311.16 61.58L309.91 57.35H305V86.71H311.55Z" fill="white"/>
<path d="M353.34 71.69C353.34 63.22 346.96 56.78 337.96 56.78C328.96 56.78 322.58 63.16 322.58 72.02C322.58 80.88 328.96 87.26 337.96 87.26C344.11 87.26 349.92 84.38 352.14 78.79L345.99 77.77C344.57 79.86 341.83 81.33 338.36 81.33C333.35 81.33 330.05 78.28 329.42 73.76H353.23C353.28 73.16 353.34 72.48 353.34 71.69ZM337.96 62.43C342.06 62.43 345.14 65.03 346.22 68.7H329.82C330.9 64.91 333.98 62.43 337.96 62.43Z" fill="white"/>
</svg>
