<svg width="410" height="62" viewBox="0 0 410 62" fill="none" xmlns="http://www.w3.org/2000/svg">
<path d="M217.377 0H215.664V61.2315H217.377V0Z" fill="white"/>
<path d="M223.213 14.4097V13.3043H230.931V14.4097H227.696V23.5949H226.449V14.4097H223.213ZM234.811 23.7557C234.067 23.7557 233.425 23.5915 232.886 23.2632C232.35 22.9316 231.936 22.4693 231.645 21.8764C231.357 21.2802 231.213 20.5867 231.213 19.7962C231.213 19.0056 231.357 18.3089 231.645 17.7059C231.936 17.0996 232.342 16.6273 232.861 16.2889C233.384 15.9473 233.993 15.7764 234.69 15.7764C235.092 15.7764 235.489 15.8434 235.881 15.9774C236.273 16.1114 236.629 16.3291 236.951 16.6306C237.273 16.9287 237.529 17.324 237.72 17.8165C237.911 18.3089 238.006 18.9152 238.006 19.6354V20.1379H232.057V19.1128H236.8C236.8 18.6774 236.713 18.2888 236.539 17.9471C236.368 17.6054 236.124 17.3358 235.805 17.1381C235.491 16.9405 235.119 16.8417 234.69 16.8417C234.218 16.8417 233.809 16.9589 233.464 17.1934C233.122 17.4245 232.859 17.726 232.675 18.0978C232.491 18.4697 232.399 18.8683 232.399 19.2937V19.9771C232.399 20.5599 232.499 21.054 232.7 21.4594C232.904 21.8614 233.188 22.1679 233.549 22.3789C233.911 22.5866 234.332 22.6904 234.811 22.6904C235.122 22.6904 235.403 22.6469 235.655 22.5598C235.909 22.4693 236.129 22.3353 236.313 22.1578C236.497 21.9769 236.64 21.7525 236.74 21.4845L237.886 21.8061C237.765 22.1947 237.562 22.5363 237.278 22.8311C236.993 23.1226 236.641 23.3503 236.222 23.5145C235.804 23.6753 235.333 23.7557 234.811 23.7557ZM239.81 26.4891V15.8769H240.956V17.1029H241.096C241.184 16.9689 241.304 16.7981 241.458 16.5904C241.616 16.3794 241.84 16.1918 242.132 16.0276C242.426 15.8602 242.825 15.7764 243.327 15.7764C243.977 15.7764 244.55 15.9389 245.046 16.2638C245.542 16.5887 245.929 17.0493 246.207 17.6456C246.485 18.2419 246.624 18.9453 246.624 19.756C246.624 20.5733 246.485 21.2818 246.207 21.8814C245.929 22.4777 245.543 22.94 245.051 23.2683C244.558 23.5932 243.991 23.7557 243.348 23.7557C242.852 23.7557 242.455 23.6736 242.157 23.5095C241.859 23.342 241.629 23.1527 241.468 22.9417C241.308 22.7273 241.184 22.5497 241.096 22.409H240.996V26.4891H239.81ZM240.976 19.7359C240.976 20.3188 241.061 20.833 241.232 21.2785C241.403 21.7207 241.653 22.0674 241.981 22.3186C242.309 22.5665 242.711 22.6904 243.187 22.6904C243.683 22.6904 244.096 22.5598 244.428 22.2985C244.763 22.0339 245.014 21.6788 245.182 21.2333C245.352 20.7844 245.438 20.2853 245.438 19.7359C245.438 19.1932 245.354 18.7042 245.187 18.2687C245.022 17.8298 244.773 17.4831 244.438 17.2286C244.106 16.9706 243.689 16.8417 243.187 16.8417C242.704 16.8417 242.299 16.9639 241.971 17.2085C241.642 17.4496 241.395 17.788 241.227 18.2235C241.06 18.6556 240.976 19.1597 240.976 19.7359ZM248.433 26.4891V15.8769H249.578V17.1029H249.719C249.806 16.9689 249.927 16.7981 250.081 16.5904C250.238 16.3794 250.463 16.1918 250.754 16.0276C251.049 15.8602 251.447 15.7764 251.95 15.7764C252.6 15.7764 253.173 15.9389 253.668 16.2638C254.164 16.5887 254.551 17.0493 254.829 17.6456C255.107 18.2419 255.246 18.9453 255.246 19.756C255.246 20.5733 255.107 21.2818 254.829 21.8814C254.551 22.4777 254.166 22.94 253.673 23.2683C253.181 23.5932 252.613 23.7557 251.97 23.7557C251.474 23.7557 251.077 23.6736 250.779 23.5095C250.481 23.342 250.252 23.1527 250.091 22.9417C249.93 22.7273 249.806 22.5497 249.719 22.409H249.618V26.4891H248.433ZM249.598 19.7359C249.598 20.3188 249.684 20.833 249.855 21.2785C250.025 21.7207 250.275 22.0674 250.603 22.3186C250.932 22.5665 251.333 22.6904 251.809 22.6904C252.305 22.6904 252.719 22.5598 253.05 22.2985C253.385 22.0339 253.636 21.6788 253.804 21.2333C253.975 20.7844 254.06 20.2853 254.06 19.7359C254.06 19.1932 253.976 18.7042 253.809 18.2687C253.645 17.8298 253.395 17.4831 253.06 17.2286C252.729 16.9706 252.312 16.8417 251.809 16.8417C251.327 16.8417 250.921 16.9639 250.593 17.2085C250.265 17.4496 250.017 17.788 249.85 18.2235C249.682 18.6556 249.598 19.1597 249.598 19.7359ZM258.241 21.8463L261.959 15.8769H263.326V23.5949H262.14V17.6255L258.442 23.5949H257.055V15.8769H258.241V21.8463ZM264.448 16.9823V15.8769H270.718V16.9823H268.186V23.5949H267V16.9823H264.448ZM275.183 23.7557C274.486 23.7557 273.875 23.5899 273.349 23.2582C272.826 22.9266 272.418 22.4626 272.123 21.8664C271.831 21.2701 271.686 20.5733 271.686 19.7761C271.686 18.9721 271.831 18.2703 272.123 17.6707C272.418 17.0711 272.826 16.6055 273.349 16.2739C273.875 15.9422 274.486 15.7764 275.183 15.7764C275.88 15.7764 276.489 15.9422 277.012 16.2739C277.538 16.6055 277.947 17.0711 278.238 17.6707C278.533 18.2703 278.68 18.9721 278.68 19.7761C278.68 20.5733 278.533 21.2701 278.238 21.8664C277.947 22.4626 277.538 22.9266 277.012 23.2582C276.489 23.5899 275.88 23.7557 275.183 23.7557ZM275.183 22.6904C275.712 22.6904 276.148 22.5548 276.489 22.2834C276.831 22.0121 277.084 21.6553 277.248 21.2132C277.412 20.771 277.494 20.292 277.494 19.7761C277.494 19.2602 277.412 18.7795 277.248 18.334C277.084 17.8885 276.831 17.5284 276.489 17.2537C276.148 16.979 275.712 16.8417 275.183 16.8417C274.654 16.8417 274.218 16.979 273.876 17.2537C273.535 17.5284 273.282 17.8885 273.118 18.334C272.954 18.7795 272.872 19.2602 272.872 19.7761C272.872 20.292 272.954 20.771 273.118 21.2132C273.282 21.6553 273.535 22.0121 273.876 22.2834C274.218 22.5548 274.654 22.6904 275.183 22.6904ZM280.49 26.4891V15.8769H281.636V17.1029H281.777C281.864 16.9689 281.984 16.7981 282.138 16.5904C282.296 16.3794 282.52 16.1918 282.812 16.0276C283.106 15.8602 283.505 15.7764 284.008 15.7764C284.657 15.7764 285.23 15.9389 285.726 16.2638C286.222 16.5887 286.609 17.0493 286.887 17.6456C287.165 18.2419 287.304 18.9453 287.304 19.756C287.304 20.5733 287.165 21.2818 286.887 21.8814C286.609 22.4777 286.223 22.94 285.731 23.2683C285.239 23.5932 284.671 23.7557 284.028 23.7557C283.532 23.7557 283.135 23.6736 282.837 23.5095C282.539 23.342 282.309 23.1527 282.148 22.9417C281.988 22.7273 281.864 22.5497 281.777 22.409H281.676V26.4891H280.49ZM281.656 19.7359C281.656 20.3188 281.741 20.833 281.912 21.2785C282.083 21.7207 282.333 22.0674 282.661 22.3186C282.989 22.5665 283.391 22.6904 283.867 22.6904C284.363 22.6904 284.776 22.5598 285.108 22.2985C285.443 22.0339 285.694 21.6788 285.862 21.2333C286.033 20.7844 286.118 20.2853 286.118 19.7359C286.118 19.1932 286.034 18.7042 285.867 18.2687C285.703 17.8298 285.453 17.4831 285.118 17.2286C284.786 16.9706 284.369 16.8417 283.867 16.8417C283.385 16.8417 282.979 16.9639 282.651 17.2085C282.323 17.4496 282.075 17.788 281.907 18.2235C281.74 18.6556 281.656 19.1597 281.656 19.7359ZM290.299 21.8463L294.017 15.8769H295.384V23.5949H294.198V17.6255L290.5 23.5949H289.113V15.8769H290.299V21.8463ZM302.198 23.5949V16.9622H300.148C299.686 16.9622 299.323 17.0694 299.058 17.2838C298.793 17.4982 298.661 17.793 298.661 18.1682C298.661 18.5367 298.78 18.8264 299.018 19.0375C299.259 19.2485 299.589 19.354 300.008 19.354H302.5V20.4595H300.008C299.485 20.4595 299.034 20.3673 298.656 20.1831C298.277 19.9989 297.986 19.7359 297.782 19.3942C297.577 19.0492 297.475 18.6405 297.475 18.1682C297.475 17.6925 297.582 17.2838 297.797 16.9421C298.011 16.6005 298.318 16.3375 298.716 16.1533C299.118 15.969 299.596 15.8769 300.148 15.8769H303.324V23.5949H302.198ZM297.053 23.5949L299.244 19.756H300.53L298.339 23.5949H297.053Z" fill="white"/>
<path d="M226.751 44.8146C226.027 44.8146 225.404 44.6437 224.882 44.3021C224.359 43.9604 223.957 43.4897 223.676 42.8901C223.394 42.2905 223.254 41.6055 223.254 40.835C223.254 40.0511 223.398 39.3594 223.686 38.7598C223.977 38.1568 224.383 37.6862 224.902 37.3478C225.424 37.0062 226.034 36.8353 226.731 36.8353C227.273 36.8353 227.763 36.9358 228.198 37.1368C228.633 37.3378 228.99 37.6192 229.268 37.981C229.546 38.3427 229.719 38.7648 229.786 39.2472H228.6C228.51 38.8955 228.309 38.5839 227.997 38.3126C227.689 38.0379 227.273 37.9006 226.751 37.9006C226.289 37.9006 225.883 38.0212 225.535 38.2623C225.19 38.5002 224.92 38.8368 224.726 39.2723C224.535 39.7044 224.44 40.2119 224.44 40.7948C224.44 41.3911 224.533 41.9103 224.721 42.3525C224.912 42.7946 225.18 43.138 225.525 43.3825C225.873 43.6271 226.282 43.7493 226.751 43.7493C227.059 43.7493 227.339 43.6957 227.59 43.5886C227.841 43.4814 228.054 43.3273 228.228 43.1263C228.402 42.9253 228.526 42.6841 228.6 42.4027H229.786C229.719 42.8583 229.553 43.2686 229.288 43.6338C229.027 43.9956 228.68 44.2836 228.248 44.498C227.819 44.7091 227.32 44.8146 226.751 44.8146ZM237.469 36.9358V44.6538H236.283V36.9358H237.469ZM237.006 40.6139V41.7194C236.738 41.8199 236.472 41.9086 236.207 41.9857C235.943 42.0594 235.665 42.118 235.373 42.1615C235.082 42.2017 234.762 42.2218 234.414 42.2218C233.539 42.2218 232.837 41.9857 232.308 41.5133C231.782 41.041 231.519 40.3325 231.519 39.3879V36.9157H232.705V39.3879C232.705 39.7832 232.781 40.1081 232.931 40.3627C233.082 40.6173 233.286 40.8065 233.544 40.9305C233.802 41.0544 234.092 41.1164 234.414 41.1164C234.916 41.1164 235.37 41.0712 235.775 40.9807C236.184 40.8869 236.594 40.7647 237.006 40.6139ZM241.915 44.8347C241.426 44.8347 240.983 44.7426 240.584 44.5583C240.185 44.3707 239.869 44.1011 239.634 43.7493C239.4 43.3943 239.283 42.9655 239.283 42.463C239.283 42.0208 239.37 41.6624 239.544 41.3877C239.718 41.1097 239.951 40.892 240.242 40.7345C240.534 40.5771 240.855 40.4598 241.207 40.3828C241.562 40.3024 241.919 40.2387 242.277 40.1918C242.746 40.1315 243.126 40.0863 243.418 40.0562C243.713 40.0227 243.927 39.9674 244.061 39.8904C244.198 39.8133 244.267 39.6793 244.267 39.4884V39.4482C244.267 38.9524 244.131 38.5672 243.86 38.2925C243.592 38.0178 243.185 37.8805 242.639 37.8805C242.073 37.8805 241.629 38.0044 241.308 38.2523C240.986 38.5002 240.76 38.7648 240.629 39.0462L239.504 38.6442C239.705 38.1753 239.973 37.8101 240.308 37.5488C240.646 37.2842 241.014 37.1 241.413 36.9961C241.815 36.8889 242.21 36.8353 242.599 36.8353C242.847 36.8353 243.131 36.8655 243.453 36.9258C243.778 36.9827 244.091 37.1016 244.393 37.2825C244.698 37.4634 244.95 37.7364 245.151 38.1016C245.352 38.4667 245.453 38.9558 245.453 39.5688V44.6538H244.267V43.6087H244.207C244.126 43.7761 243.992 43.9554 243.805 44.1463C243.617 44.3372 243.368 44.4997 243.056 44.6337C242.745 44.7677 242.364 44.8347 241.915 44.8347ZM242.096 43.7694C242.565 43.7694 242.961 43.6773 243.282 43.4931C243.607 43.3088 243.852 43.071 244.016 42.7796C244.183 42.4881 244.267 42.1816 244.267 41.86V40.7747C244.217 40.835 244.106 40.8903 243.935 40.9405C243.768 40.9874 243.574 41.0293 243.353 41.0661C243.135 41.0996 242.922 41.1298 242.714 41.1566C242.51 41.18 242.344 41.2001 242.217 41.2169C241.909 41.2571 241.621 41.3224 241.353 41.4128C241.088 41.4999 240.874 41.6323 240.71 41.8098C240.549 41.984 240.468 42.2218 240.468 42.5233C240.468 42.9353 240.621 43.2469 240.926 43.4579C241.234 43.6656 241.624 43.7694 242.096 43.7694ZM250.753 44.8146C250.029 44.8146 249.406 44.6437 248.884 44.3021C248.361 43.9604 247.959 43.4897 247.678 42.8901C247.396 42.2905 247.256 41.6055 247.256 40.835C247.256 40.0511 247.4 39.3594 247.688 38.7598C247.979 38.1568 248.384 37.6862 248.904 37.3478C249.426 37.0062 250.036 36.8353 250.733 36.8353C251.275 36.8353 251.764 36.9358 252.2 37.1368C252.635 37.3378 252.992 37.6192 253.27 37.981C253.548 38.3427 253.721 38.7648 253.788 39.2472H252.602C252.511 38.8955 252.31 38.5839 251.999 38.3126C251.691 38.0379 251.275 37.9006 250.753 37.9006C250.29 37.9006 249.885 38.0212 249.537 38.2623C249.192 38.5002 248.922 38.8368 248.728 39.2723C248.537 39.7044 248.441 40.2119 248.441 40.7948C248.441 41.3911 248.535 41.9103 248.723 42.3525C248.914 42.7946 249.182 43.138 249.527 43.3825C249.875 43.6271 250.284 43.7493 250.753 43.7493C251.061 43.7493 251.341 43.6957 251.592 43.5886C251.843 43.4814 252.056 43.3273 252.23 43.1263C252.404 42.9253 252.528 42.6841 252.602 42.4027H253.788C253.721 42.8583 253.555 43.2686 253.29 43.6338C253.029 43.9956 252.682 44.2836 252.25 44.498C251.821 44.7091 251.322 44.8146 250.753 44.8146ZM254.913 38.0413V36.9358H261.184V38.0413H258.652V44.6538H257.466V38.0413H254.913ZM261.581 44.6538V43.5484H261.862C262.094 43.5484 262.286 43.5031 262.44 43.4127C262.594 43.3189 262.718 43.1564 262.812 42.9253C262.909 42.6908 262.983 42.3659 263.033 41.9505C263.087 41.5318 263.125 40.9991 263.149 40.3526L263.289 36.9358H268.435V44.6538H267.249V38.0413H264.415L264.294 40.7948C264.268 41.4279 264.211 41.9857 264.124 42.468C264.04 42.9471 263.911 43.349 263.737 43.674C263.566 43.9989 263.338 44.2434 263.053 44.4076C262.769 44.5717 262.412 44.6538 261.983 44.6538H261.581ZM271.796 42.9052L275.515 36.9358H276.881V44.6538H275.695V38.6844L271.997 44.6538H270.61V36.9358H271.796V42.9052ZM279.053 44.6538V36.9358H282.209C283.039 36.9358 283.699 37.1234 284.188 37.4986C284.678 37.8738 284.922 38.3695 284.922 38.9859C284.922 39.4549 284.783 39.8183 284.505 40.0763C284.227 40.3309 283.87 40.5034 283.435 40.5938C283.719 40.634 283.996 40.7345 284.264 40.8953C284.535 41.0561 284.76 41.2772 284.937 41.5586C285.115 41.8366 285.203 42.1783 285.203 42.5836C285.203 42.9789 285.103 43.3323 284.902 43.6438C284.701 43.9554 284.413 44.2016 284.038 44.3825C283.663 44.5633 283.214 44.6538 282.691 44.6538H279.053ZM280.179 43.5685H282.691C283.1 43.5685 283.42 43.4713 283.651 43.277C283.882 43.0827 283.998 42.8181 283.998 42.4831C283.998 42.0845 283.882 41.7713 283.651 41.5435C283.42 41.3124 283.1 41.1968 282.691 41.1968H280.179V43.5685ZM280.179 40.1717H282.209C282.527 40.1717 282.8 40.1282 283.028 40.0411C283.256 39.9507 283.43 39.8234 283.55 39.6592C283.674 39.4917 283.736 39.2941 283.736 39.0663C283.736 38.7414 283.601 38.4868 283.329 38.3025C283.058 38.115 282.684 38.0212 282.209 38.0212H280.179V40.1717ZM290.134 44.8146C289.437 44.8146 288.826 44.6488 288.3 44.3171C287.777 43.9855 287.369 43.5216 287.074 42.9253C286.782 42.329 286.637 41.6323 286.637 40.835C286.637 40.0311 286.782 39.3293 287.074 38.7296C287.369 38.13 287.777 37.6644 288.3 37.3328C288.826 37.0011 289.437 36.8353 290.134 36.8353C290.831 36.8353 291.44 37.0011 291.963 37.3328C292.489 37.6644 292.898 38.13 293.189 38.7296C293.484 39.3293 293.631 40.0311 293.631 40.835C293.631 41.6323 293.484 42.329 293.189 42.9253C292.898 43.5216 292.489 43.9855 291.963 44.3171C291.44 44.6488 290.831 44.8146 290.134 44.8146ZM290.134 43.7493C290.663 43.7493 291.099 43.6137 291.44 43.3423C291.782 43.071 292.035 42.7143 292.199 42.2721C292.363 41.8299 292.445 41.3509 292.445 40.835C292.445 40.3191 292.363 39.8384 292.199 39.3929C292.035 38.9474 291.782 38.5873 291.44 38.3126C291.099 38.0379 290.663 37.9006 290.134 37.9006C289.605 37.9006 289.169 38.0379 288.828 38.3126C288.486 38.5873 288.233 38.9474 288.069 39.3929C287.905 39.8384 287.823 40.3191 287.823 40.835C287.823 41.3509 287.905 41.8299 288.069 42.2721C288.233 42.7143 288.486 43.071 288.828 43.3423C289.169 43.6137 289.605 43.7493 290.134 43.7493ZM300.205 36.9358V38.0413H296.627V44.6538H295.441V36.9358H300.205ZM304.67 44.8146C303.974 44.8146 303.362 44.6488 302.836 44.3171C302.314 43.9855 301.905 43.5216 301.61 42.9253C301.319 42.329 301.173 41.6323 301.173 40.835C301.173 40.0311 301.319 39.3293 301.61 38.7296C301.905 38.13 302.314 37.6644 302.836 37.3328C303.362 37.0011 303.974 36.8353 304.67 36.8353C305.367 36.8353 305.977 37.0011 306.499 37.3328C307.025 37.6644 307.434 38.13 307.726 38.7296C308.02 39.3293 308.168 40.0311 308.168 40.835C308.168 41.6323 308.02 42.329 307.726 42.9253C307.434 43.5216 307.025 43.9855 306.499 44.3171C305.977 44.6488 305.367 44.8146 304.67 44.8146ZM304.67 43.7493C305.2 43.7493 305.635 43.6137 305.977 43.3423C306.319 43.071 306.572 42.7143 306.736 42.2721C306.9 41.8299 306.982 41.3509 306.982 40.835C306.982 40.3191 306.9 39.8384 306.736 39.3929C306.572 38.9474 306.319 38.5873 305.977 38.3126C305.635 38.0379 305.2 37.9006 304.67 37.9006C304.141 37.9006 303.706 38.0379 303.364 38.3126C303.022 38.5873 302.769 38.9474 302.605 39.3929C302.441 39.8384 302.359 40.3191 302.359 40.835C302.359 41.3509 302.441 41.8299 302.605 42.2721C302.769 42.7143 303.022 43.071 303.364 43.3423C303.706 43.6137 304.141 43.7493 304.67 43.7493ZM317.093 47.2867V34.3632H318.279V47.2867H317.093ZM317.093 44.8146C316.57 44.8146 316.095 44.7208 315.666 44.5332C315.237 44.3423 314.869 44.0726 314.56 43.7242C314.252 43.3725 314.014 42.9521 313.847 42.463C313.679 41.9739 313.596 41.4313 313.596 40.835C313.596 40.232 313.679 39.686 313.847 39.1969C314.014 38.7045 314.252 38.2824 314.56 37.9307C314.869 37.579 315.237 37.3093 315.666 37.1217C316.095 36.9308 316.57 36.8353 317.093 36.8353H317.455V44.8146H317.093ZM317.093 43.7493H317.294V37.9006H317.093C316.698 37.9006 316.354 37.981 316.063 38.1418C315.771 38.2992 315.53 38.5153 315.339 38.7899C315.152 39.0613 315.011 39.3728 314.917 39.7245C314.827 40.0763 314.781 40.4464 314.781 40.835C314.781 41.3509 314.864 41.8299 315.028 42.2721C315.192 42.7143 315.445 43.071 315.786 43.3423C316.128 43.6137 316.564 43.7493 317.093 43.7493ZM318.279 44.8146H317.917V36.8353H318.279C318.801 36.8353 319.277 36.9308 319.706 37.1217C320.134 37.3093 320.503 37.579 320.811 37.9307C321.119 38.2824 321.357 38.7045 321.525 39.1969C321.692 39.686 321.776 40.232 321.776 40.835C321.776 41.4313 321.692 41.9739 321.525 42.463C321.357 42.9521 321.119 43.3725 320.811 43.7242C320.503 44.0726 320.134 44.3423 319.706 44.5332C319.277 44.7208 318.801 44.8146 318.279 44.8146ZM318.279 43.7493C318.677 43.7493 319.021 43.6723 319.309 43.5182C319.6 43.3608 319.84 43.1464 320.027 42.875C320.218 42.6004 320.359 42.2888 320.449 41.9404C320.543 41.5887 320.59 41.2202 320.59 40.835C320.59 40.3191 320.508 39.8384 320.344 39.3929C320.18 38.9474 319.927 38.5873 319.585 38.3126C319.243 38.0379 318.808 37.9006 318.279 37.9006H318.078V43.7493H318.279ZM326.824 44.8146C326.081 44.8146 325.439 44.6504 324.9 44.3222C324.364 43.9905 323.95 43.5283 323.659 42.9353C323.371 42.3391 323.227 41.6457 323.227 40.8551C323.227 40.0645 323.371 39.3678 323.659 38.7648C323.95 38.1585 324.356 37.6862 324.875 37.3478C325.397 37.0062 326.007 36.8353 326.704 36.8353C327.106 36.8353 327.503 36.9023 327.895 37.0363C328.287 37.1703 328.643 37.388 328.965 37.6895C329.287 37.9877 329.543 38.3829 329.734 38.8754C329.925 39.3678 330.02 39.9741 330.02 40.6943V41.1968H324.071V40.1717H328.814C328.814 39.7363 328.727 39.3477 328.553 39.006C328.382 38.6643 328.138 38.3947 327.819 38.197C327.504 37.9994 327.133 37.9006 326.704 37.9006C326.232 37.9006 325.823 38.0178 325.478 38.2523C325.136 38.4834 324.873 38.7849 324.689 39.1567C324.505 39.5286 324.413 39.9272 324.413 40.3526V41.036C324.413 41.6189 324.513 42.113 324.714 42.5183C324.918 42.9203 325.201 43.2268 325.563 43.4378C325.925 43.6455 326.345 43.7493 326.824 43.7493C327.136 43.7493 327.417 43.7058 327.669 43.6187C327.923 43.5283 328.143 43.3943 328.327 43.2167C328.511 43.0358 328.653 42.8114 328.754 42.5434L329.9 42.865C329.779 43.2536 329.576 43.5953 329.292 43.89C329.007 44.1815 328.655 44.4093 328.236 44.5734C327.818 44.7342 327.347 44.8146 326.824 44.8146ZM331.824 47.548V36.9358H332.97V38.1619H333.11C333.198 38.0279 333.318 37.857 333.472 37.6493C333.63 37.4383 333.854 37.2507 334.145 37.0866C334.44 36.9191 334.839 36.8353 335.341 36.8353C335.991 36.8353 336.564 36.9978 337.06 37.3227C337.556 37.6477 337.943 38.1083 338.221 38.7045C338.499 39.3008 338.638 40.0043 338.638 40.8149C338.638 41.6323 338.499 42.3407 338.221 42.9404C337.943 43.5366 337.557 43.9989 337.065 44.3272C336.572 44.6521 336.005 44.8146 335.361 44.8146C334.866 44.8146 334.469 44.7325 334.171 44.5684C333.872 44.4009 333.643 44.2116 333.482 44.0006C333.321 43.7862 333.198 43.6087 333.11 43.468H333.01V47.548H331.824ZM332.99 40.7948C332.99 41.3777 333.075 41.8919 333.246 42.3374C333.417 42.7796 333.666 43.1263 333.995 43.3775C334.323 43.6254 334.725 43.7493 335.201 43.7493C335.696 43.7493 336.11 43.6187 336.442 43.3574C336.777 43.0928 337.028 42.7377 337.196 42.2922C337.366 41.8433 337.452 41.3442 337.452 40.7948C337.452 40.2521 337.368 39.7631 337.201 39.3276C337.036 38.8888 336.787 38.5421 336.452 38.2875C336.12 38.0295 335.703 37.9006 335.201 37.9006C334.718 37.9006 334.313 38.0228 333.985 38.2674C333.656 38.5086 333.409 38.8469 333.241 39.2824C333.074 39.7145 332.99 40.2186 332.99 40.7948ZM344.667 43.0459L347.361 36.9358H348.486L345.15 44.6538H344.185L340.909 36.9358H342.014L344.667 43.0459ZM341.632 36.9358V44.6538H340.446V36.9358H341.632ZM347.702 44.6538V36.9358H348.888V44.6538H347.702ZM354.295 44.8146C353.551 44.8146 352.909 44.6504 352.37 44.3222C351.834 43.9905 351.42 43.5283 351.129 42.9353C350.841 42.3391 350.697 41.6457 350.697 40.8551C350.697 40.0645 350.841 39.3678 351.129 38.7648C351.42 38.1585 351.826 37.6862 352.345 37.3478C352.868 37.0062 353.477 36.8353 354.174 36.8353C354.576 36.8353 354.973 36.9023 355.365 37.0363C355.757 37.1703 356.114 37.388 356.435 37.6895C356.757 37.9877 357.013 38.3829 357.204 38.8754C357.395 39.3678 357.49 39.9741 357.49 40.6943V41.1968H351.541V40.1717H356.284C356.284 39.7363 356.197 39.3477 356.023 39.006C355.852 38.6643 355.608 38.3947 355.29 38.197C354.975 37.9994 354.603 37.9006 354.174 37.9006C353.702 37.9006 353.293 38.0178 352.948 38.2523C352.606 38.4834 352.343 38.7849 352.159 39.1567C351.975 39.5286 351.883 39.9272 351.883 40.3526V41.036C351.883 41.6189 351.983 42.113 352.184 42.5183C352.389 42.9203 352.672 43.2268 353.033 43.4378C353.395 43.6455 353.816 43.7493 354.295 43.7493C354.606 43.7493 354.888 43.7058 355.139 43.6187C355.393 43.5283 355.613 43.3943 355.797 43.2167C355.981 43.0358 356.124 42.8114 356.224 42.5434L357.37 42.865C357.249 43.2536 357.046 43.5953 356.762 43.89C356.477 44.1815 356.125 44.4093 355.707 44.5734C355.288 44.7342 354.817 44.8146 354.295 44.8146ZM359.294 47.548V36.9358H360.44V38.1619H360.581C360.668 38.0279 360.788 37.857 360.942 37.6493C361.1 37.4383 361.324 37.2507 361.616 37.0866C361.91 36.9191 362.309 36.8353 362.812 36.8353C363.461 36.8353 364.034 36.9978 364.53 37.3227C365.026 37.6477 365.413 38.1083 365.691 38.7045C365.969 39.3008 366.108 40.0043 366.108 40.8149C366.108 41.6323 365.969 42.3407 365.691 42.9404C365.413 43.5366 365.027 43.9989 364.535 44.3272C364.043 44.6521 363.475 44.8146 362.832 44.8146C362.336 44.8146 361.939 44.7325 361.641 44.5684C361.343 44.4009 361.113 44.2116 360.952 44.0006C360.792 43.7862 360.668 43.6087 360.581 43.468H360.48V47.548H359.294ZM360.46 40.7948C360.46 41.3777 360.545 41.8919 360.716 42.3374C360.887 42.7796 361.137 43.1263 361.465 43.3775C361.793 43.6254 362.195 43.7493 362.671 43.7493C363.167 43.7493 363.58 43.6187 363.912 43.3574C364.247 43.0928 364.498 42.7377 364.666 42.2922C364.836 41.8433 364.922 41.3442 364.922 40.7948C364.922 40.2521 364.838 39.7631 364.671 39.3276C364.507 38.8888 364.257 38.5421 363.922 38.2875C363.59 38.0295 363.173 37.9006 362.671 37.9006C362.188 37.9006 361.783 38.0228 361.455 38.2674C361.127 38.5086 360.879 38.8469 360.711 39.2824C360.544 39.7145 360.46 40.2186 360.46 40.7948ZM370.188 44.8347C369.699 44.8347 369.255 44.7426 368.856 44.5583C368.458 44.3707 368.141 44.1011 367.907 43.7493C367.672 43.3943 367.555 42.9655 367.555 42.463C367.555 42.0208 367.642 41.6624 367.816 41.3877C367.99 41.1097 368.223 40.892 368.515 40.7345C368.806 40.5771 369.128 40.4598 369.479 40.3828C369.834 40.3024 370.191 40.2387 370.55 40.1918C371.019 40.1315 371.399 40.0863 371.69 40.0562C371.985 40.0227 372.199 39.9674 372.333 39.8904C372.471 39.8133 372.539 39.6793 372.539 39.4884V39.4482C372.539 38.9524 372.404 38.5672 372.132 38.2925C371.864 38.0178 371.457 37.8805 370.911 37.8805C370.345 37.8805 369.901 38.0044 369.58 38.2523C369.258 38.5002 369.032 38.7648 368.901 39.0462L367.776 38.6442C367.977 38.1753 368.245 37.8101 368.58 37.5488C368.918 37.2842 369.287 37.1 369.685 36.9961C370.087 36.8889 370.483 36.8353 370.871 36.8353C371.119 36.8353 371.404 36.8655 371.725 36.9258C372.05 36.9827 372.364 37.1016 372.665 37.2825C372.97 37.4634 373.223 37.7364 373.424 38.1016C373.625 38.4667 373.725 38.9558 373.725 39.5688V44.6538H372.539V43.6087H372.479C372.399 43.7761 372.265 43.9554 372.077 44.1463C371.89 44.3372 371.64 44.4997 371.328 44.6337C371.017 44.7677 370.637 44.8347 370.188 44.8347ZM370.369 43.7694C370.838 43.7694 371.233 43.6773 371.555 43.4931C371.879 43.3088 372.124 43.071 372.288 42.7796C372.456 42.4881 372.539 42.1816 372.539 41.86V40.7747C372.489 40.835 372.379 40.8903 372.208 40.9405C372.04 40.9874 371.846 41.0293 371.625 41.0661C371.407 41.0996 371.194 41.1298 370.987 41.1566C370.782 41.18 370.617 41.2001 370.489 41.2169C370.181 41.2571 369.893 41.3224 369.625 41.4128C369.36 41.4999 369.146 41.6323 368.982 41.8098C368.821 41.984 368.741 42.2218 368.741 42.5233C368.741 42.9353 368.893 43.2469 369.198 43.4579C369.506 43.6656 369.896 43.7694 370.369 43.7694Z" fill="white"/>
<path d="M141.372 14.6632H107.642V23.2336H141.372V14.6632Z" fill="white"/>
<path d="M12.231 18.3887C12.4847 17.7831 12.7837 17.2233 13.1279 16.7095C13.4722 16.1956 13.9343 15.7735 14.496 15.4157C15.0668 15.067 15.7644 14.7917 16.5979 14.599C17.4314 14.4063 18.4915 14.3145 19.787 14.3145C20.5753 14.3145 21.3363 14.3513 22.0792 14.4338C22.8221 14.5164 23.5107 14.6908 24.154 14.9569C24.7972 15.2322 25.3952 15.6359 25.9478 16.1773C26.5005 16.7187 26.9626 17.4527 27.3431 18.3795L39.5831 48.1923H28.3397L25.7395 41.3012H13.8346L11.2344 48.1923H0L12.231 18.3887ZM16.3895 33.6484H23.1936L20.2129 25.1789C20.1494 25.0505 20.077 24.9037 20.0045 24.7201C19.9229 24.5458 19.8505 24.454 19.7961 24.454C19.7327 24.454 19.6602 24.5458 19.5877 24.7201C19.5062 24.8945 19.4337 25.0505 19.3793 25.1789L16.3895 33.6484Z" fill="white"/>
<path d="M41.0961 39.8697H59.4245C60.2128 39.8697 60.711 39.7596 60.9375 39.5394C61.155 39.3192 61.2637 39.0806 61.2637 38.8237C61.2637 38.2823 61.0463 37.9061 60.6023 37.695C60.1584 37.484 59.6692 37.3004 59.1346 37.1445L46.3328 33.5108C45.3543 33.2538 44.5661 32.8776 43.9682 32.3821C43.3702 31.8866 42.8991 31.4186 42.5548 30.969C41.7666 29.9138 41.2683 28.7209 41.069 27.3812C40.8606 26.0415 40.7609 24.7477 40.7609 23.5089C40.7609 22.4537 40.8606 21.325 41.069 20.1138C41.2773 18.9026 41.8662 17.8014 42.8447 16.8104C43.3793 16.2691 44.1041 15.7827 45.0191 15.3515C45.9342 14.9202 47.0939 14.7091 48.5163 14.7091H70.3418V23.0318H53.5265C52.8923 23.0318 52.4664 23.0501 52.249 23.0776C52.0316 23.1143 51.8685 23.1602 51.7779 23.2245C51.4336 23.4172 51.2615 23.72 51.2615 24.1329C51.2615 24.6743 51.5695 25.078 52.1856 25.3258C52.8017 25.5827 53.4178 25.7846 54.052 25.9497L65.2048 28.9686C65.9296 29.1613 66.7269 29.4458 67.5876 29.8312C68.4573 30.2166 69.1821 30.7121 69.7892 31.3177C70.2965 31.8316 70.7042 32.4096 71.0213 33.0611C71.3384 33.7126 71.5649 34.3825 71.7099 35.0707C71.8548 35.7589 71.9454 36.4379 71.9907 37.1078C72.036 37.7776 72.0632 38.4016 72.0632 38.9705C72.0632 39.9615 71.9817 41.0626 71.8277 42.2738C71.6736 43.4851 71.2116 44.6045 70.4596 45.6231C69.9885 46.2654 69.4811 46.7517 68.9466 47.1096C68.412 47.4583 67.8503 47.7152 67.2705 47.8712C66.6906 48.0272 66.1017 48.1281 65.5219 48.1557C64.9421 48.1924 64.3622 48.2015 63.8005 48.2015H41.0961V39.8697Z" fill="white"/>
<path d="M83.805 18.3887C84.0587 17.7831 84.3577 17.2233 84.7019 16.7095C85.0462 16.1956 85.5083 15.7735 86.07 15.4157C86.6408 15.067 87.3384 14.7917 88.1719 14.599C89.0055 14.4063 90.0655 14.3145 91.361 14.3145C92.1493 14.3145 92.9103 14.3513 93.6532 14.4338C94.3961 14.5164 95.0847 14.6908 95.728 14.9569C96.3712 15.2322 96.9692 15.6359 97.5218 16.1773C98.0745 16.7187 98.5366 17.4527 98.9171 18.3795L111.157 48.1923H99.9137L97.3135 41.3012H85.4086L82.8084 48.1923H71.5649L83.805 18.3887ZM87.9635 33.6484H94.7676L91.7869 25.1789C91.7234 25.0505 91.651 24.9037 91.5785 24.7201C91.4969 24.5458 91.4245 24.454 91.3701 24.454C91.3067 24.454 91.2342 24.5458 91.1617 24.7201C91.0802 24.8945 91.0077 25.0505 90.9533 25.1789L87.9635 33.6484Z" fill="white"/>
<path d="M150.242 18.196C150.496 17.5904 150.795 17.0306 151.139 16.5168C151.483 16.0029 151.945 15.5717 152.516 15.223C153.087 14.8743 153.784 14.599 154.627 14.4063C155.461 14.2136 156.53 14.1219 157.825 14.1219C158.613 14.1219 159.384 14.1586 160.126 14.2411C160.869 14.3237 161.567 14.4981 162.21 14.7733C162.863 15.0486 163.461 15.4524 164.013 16.0029C164.566 16.5443 165.037 17.2876 165.408 18.2143L177.694 48.1465H166.405L163.796 41.2278H151.855L149.245 48.1465H137.957L150.242 18.196ZM154.419 33.5199H161.25L158.26 25.0138C158.197 24.8853 158.124 24.7293 158.043 24.555C157.961 24.3806 157.889 24.2889 157.825 24.2889C157.762 24.2889 157.689 24.3806 157.608 24.555C157.526 24.7293 157.454 24.8853 157.39 25.0138L154.419 33.5199Z" fill="white"/>
<path d="M209.032 43.0813C209.032 44.2008 208.833 45.0633 208.443 45.6781C208.045 46.2838 207.71 46.715 207.42 46.972C206.505 47.7427 205.318 48.1281 203.859 48.1281H188.158C186.799 48.1281 185.331 47.8987 183.773 47.4308C182.206 46.9628 180.883 46.2562 179.814 45.2927C178.899 44.4944 178.174 43.5218 177.658 42.384C177.132 41.2461 176.742 40.0624 176.471 38.8328C176.199 37.6033 176.027 36.3553 175.945 35.089C175.864 33.8227 175.827 32.6299 175.827 31.5104C175.827 30.1615 175.873 28.7943 175.972 27.3995C176.063 26.0048 176.271 24.6559 176.588 23.3438C176.906 22.0316 177.377 20.8112 178.011 19.6917C178.645 18.5722 179.497 17.6087 180.575 16.8104C181.336 16.2323 182.16 15.7919 183.039 15.4891C183.927 15.1863 184.761 14.9569 185.549 14.8192C186.337 14.6724 187.044 14.5898 187.66 14.5531C188.276 14.5256 188.693 14.5073 188.919 14.5073H208.271V22.4812H193.757C191.103 22.4812 189.191 23.408 188.013 25.2707C187.442 26.1975 187.107 27.2068 186.989 28.2988C186.881 29.3907 186.826 30.4001 186.826 31.3269C186.826 32.2536 186.881 33.263 186.989 34.355C187.098 35.4469 187.451 36.4838 188.058 37.4748C188.656 38.4016 189.354 39.0163 190.142 39.3283C190.93 39.6311 191.782 39.7871 192.706 39.7871H195.932C196.212 39.7871 196.52 39.7596 196.856 39.7137C197.191 39.6679 197.481 39.5119 197.735 39.2549C197.988 38.998 198.142 38.6952 198.206 38.3465C198.269 37.9978 198.296 37.64 198.296 37.2913V30.3726H209.014V43.0813H209.032Z" fill="white"/>
<mask id="mask0_1_8" style="mask-type:luminance" maskUnits="userSpaceOnUse" x="117" y="25" width="15" height="24">
<path d="M125.064 27.528C125.082 27.5096 125.1 27.4913 125.119 27.4729C125.291 27.3078 125.644 27.2619 125.789 27.2527C126.278 27.2619 127.03 27.2619 127.538 27.2711C127.619 27.2711 127.701 27.2711 127.764 27.2711C127.909 27.2802 128.108 27.317 128.281 27.3995C128.344 27.4454 128.398 27.4821 128.398 27.4821C128.398 27.4821 129.223 28.0052 129.404 28.1153C129.585 28.2346 129.621 28.6934 129.621 28.6934C129.621 28.6934 129.63 29.7945 129.649 30.0514C129.667 30.3083 129.775 30.4093 129.676 30.7121C129.585 31.0608 127.9 30.9965 127.9 30.9965C127.9 30.9965 126.858 30.969 126.405 30.5102C126.405 30.5102 125.091 29.5284 124.176 29.0145C124.176 29.0145 124.086 28.9411 123.932 28.8493C123.905 28.7759 123.914 28.7025 123.95 28.6383C123.986 28.5741 124.185 28.3905 124.33 28.2713C124.376 28.2437 124.421 28.207 124.466 28.1611C124.657 27.9776 124.892 27.7207 125.064 27.528ZM120.407 25.858H118.804C118.804 25.858 118.604 25.8213 118.459 26.0507C118.315 26.2801 118.333 26.4452 118.333 26.4452V27.3812C118.333 27.3812 118.206 27.3812 118.215 27.5096C118.215 27.5922 118.287 27.6381 118.305 27.6381V27.9501C118.305 27.9501 118.305 27.9501 118.296 27.9501C118.287 27.9501 118.287 27.9501 118.278 27.9593H118.269H118.26H118.251C118.242 27.9593 118.242 27.9593 118.233 27.9593C118.224 27.9593 118.215 27.9593 118.215 27.9684C118.206 27.9684 118.206 27.9684 118.197 27.9776C117.617 28.1428 117.345 31.0057 117.227 31.7948C117.11 32.5931 117.227 32.9051 117.227 32.9051C117.381 33.1621 117.381 33.4465 117.381 33.4465V45.7424C117.381 46.1186 117.409 46.1461 117.717 47.183C118.025 48.2199 118.695 48.2199 118.695 48.2199H129.966C129.966 48.2199 130.636 48.2199 131.125 47.6418C131.741 46.9077 131.705 45.9442 131.705 45.9442L131.732 33.3089V33.2722C131.741 33.263 131.741 33.263 131.741 33.263C131.778 33.263 131.895 33.2263 131.941 32.8593C132.086 31.8499 131.606 31.5654 131.361 31.4462C131.116 31.3269 130.999 31.2167 130.999 30.9598C130.999 30.7029 131.134 30.6754 131.153 30.29C131.153 30.29 131.134 28.8952 131.153 28.5649C131.008 27.4638 130.79 27.3812 129.929 26.693C129.078 26.0048 128.199 25.8855 128.199 25.8855C128.199 25.8855 125.925 25.858 125.254 25.8855C124.584 25.913 124.493 26.1057 124.493 26.1057C124.493 26.1057 123.397 27.2986 122.935 27.7023C122.826 27.7941 122.745 27.8583 122.672 27.9042C122.636 27.9226 122.518 27.9776 122.518 27.7758V27.6381C122.536 27.6381 122.609 27.5831 122.609 27.5096C122.609 27.3812 122.491 27.3812 122.491 27.3812V26.4452C122.491 26.4452 122.509 26.2801 122.364 26.0507C122.219 25.8213 122.02 25.858 122.02 25.858H120.407Z" fill="white"/>
</mask>
<g mask="url(#mask0_1_8)">
<path d="M132.086 25.8121H117.101V48.2199H132.086V25.8121Z" fill="url(#paint0_linear_1_8)"/>
</g>
<path d="M119.71 40.2551C119.71 40.2551 120.045 41.292 119.873 43.1547C119.71 45.0175 120.706 47.2564 123.089 47.1371C123.089 47.1371 123.089 45.1092 121.06 41.9251C121.06 41.9251 123.298 44.1916 124.131 46.559C124.131 46.559 126.043 43.8337 123.796 42.283C123.288 41.9251 120.498 40.9066 119.71 40.2551Z" fill="black"/>
<path d="M129.214 34.8596C129.214 34.8596 127.71 35.7313 126.713 36.2085C125.717 36.6948 123.542 38.0437 123.017 38.5025C122.491 38.9613 121.848 40.0257 121.775 40.7506C121.775 40.7506 123.886 41.3379 124.684 42.6317C124.684 42.6317 125.925 39.8055 125.997 39.6862C126.07 39.5669 126.822 38.374 127.356 37.7592C127.356 37.7592 124.783 42.806 124.928 46.5957C124.928 46.5957 128.715 46.403 129.386 42.6867C129.794 40.4386 129.241 38.2731 129.241 38.2731C129.241 38.2731 128.942 35.9607 129.214 34.8596Z" fill="black"/>
<defs>
<linearGradient id="paint0_linear_1_8" x1="117.147" y1="36.9832" x2="131.948" y2="36.9832" gradientUnits="userSpaceOnUse">
<stop stop-color="#ABF538"/>
<stop offset="1" stop-color="#FED919"/>
</linearGradient>
</defs>
</svg>
