<?xml version="1.0" encoding="utf-8"?>
<!-- Generator: Adobe Illustrator 24.3.0, SVG Export Plug-In . SVG Version: 6.00 Build 0)  -->
<svg version="1.1" id="Слой_1" xmlns="http://www.w3.org/2000/svg" xmlns:xlink="http://www.w3.org/1999/xlink" x="0px" y="0px"
	 viewBox="0 0 300 300" style="enable-background:new 0 0 300 300;" xml:space="preserve">
<style type="text/css">
	.st0{display:none;}
	.st1{display:inline;}
	.st2{fill:#FFFFFF;}
</style>
<g class="st0">
	<rect class="st1" width="300" height="300"/>
</g>
<g id="Слой_2_1_">
	<g>
		<path class="st2" d="M233.7,115c-2.2-2.2-5.9-2.2-8.1,0c-2.2,2.2-2.2,5.9,0,8.1l40.8,40.7c6.5,6.5,6.5,17,0,23.5l-79,79
			c-6.5,6.5-17,6.5-23.5,0l-40.8-40.7c-2.2-2.2-5.9-2.2-8.1,0c-2.2,2.2-2.2,5.9,0,8.1l40.8,40.7c5.5,5.4,12.6,8.2,19.8,8.2
			c7.2,0,14.4-2.7,19.8-8.2l79-79c10.9-10.9,10.9-28.7,0-39.7L233.7,115z"/>
		<path class="st2" d="M176.6,235.9c-0.6,0.6-1.3,0.7-1.6,0.7c-0.4,0-1-0.1-1.6-0.7l-30.3-30.3c-2.2-2.2-5.9-2.2-8.1,0
			c-2.2,2.2-2.2,5.9,0,8.1l30.2,30.2c2.6,2.6,6,4.1,9.7,4.1c0,0,0,0,0,0c3.7,0,7.1-1.4,9.7-4l59.3-59.3c2.6-2.6,4-6.1,4-9.7
			c0-3.7-1.4-7.1-4-9.7L213.7,135c-2.2-2.2-5.9-2.2-8.1,0c-2.2,2.2-2.2,5.9,0,8.1l30.3,30.3c0.5,0.5,0.7,1.2,0.7,1.6
			c0,0.3-0.1,1-0.7,1.6L176.6,235.9z"/>
		<path class="st2" d="M298.3,2.7c-2.2-2.2-5.9-2.2-8.1,0l-84.5,84.5l-61.4-61.4c-4.9-4.9-21.8-7.3-50.3-7.4
			c-9.3,0-56.2,0.5-64.9,9.2l-1.6,1.5c-0.2,0.2-0.4,0.5-0.6,0.7C13.2,21.7,13.5,14.6,13.7,9.7c0.1-3.2-2.3-5.8-5.4-6
			C5.2,3.7,2.5,6,2.3,9.2C1.7,22.7,7.7,32.2,22.7,40.5c-3.1,13-4,32.9-4.3,46.1c-0.3,18.5,0.1,50.6,7.3,57.7l61.4,61.5L2.7,290.2
			c-2.2,2.2-2.2,5.9,0,8.1c1.1,1.1,2.6,1.7,4,1.7s2.9-0.6,4-1.7L298.3,10.7C300.6,8.5,300.6,4.9,298.3,2.7z M34,136.4
			c-5.6-7.9-5.4-67.8-1-90.9c0.2,0.1,0.4,0.2,0.6,0.3c4.7,1.9,8.3,4.1,10.9,6.3c-2.4,3.8-3.7,8.3-3.7,12.9c0,6.5,2.5,12.6,7.1,17.2
			c4.6,4.6,10.7,7.2,17.2,7.2c6.5,0,12.6-2.5,17.2-7.1c4.6-4.6,7.1-10.7,7.1-17.2c0-6.5-2.5-12.6-7.1-17.2
			c-4.6-4.6-10.7-7.1-17.2-7.1c-4.4,0-8.7,1.2-12.4,3.4c-3.6-3.3-8.5-6.3-14.6-8.8c12.8-6.5,89.3-7.7,98.2-1.4l61.4,61.4l-11.9,11.9
			l-44.5-44.5c-2.6-2.6-6-4-9.7-4c-3.7,0-7.1,1.4-9.7,4l-59.3,59.3c-2.6,2.6-4.1,6-4.1,9.7c0,3.7,1.4,7.1,4,9.7l44.5,44.5
			l-11.9,11.9L34,136.4z M59.4,54.4c-0.1-0.3-0.2-0.5-0.3-0.8c1.8-1,3.8-1.5,5.9-1.5c3.4,0,6.7,1.3,9.1,3.8c2.4,2.4,3.8,5.7,3.8,9.2
			c0,3.4-1.3,6.7-3.8,9.1c-2.4,2.4-5.7,3.8-9.1,3.8c-3.4,0-6.7-1.3-9.1-3.8c-0.5-0.5-0.9-1-1.3-1.6c0.6-0.5,1.2-1.1,1.7-1.8
			C57.9,68.5,61.6,62.3,59.4,54.4z M115.2,177.7l-44.5-44.5c-0.6-0.6-0.7-1.2-0.7-1.6c0-0.3,0.1-1,0.7-1.6L130,70.6
			c0.6-0.6,1.2-0.7,1.6-0.7c0.3,0,1,0.1,1.6,0.7l44.5,44.5L115.2,177.7z"/>
	</g>
</g>
</svg>
