<?xml version="1.0" encoding="utf-8"?>
<!-- Generator: Adobe Illustrator 24.3.0, SVG Export Plug-In . SVG Version: 6.00 Build 0)  -->
<svg version="1.1" xmlns="http://www.w3.org/2000/svg" xmlns:xlink="http://www.w3.org/1999/xlink" x="0px" y="0px"
	 viewBox="0 0 100 100" style="enable-background:new 0 0 100 100;" xml:space="preserve">
<style type="text/css">
	.st0{display:none;}
	.st1{display:inline;}
	.st2{clip-path:url(#SVGID_2_);fill:#29ABE2;}
	.st3{clip-path:url(#SVGID_2_);fill:none;stroke:#FFFFFF;stroke-width:2;stroke-linecap:round;stroke-linejoin:round;}
	.st4{opacity:0.5;clip-path:url(#SVGID_2_);}
	.st5{clip-path:url(#SVGID_4_);fill:none;stroke:#FFFFFF;stroke-width:2;stroke-linecap:round;stroke-linejoin:round;}
</style>
<g id="Слой_1" class="st0">
	<g class="st1">
		<rect x="0.5" y="0.5" width="99" height="99"/>
		<path d="M99,1v98H1V1H99 M100,0H0v100h100V0L100,0z"/>
	</g>
</g>
<g id="Слой_2">
	<g>
		<defs>
			<rect id="SVGID_1_" x="2.36" y="1.93" width="96" height="96"/>
		</defs>
		<clipPath id="SVGID_2_">
			<use xlink:href="#SVGID_1_"  style="overflow:visible;"/>
		</clipPath>
		<path class="st2" d="M-69.19,161c0.39-0.04,0.79,0.05,1.14,0.26c-0.02,0.26-0.05,0.52-0.08,0.78c0.33,1.12,0.6,2.25,0.8,3.4
			l0.46,0.82c-0.24-0.01-0.29,0.22-0.27,0.4c0.02,0.19,0.04,0.25,0.06,0.42c2.6,1.33,3.65,5.65,4.67,8.15
			c1.42,0.94,2.59,2.23,3.42,3.74c3.78,5.04,10.14,8.78,16.28,8.99c1.04,0.03-0.3-0.09,0.5-0.07c-0.2-0.29-0.2-0.58-0.32-0.86
			c0.12-0.03,0.24-0.06,0.37-0.1c2.77,1.03,4.72,1.97,7.14,0.03c0.46,0.54,1.48,0.26,1.9,0.26c0.43-0.01,0.21-0.03,0.49,0.08
			c0.31-0.32,0.69-0.39,1.12-0.51c3.24-0.75,6.72-1.78,9.45-3.81c5.12-1.97,7.89-4.35,12.02-7.52c0.63-0.48-0.12,0.11,0.37-0.26
			c5.68-7.62,5.63-9.41,8-17.62c-0.06-0.08-0.1-0.14-0.17-0.22c-0.42,0.18-1.24,0.21-1.55-0.1c-0.21-0.22-0.03-0.05-0.18-0.23
			c0.86-0.33,1.15-1.33,1.42-2.15c1.55-0.77-0.54-6.82-0.73-7.75c-0.32-0.26-0.36,0.01-0.47-0.63c-0.11-0.63-0.31-2.21-0.42-2.96
			c-0.11-0.04-0.21,0.01-0.32,0c-1.08-3.46-2.37-9.34-6.32-10.55c-1.34-3.26-8.28-3.83-10.5-6.47c-2.51-1.78-4.25,1.36-6.81-0.35
			c-0.81,2.85-4.47-4.27-5.78-4.94c-1.74,0.41-3.56,1.02-5.37,0.5c-7.71,1.44-8.91,0.06-15.2,5.07c-0.17,0.34-0.32,0.79-0.63,1.02
			c-0.31,0.23-0.67,0.22-1.03,0.25c-2.69,1.72-5.64,2.76-7.28,5.69c-2.52,2.42-4.56,4.84-5.32,8.39c-0.78,1.06-1.33,2.07-0.79,3.4
			C-70.03,150.78-70.76,155.74-69.19,161"/>
		<path class="st3" d="M10.93,19.07c0-2.84,2.3-5.14,5.14-5.14h44.57c2.84,0,5.14,2.3,5.14,5.14v30.86c0,2.84-2.3,5.14-5.14,5.14
			H34.93l-13.71,8.57v-8.57h-5.14c-2.84,0-5.14-2.3-5.14-5.14V19.07z"/>
		<g class="st4">
			<g>
				<defs>
					<rect id="SVGID_3_" x="18.5" y="28.36" width="38" height="12.28"/>
				</defs>
				<clipPath id="SVGID_4_">
					<use xlink:href="#SVGID_3_"  style="overflow:visible;"/>
				</clipPath>
				<path class="st5" d="M19.51,29.36h36 M38.36,39.64H19.51"/>
			</g>
		</g>
		<path class="st3" d="M65.79,34.5h20.57c2.84,0,5.14,2.3,5.14,5.14V70.5c0,2.84-2.3,5.14-5.14,5.14h-5.14v8.57l-13.71-8.57H41.79
			c-2.84,0-5.14-2.3-5.14-5.14V55.07"/>
	</g>
</g>
</svg>
