<?xml version="1.0" encoding="utf-8"?>
<!-- Generator: Adobe Illustrator 24.3.0, SVG Export Plug-In . SVG Version: 6.00 Build 0)  -->
<svg version="1.1" id="Слой_1" xmlns="http://www.w3.org/2000/svg" xmlns:xlink="http://www.w3.org/1999/xlink" x="0px" y="0px"
	 viewBox="0 0 100 100" style="enable-background:new 0 0 100 100;" xml:space="preserve">
<style type="text/css">
	.st0{fill:#FFFFFF;}
</style>
<g>
	<path class="st0" d="M17.86,32.92c0,17.55,14.36,31.92,31.92,31.92S81.7,50.47,81.7,32.92S67.33,1,49.78,1S17.86,15.36,17.86,32.92
		z M74.19,32.92c0,13.42-10.98,24.41-24.41,24.41S25.37,46.34,25.37,32.92S36.36,8.51,49.78,8.51S74.19,19.49,74.19,32.92z"/>
	<path class="st0" d="M12.61,99c9.95-9.95,23.09-15.39,37.17-15.39S77,89.05,86.95,99l5.35-5.35C80.95,82.39,65.83,76.1,49.78,76.1
		S18.62,82.39,7.26,93.65L12.61,99z"/>
</g>
</svg>
