<?xml version="1.0" encoding="utf-8"?>
<!-- Generator: Adobe Illustrator 24.3.0, SVG Export Plug-In . SVG Version: 6.00 Build 0)  -->
<svg version="1.1" id="Слой_1" xmlns="http://www.w3.org/2000/svg" xmlns:xlink="http://www.w3.org/1999/xlink" x="0px" y="0px"
	 viewBox="0 0 500 500" style="enable-background:new 0 0 500 500;" xml:space="preserve">
<style type="text/css">
	.st0{fill:#FFFFFF;}
</style>
<g>
	<path class="st0" d="M88.87,163.18c0,89.2,72.98,162.18,162.18,162.18s162.18-72.98,162.18-162.18S340.26,1,251.06,1
		S88.87,73.98,88.87,163.18z M375.08,163.18c0,68.21-55.81,124.02-124.02,124.02S127.03,231.4,127.03,163.18
		S182.84,39.16,251.06,39.16S375.08,94.97,375.08,163.18z"/>
	<path class="st0" d="M62.16,499c50.56-50.56,117.34-78.23,188.9-78.23s138.33,27.67,188.9,78.23l27.19-27.19
		c-57.72-57.24-134.52-89.2-216.09-89.2s-158.37,31.96-216.09,89.2L62.16,499z"/>
</g>
</svg>
